<svg width="28" height="30" viewBox="0 0 28 30" fill="none" xmlns="http://www.w3.org/2000/svg">
<mask id="path-1-inside-1_4633_147775" fill="white">
<rect width="17" height="13.6796" rx="1" transform="matrix(-1 0 0 1 28 11.5742)"/>
</mask>
<rect width="17" height="13.6796" rx="1" transform="matrix(-1 0 0 1 28 11.5742)" fill="#FEFEFE" stroke="#94A9B8" stroke-width="4" mask="url(#path-1-inside-1_4633_147775)"/>
<path d="M24.4602 27.8537C25.1954 28.5059 26.3319 27.8173 26.0942 26.8637L25.502 24.4885C25.3909 24.043 24.9908 23.7304 24.5317 23.7304L22.4465 23.7304C21.5265 23.7304 21.0947 24.8679 21.7829 25.4784L24.4602 27.8537Z" fill="#94A9B8"/>
<rect x="0.5" y="0.5" width="22" height="16.8887" rx="0.5" fill="#94A9B8" stroke="#94A9B8"/>
<path d="M3.41187 21.1745C2.65931 21.7904 1.55942 21.0785 1.81314 20.1397L2.79099 16.5216C2.90886 16.0854 3.30455 15.7825 3.75635 15.7825L7.19927 15.7825C8.13898 15.7825 8.55983 16.9612 7.83263 17.5563L3.41187 21.1745Z" fill="#94A9B8"/>
<circle cx="6.5" cy="8.5" r="1.5" fill="#FEFEFE"/>
<circle cx="11.5" cy="8.5" r="1.5" fill="#FEFEFE"/>
<circle cx="16.5" cy="8.5" r="1.5" fill="#FEFEFE"/>
</svg>
