<svg width="115" height="123" viewBox="0 0 115 123" fill="none" xmlns="http://www.w3.org/2000/svg">
<path d="M7.07534 114.988V122.317C6.79686 122.393 6.40445 122.462 5.89812 122.526C5.39179 122.589 4.86014 122.621 4.30317 122.621C3.11329 122.621 2.28417 122.418 1.81582 122.013C1.34746 121.608 1.11328 120.874 1.11328 119.81V101.393C1.11328 100.886 1.24619 100.494 1.51202 100.215C1.77784 99.9369 2.16392 99.7217 2.67025 99.5698C3.07532 99.4179 3.53735 99.2913 4.05634 99.1901C4.57533 99.0888 5.10697 99.0002 5.65128 98.9243C6.19559 98.8483 6.73989 98.7977 7.2842 98.7723C7.82851 98.747 8.34117 98.7344 8.82218 98.7344C12.2652 98.7344 14.8729 99.4622 16.645 100.918C18.4172 102.374 19.3033 104.367 19.3033 106.899C19.3033 108.114 19.0817 109.222 18.6387 110.222C18.1957 111.222 17.5564 112.076 16.721 112.785C15.8855 113.494 14.8665 114.038 13.664 114.418C12.4614 114.798 11.1007 114.988 9.58168 114.988H7.07534ZM9.20193 110.317C10.4424 110.317 11.4298 110.032 12.164 109.462C12.8982 108.893 13.2652 108.038 13.2652 106.899C13.2652 104.646 11.9235 103.519 9.23991 103.519C8.78421 103.519 8.38547 103.532 8.0437 103.557C7.70193 103.583 7.36648 103.62 7.03736 103.671V110.317H9.20193Z" fill="#231F20"/>
<path d="M26.2446 122.623C25.0547 122.623 24.2256 122.421 23.7572 122.016C23.2889 121.611 23.0547 120.876 23.0547 119.813V99.2686C23.3332 99.218 23.7319 99.1547 24.2509 99.0788C24.7699 99.0028 25.2952 98.9648 25.8269 98.9648C26.9661 98.9648 27.7826 99.1547 28.2762 99.5345C28.7699 99.9142 29.0167 100.661 29.0167 101.775V122.319C28.7383 122.395 28.3459 122.465 27.8395 122.528C27.3332 122.592 26.8015 122.623 26.2446 122.623Z" fill="#231F20"/>
<path d="M52.1476 102.534C52.1476 103.116 51.9957 103.629 51.6919 104.072C51.3881 104.515 51.0337 104.863 50.6286 105.116C49.9704 104.686 49.2552 104.306 48.483 103.977C47.7109 103.648 46.7931 103.483 45.7298 103.483C43.7045 103.483 42.1222 104.122 40.983 105.401C39.8437 106.679 39.2741 108.496 39.2741 110.85C39.2741 113.205 39.8754 115.11 41.0779 116.337C42.2805 117.565 43.9324 118.179 46.0336 118.179C47.1223 118.179 48.0526 118.034 48.8248 117.743C49.597 117.451 50.3122 117.103 50.9704 116.698C51.3501 117.002 51.6603 117.388 51.9008 117.856C52.1413 118.325 52.2615 118.85 52.2615 119.432C52.2615 119.939 52.1286 120.413 51.8628 120.856C51.597 121.3 51.1349 121.673 50.4767 121.977C49.9704 122.23 49.2868 122.464 48.4261 122.679C47.5653 122.894 46.502 123.002 45.2362 123.002C43.54 123.002 41.9577 122.762 40.4893 122.281C39.0209 121.8 37.7425 121.065 36.6538 120.078C35.5652 119.091 34.7108 117.831 34.0905 116.299C33.4703 114.768 33.1602 112.951 33.1602 110.85C33.1602 108.875 33.4703 107.129 34.0905 105.61C34.7108 104.091 35.5526 102.818 36.6159 101.793C37.6792 100.768 38.9197 99.9893 40.3374 99.4576C41.7551 98.926 43.2741 98.6602 44.8944 98.6602C47.1982 98.6602 48.983 99.0272 50.2489 99.7614C51.5147 100.496 52.1476 101.42 52.1476 102.534Z" fill="#231F20"/>
<path d="M62.0949 114.988V122.317C61.8164 122.393 61.424 122.462 60.9176 122.526C60.4113 122.589 59.8797 122.621 59.3227 122.621C58.1328 122.621 57.3037 122.418 56.8353 122.013C56.367 121.608 56.1328 120.874 56.1328 119.81V101.393C56.1328 100.886 56.2657 100.494 56.5315 100.215C56.7974 99.9369 57.1835 99.7217 57.6898 99.5698C58.0948 99.4179 58.5569 99.2913 59.0759 99.1901C59.5949 99.0888 60.1265 99.0002 60.6708 98.9243C61.2151 98.8483 61.7594 98.7977 62.3037 98.7723C62.848 98.747 63.3607 98.7344 63.8417 98.7344C67.2848 98.7344 69.8924 99.4622 71.6645 100.918C73.4367 102.374 74.3228 104.367 74.3228 106.899C74.3228 108.114 74.1013 109.222 73.6582 110.222C73.2152 111.222 72.5759 112.076 71.7405 112.785C70.905 113.494 69.8861 114.038 68.6835 114.418C67.481 114.798 66.1202 114.988 64.6012 114.988H62.0949ZM64.2215 110.317C65.462 110.317 66.4493 110.032 67.1835 109.462C67.9177 108.893 68.2848 108.038 68.2848 106.899C68.2848 104.646 66.943 103.519 64.2594 103.519C63.8037 103.519 63.405 103.532 63.0632 103.557C62.7215 103.583 62.386 103.62 62.0569 103.671V110.317H64.2215Z" fill="#231F20"/>
<path d="M78.9326 121.579C78.3629 121.009 78.0781 120.243 78.0781 119.281V99.2686C78.3566 99.218 78.7553 99.1547 79.2743 99.0788C79.7933 99.0028 80.306 98.9648 80.8123 98.9648C81.9516 98.9648 82.7743 99.1547 83.2807 99.5345C83.787 99.9142 84.0402 100.661 84.0402 101.775V117.611H93.1542C93.3061 117.864 93.4516 118.193 93.5909 118.598C93.7301 119.003 93.7997 119.446 93.7997 119.927C93.7997 120.762 93.6162 121.389 93.2491 121.807C92.882 122.224 92.382 122.433 91.7491 122.433H81.23C80.268 122.433 79.5022 122.149 78.9326 121.579Z" fill="#231F20"/>
<path d="M107.324 104.129H97.2608C97.0836 103.851 96.9317 103.515 96.8051 103.123C96.6785 102.73 96.6152 102.281 96.6152 101.775C96.6152 100.889 96.8051 100.243 97.1848 99.8381C97.5646 99.433 98.0962 99.2305 98.7798 99.2305H113.096C114.084 100.066 114.577 101.142 114.577 102.458C114.577 103.041 114.451 103.61 114.198 104.167C113.944 104.724 113.603 105.256 113.172 105.762L103.679 117.458H114.198C114.349 117.737 114.495 118.079 114.634 118.484C114.774 118.889 114.843 119.345 114.843 119.851C114.843 120.737 114.653 121.376 114.274 121.769C113.894 122.161 113.375 122.357 112.717 122.357H97.6026C97.2228 122.028 96.9064 121.598 96.6532 121.066C96.4 120.534 96.2734 119.914 96.2734 119.205C96.2734 118.623 96.419 118.041 96.7102 117.458C97.0013 116.876 97.362 116.332 97.7924 115.825L107.324 104.129Z" fill="#231F20"/>
<path d="M99.7158 88.1144H14.8355C6.65194 88.1144 0 81.1397 0 72.5637V28.6584C0 20.0824 6.65827 13.1077 14.8355 13.1077H23.5571C26.3672 13.1077 28.9748 11.7406 30.7154 9.36081L33.1078 6.08231C35.8863 2.27216 40.285 0 44.861 0H70.6207C74.8232 0 78.8359 1.87976 81.6397 5.15826L85.7347 9.94942C87.4562 11.9621 89.8929 13.114 92.4309 13.114H99.7158C107.893 13.114 114.551 20.0887 114.551 28.6647V72.57C114.551 81.146 107.893 88.1207 99.7158 88.1207V88.1144ZM14.8355 18.8039C9.79752 18.8039 5.69623 23.2216 5.69623 28.6584V72.5637C5.69623 77.9941 9.79752 82.4182 14.8355 82.4182H99.7094C104.747 82.4182 108.849 78.0004 108.849 72.5637V28.6584C108.849 23.228 104.747 18.8039 99.7094 18.8039H92.4246C88.222 18.8039 84.203 16.9241 81.3992 13.6456L77.3042 8.85448C75.5827 6.84181 73.146 5.6899 70.6143 5.6899H44.8547C42.0445 5.6899 39.4433 7.057 37.7027 9.43676L35.3103 12.7153C32.5255 16.5254 28.1331 18.7976 23.5508 18.7976H14.8292L14.8355 18.8039Z" fill="#231F20"/>
<path d="M75.4027 37.1135C75.4027 49.968 61.3141 71.4175 57.2697 71.4175C53.2254 71.4175 39.1367 50.7844 39.1367 37.1135C39.1367 27.1008 47.257 18.9805 57.2697 18.9805C67.2824 18.9805 75.4027 27.1008 75.4027 37.1135Z" fill="#231F20"/>
<path d="M57.2702 74.266C52.6119 74.266 46.5992 64.8736 44.2321 60.8356C41.8461 56.766 36.2891 46.3039 36.2891 37.1139C36.2891 25.5443 45.7005 16.1328 57.2702 16.1328C68.8399 16.1328 78.2513 25.5443 78.2513 37.1139C78.2513 45.8418 72.707 56.3862 70.3209 60.5128C67.3525 65.6521 61.7069 74.266 57.2702 74.266ZM57.2702 21.829C48.8398 21.829 41.9853 28.6835 41.9853 37.1139C41.9853 48.8608 53.517 66.0382 57.2512 68.4179C60.9284 65.9685 72.5551 48.3988 72.5551 37.1139C72.5551 28.6898 65.7006 21.829 57.2702 21.829Z" fill="#231F20"/>
<path d="M57.2688 45.2016C61.6521 45.2016 65.2055 41.6482 65.2055 37.2649C65.2055 32.8815 61.6521 29.3281 57.2688 29.3281C52.8854 29.3281 49.332 32.8815 49.332 37.2649C49.332 41.6482 52.8854 45.2016 57.2688 45.2016Z" fill="white"/>
<path d="M57.2692 48.0502C51.3262 48.0502 46.4844 43.2147 46.4844 37.2653C46.4844 31.3159 51.3198 26.4805 57.2692 26.4805C63.2186 26.4805 68.0541 31.3159 68.0541 37.2653C68.0541 43.2147 63.2186 48.0502 57.2692 48.0502ZM57.2692 32.183C54.4654 32.183 52.1806 34.4615 52.1806 37.2717C52.1806 40.0818 54.4591 42.3603 57.2692 42.3603C60.0794 42.3603 62.3579 40.0818 62.3579 37.2717C62.3579 34.4615 60.0731 32.183 57.2692 32.183Z" fill="white"/>
<path d="M21.3703 26.6758H18.3513C15.9115 26.6758 13.9336 28.6537 13.9336 31.0935V34.1125C13.9336 36.5524 15.9115 38.5303 18.3513 38.5303H21.3703C23.8102 38.5303 25.7881 36.5524 25.7881 34.1125V31.0935C25.7881 28.6537 23.8102 26.6758 21.3703 26.6758Z" fill="#231F20"/>
<path d="M21.3771 41.3774H18.3518C14.3454 41.3774 11.0859 38.1179 11.0859 34.1115V31.0862C11.0859 27.0798 14.3454 23.8203 18.3518 23.8203H21.3771C25.3835 23.8203 28.643 27.0798 28.643 31.0862V34.1115C28.643 38.1179 25.3835 41.3774 21.3771 41.3774ZM18.3518 29.5229C17.4847 29.5229 16.7822 30.2254 16.7822 31.0925V34.1178C16.7822 34.9849 17.4847 35.6875 18.3518 35.6875H21.3771C22.2442 35.6875 22.9468 34.9849 22.9468 34.1178V31.0925C22.9468 30.2254 22.2442 29.5229 21.3771 29.5229H18.3518Z" fill="#231F20"/>
</svg>
