<svg width="375" height="495" viewBox="0 0 375 495" fill="none" xmlns="http://www.w3.org/2000/svg">
<rect width="375" height="495" fill="#FEFEFE"/>
<rect y="132" width="375" height="270" fill="#0E0E0F"/>
<path d="M268.784 335.006C198.216 334.606 50.7084 353.837 -14.2243 363.503L-20 405H387.322L399 363.503C384.998 354.171 339.353 335.406 268.784 335.006Z" fill="#F2F7FB"/>
<path d="M115.259 423H98.6933C97.7661 423 97.3381 424.153 98.0406 424.758L103.75 429.675C103.912 429.815 104.025 430.004 104.073 430.213L105.942 438.519C106.141 439.406 107.323 439.588 107.781 438.804L116.123 424.504C116.512 423.837 116.031 423 115.259 423Z" fill="black" stroke="black"/>
<circle cx="33.5" cy="106.5" r="17.5" fill="#F2F7FB" stroke="black" stroke-width="2"/>
<path d="M33.105 117.524L32.4786 116.478C32.0804 115.812 31.2044 115.619 30.562 116.055L29.552 116.74C28.6402 117.359 27.4098 116.683 27.4443 115.582L27.4841 114.364C27.5093 113.589 26.8762 112.953 26.1011 112.973L24.8814 113.003C23.7784 113.031 23.1095 111.798 23.7359 110.89L24.4288 109.887C24.8694 109.249 24.6809 108.372 24.0173 107.97L22.9741 107.338C22.0317 106.766 22.1366 105.368 23.1533 104.942L24.2788 104.472C24.9942 104.172 25.3114 103.334 24.9703 102.637L24.4354 101.542C23.9523 100.552 24.7977 99.4319 25.8834 99.6241L27.0846 99.8362C27.8491 99.9714 28.5685 99.4359 28.6601 98.667L28.8034 97.4567C28.9322 96.3631 30.2501 95.8766 31.0597 96.6243L31.9556 97.4514C32.525 97.9777 33.4209 97.9167 33.9133 97.3176L34.6885 96.3764C35.3893 95.5253 36.7603 95.8289 37.0377 96.8947L37.3443 98.0745C37.5394 98.8248 38.3251 99.2569 39.0644 99.0196L40.2258 98.6471C41.2756 98.3104 42.2658 99.3046 41.9207 100.352L41.5398 101.509C41.2969 102.245 41.7242 103.034 42.4741 103.232L43.6528 103.547C44.7185 103.83 45.0132 105.201 44.1558 105.896L43.2081 106.664C42.6055 107.152 42.5392 108.047 43.0621 108.62L43.885 109.52C44.6283 110.334 44.1332 111.646 43.0369 111.768L41.8238 111.903C41.0527 111.989 40.5125 112.705 40.6425 113.469L40.8469 114.67C41.0314 115.755 39.9046 116.593 38.9171 116.103L37.8234 115.561C37.128 115.216 36.2865 115.526 35.9825 116.239L35.5034 117.361C35.0707 118.374 33.6705 118.469 33.1037 117.524H33.105Z" fill="#0E0E0F"/>
<path d="M34.2674 118.509C33.6767 118.509 33.1326 118.203 32.826 117.691L32.1995 116.645C32.0548 116.403 31.8226 116.236 31.5452 116.175C31.2691 116.114 30.9877 116.168 30.7541 116.326L29.7441 117.011C29.2185 117.368 28.5456 117.4 27.9881 117.093C27.4307 116.787 27.0975 116.203 27.1188 115.568L27.1573 114.349C27.1666 114.067 27.0617 113.801 26.8626 113.6C26.6635 113.4 26.4021 113.295 26.114 113.301L24.8943 113.331C24.2546 113.349 23.6759 113.01 23.3733 112.452C23.0706 111.894 23.1065 111.222 23.4675 110.7L24.1603 109.696C24.3209 109.463 24.3767 109.183 24.3169 108.906C24.2572 108.629 24.0913 108.397 23.8497 108.25L22.8065 107.618C22.265 107.289 21.9571 106.69 22.0049 106.058C22.0526 105.425 22.4455 104.879 23.0321 104.634L24.1577 104.163C24.4191 104.055 24.6169 103.848 24.7178 103.584C24.8173 103.319 24.804 103.034 24.6806 102.781L24.1457 101.686C23.867 101.116 23.932 100.446 24.3143 99.9387C24.6965 99.4323 25.3243 99.1857 25.9495 99.2958L27.1506 99.5079C27.4293 99.5569 27.7081 99.4906 27.935 99.3223C28.162 99.1539 28.3053 98.906 28.3385 98.625L28.4819 97.4147C28.5562 96.7837 28.9729 96.2561 29.5689 96.0361C30.1662 95.816 30.8258 95.9473 31.293 96.3781L32.1889 97.2053C32.3973 97.3975 32.668 97.4929 32.9494 97.4731C33.2321 97.4532 33.4869 97.3233 33.6661 97.1045L34.4412 96.1634C34.8447 95.6729 35.4818 95.4542 36.103 95.5907C36.7241 95.7272 37.2086 96.1952 37.3678 96.8089L37.6744 97.9887C37.7461 98.2618 37.9213 98.4885 38.1695 98.625C38.4177 98.7615 38.7031 98.7881 38.9725 98.7019L40.1338 98.3294C40.7391 98.1345 41.3934 98.2936 41.842 98.7443C42.2906 99.195 42.4446 99.8499 42.2468 100.453L41.8659 101.61C41.777 101.879 41.8035 102.163 41.9376 102.412C42.073 102.661 42.2973 102.838 42.5707 102.911L43.7506 103.225C44.3651 103.388 44.8297 103.876 44.9624 104.496C45.0951 105.117 44.8708 105.751 44.3784 106.152L43.4308 106.919C43.2118 107.097 43.079 107.35 43.0578 107.633C43.0366 107.915 43.1295 108.185 43.3206 108.393L44.1435 109.293C44.5722 109.763 44.6983 110.423 44.474 111.017C44.2497 111.611 43.7174 112.023 43.0857 112.093L41.8726 112.228C41.5912 112.26 41.343 112.401 41.1718 112.626C41.0019 112.851 40.9342 113.13 40.9806 113.408L41.185 114.609C41.2912 115.235 41.0404 115.859 40.5307 116.238C40.021 116.617 39.3494 116.677 38.78 116.395L37.6864 115.853C37.4329 115.727 37.1475 115.712 36.8821 115.81C36.6166 115.908 36.4096 116.106 36.2981 116.366L35.8189 117.487C35.5694 118.072 35.0213 118.461 34.3868 118.504C34.3483 118.506 34.3085 118.508 34.27 118.508L34.2674 118.509ZM33.3954 117.352C33.5958 117.687 33.9475 117.871 34.3377 117.844C34.7279 117.817 35.0518 117.586 35.2044 117.229L35.6836 116.107C35.8667 115.678 36.2091 115.352 36.6485 115.19C37.0865 115.028 37.559 115.053 37.9784 115.261L39.072 115.804C39.4224 115.977 39.818 115.941 40.1312 115.708C40.4444 115.475 40.5931 115.106 40.528 114.722L40.3236 113.521C40.2453 113.061 40.3568 112.602 40.6382 112.228C40.9196 111.856 41.331 111.621 41.7956 111.571L43.0087 111.436C43.3976 111.393 43.7108 111.149 43.8488 110.783C43.9869 110.419 43.9112 110.028 43.6484 109.74L42.8255 108.84C42.511 108.495 42.3557 108.049 42.3915 107.583C42.426 107.118 42.645 106.699 43.0087 106.405L43.9563 105.637C44.259 105.392 44.3917 105.017 44.3107 104.635C44.2298 104.254 43.955 103.966 43.5767 103.865L42.3968 103.551C41.9456 103.43 41.5739 103.139 41.3509 102.728C41.128 102.317 41.0855 101.846 41.2315 101.403L41.6124 100.246C41.7345 99.8751 41.6429 99.4893 41.3682 99.2122C41.0935 98.9352 40.7059 98.8411 40.3343 98.9604L39.1729 99.3329C38.7283 99.476 38.2571 99.431 37.847 99.2056C37.4369 98.9803 37.1475 98.6078 37.0294 98.1557L36.7228 96.9759C36.6246 96.5982 36.3392 96.3224 35.957 96.2389C35.5747 96.1541 35.1991 96.284 34.9509 96.5849L34.1758 97.5261C33.8785 97.8866 33.4577 98.1027 32.9919 98.1345C32.5234 98.1663 32.0787 98.0086 31.7363 97.6918L30.8404 96.8646C30.5537 96.5995 30.1635 96.5226 29.7972 96.6578C29.4309 96.793 29.184 97.1045 29.1389 97.4929L28.9955 98.7032C28.9411 99.1672 28.7035 99.5755 28.3292 99.8538C27.9536 100.132 27.4931 100.241 27.0338 100.16L25.8327 99.948C25.4491 99.8804 25.0775 100.026 24.8425 100.338C24.6076 100.649 24.5691 101.044 24.7403 101.396L25.2752 102.49C25.4796 102.911 25.5022 103.381 25.3376 103.819C25.173 104.256 24.8439 104.596 24.4125 104.776L23.287 105.246C22.9273 105.398 22.6937 105.72 22.6645 106.108C22.6353 106.498 22.8171 106.85 23.1516 107.053L24.1948 107.686C24.5943 107.928 24.8691 108.313 24.966 108.77C25.0642 109.226 24.9713 109.69 24.7058 110.074L24.013 111.078C23.7913 111.399 23.7701 111.796 23.9559 112.138C24.1417 112.482 24.4815 112.679 24.877 112.67L26.0968 112.639C26.56 112.626 27.0033 112.804 27.3325 113.135C27.6616 113.467 27.8355 113.905 27.8196 114.372L27.7811 115.59C27.7691 115.98 27.9656 116.326 28.308 116.513C28.6504 116.701 29.0473 116.682 29.3711 116.464L30.3812 115.778C30.7674 115.516 31.2319 115.427 31.6885 115.528C32.1451 115.629 32.5287 115.904 32.7689 116.306L33.3954 117.352Z" fill="#0E0E0F"/>
<path d="M34.0254 105.489L28.3381 107.011C28.0541 107.086 28.0143 107.471 28.2757 107.604L31.862 109.436C32.0106 109.512 32.1912 109.462 32.2801 109.321L34.3811 105.967C34.5351 105.721 34.3081 105.413 34.0267 105.489H34.0254Z" fill="#0E0E0F"/>
<path d="M32.0111 109.806C31.9103 109.806 31.8081 109.782 31.7125 109.733L28.1263 107.901C27.8847 107.777 27.7467 107.523 27.7745 107.253C27.8037 106.982 27.9909 106.762 28.2537 106.692L33.941 105.17C34.2011 105.101 34.4732 105.195 34.6338 105.413C34.7944 105.629 34.805 105.916 34.6617 106.146L32.5606 109.499C32.4372 109.697 32.2275 109.807 32.0098 109.807L32.0111 109.806ZM28.4541 107.324L32.0045 109.138L34.0843 105.817L28.4541 107.324ZM34.1122 105.809C34.1122 105.809 34.1122 105.809 34.1135 105.809L34.0259 105.489L34.1122 105.809Z" fill="#0E0E0F"/>
<path d="M39.44 104.043L33.7527 105.565C33.4686 105.64 33.4288 106.025 33.6903 106.158L37.2765 107.99C37.4252 108.066 37.6057 108.016 37.6946 107.875L39.7957 104.521C39.9496 104.275 39.7227 103.967 39.4413 104.043H39.44Z" fill="#0E0E0F"/>
<path d="M37.4301 108.36C37.3292 108.36 37.227 108.336 37.1315 108.287L33.5452 106.455C33.3037 106.332 33.1656 106.077 33.1935 105.807C33.2227 105.537 33.4098 105.317 33.6726 105.246L39.3599 103.724C39.6201 103.654 39.8922 103.75 40.0528 103.967C40.2133 104.183 40.224 104.471 40.0806 104.7L37.9796 108.054C37.8561 108.251 37.6464 108.361 37.4288 108.361L37.4301 108.36ZM33.873 105.879L37.4235 107.692L39.5033 104.371L33.873 105.879ZM39.5311 104.363C39.5311 104.363 39.5311 104.363 39.5325 104.363L39.4449 104.044L39.5311 104.363Z" fill="#0E0E0F"/>
<path d="M32.2248 111.418C30.9917 111.418 30.3281 110.907 30.2949 110.881C30.1516 110.767 30.1277 110.559 30.2405 110.415C30.3533 110.272 30.5617 110.248 30.7051 110.36C30.7409 110.388 31.5147 110.958 33.0118 110.679C33.1923 110.646 33.3649 110.764 33.3994 110.944C33.4326 111.125 33.3144 111.297 33.1339 111.331C32.8035 111.394 32.4995 111.419 32.2248 111.419V111.418Z" fill="#0E0E0F"/>
<path d="M62.916 113V103.102H66.6348C68.9043 103.102 70.1143 104.482 70.1211 106.383C70.1143 108.276 68.8906 109.65 66.6074 109.65H64.6934V113H62.916ZM64.6934 108.188H66.3613C67.7012 108.181 68.3027 107.429 68.3027 106.383C68.3027 105.323 67.7012 104.592 66.3613 104.592H64.6934V108.188ZM73.334 103.102V113H71.5566V103.102H73.334ZM81.8516 106.438C81.6396 105.248 80.6895 104.564 79.4863 104.564C77.8662 104.564 76.7178 105.809 76.7246 108.051C76.7178 110.327 77.873 111.537 79.4863 111.537C80.6621 111.537 81.6123 110.881 81.8516 109.719H83.6426C83.3691 111.619 81.8037 113.137 79.459 113.137C76.8477 113.137 74.9268 111.243 74.9336 108.051C74.9268 104.852 76.8682 102.965 79.459 102.965C81.6465 102.965 83.335 104.236 83.6426 106.438H81.8516ZM85.1738 113V103.102H88.8926C91.1621 103.102 92.3721 104.482 92.3789 106.383C92.3721 108.276 91.1484 109.65 88.8652 109.65H86.9512V113H85.1738ZM86.9512 108.188H88.6191C89.959 108.181 90.5605 107.429 90.5605 106.383C90.5605 105.323 89.959 104.592 88.6191 104.592H86.9512V108.188ZM93.8145 113V103.102H95.5918V111.496H99.9668V113H93.8145ZM101.389 113V103.102H107.828V104.592H103.166V107.299H107.486V108.789H103.166V111.496H107.855V113H101.389Z" fill="black"/>
<ellipse cx="256.5" cy="347.5" rx="59.5" ry="9.5" fill="#E2E7EB"/>
<path d="M223.826 189.892C226.411 185.589 232.648 185.589 235.232 189.892L239.74 197.397C242.414 201.849 248.057 203.506 252.714 201.206L260.563 197.329C265.064 195.107 270.311 198.479 270.159 203.496L269.895 212.247C269.737 217.439 273.588 221.883 278.749 222.466L287.448 223.449C292.436 224.012 295.027 229.686 292.187 233.825L287.232 241.042C284.293 245.324 285.13 251.145 289.156 254.426L295.943 259.956C299.835 263.127 298.948 269.301 294.32 271.246L286.25 274.64C281.462 276.653 279.019 282.003 280.633 286.94L283.354 295.261C284.913 300.032 280.829 304.746 275.884 303.881L267.26 302.373C262.143 301.479 257.196 304.658 255.885 309.684L253.674 318.155C252.406 323.012 246.422 324.769 242.729 321.368L236.29 315.437C232.47 311.918 226.589 311.918 222.769 315.437L216.329 321.368C212.637 324.769 206.652 323.012 205.385 318.155L203.175 309.684C201.863 304.658 196.915 301.479 191.799 302.373L183.176 303.881C178.231 304.746 174.146 300.032 175.706 295.261L178.426 286.94C180.04 282.003 177.596 276.653 172.809 274.64L164.739 271.246C160.112 269.301 159.224 263.127 163.115 259.956L169.902 254.426C173.929 251.145 174.766 245.325 171.827 241.042L166.873 233.825C164.032 229.686 166.623 224.012 171.611 223.449L180.311 222.466C185.472 221.883 189.322 217.439 189.165 212.247L188.899 203.496C188.747 198.479 193.994 195.107 198.495 197.329L206.345 201.206C211.002 203.506 216.644 201.849 219.318 197.397L223.826 189.892Z" fill="white" stroke="#0E0E0F" stroke-width="3.32645"/>
<path d="M206.592 245.57L213.354 250.078C213.996 250.506 213.996 251.45 213.354 251.878L206.592 256.386" stroke="#0E0E0F" stroke-width="3.24488" stroke-linecap="round"/>
<circle cx="247.153" cy="251.519" r="5.94894" fill="#0E0E0F"/>
<path d="M229.894 273.477C229.045 274.711 227.229 274.73 226.355 273.513L221.299 266.474C220.277 265.05 221.283 263.066 223.035 263.048L233.003 262.948C234.755 262.93 235.8 264.894 234.807 266.337L229.894 273.477Z" fill="#0E0E0F"/>
<path d="M218 309.001L213.001 343.001L201.001 336.001" stroke="white" stroke-width="3.5" stroke-linecap="round"/>
<path d="M247.5 313.501L253.5 341.821" stroke="white" stroke-width="3.5" stroke-linecap="round"/>
<path d="M281.225 260.173C290.058 260.714 306.535 248.599 308.266 234.755" stroke="#FEFEFE" stroke-width="3.5" stroke-linecap="round"/>
<circle cx="339.5" cy="107.5" r="2.5" fill="#0E0E0F"/>
<circle cx="348.5" cy="107.5" r="2.5" fill="#0E0E0F"/>
<circle cx="357.5" cy="107.5" r="2.5" fill="#0E0E0F"/>
<path d="M309.095 165.95C310.151 164.326 312.669 165 312.77 166.935L313.075 172.76C313.12 173.625 313.718 174.363 314.555 174.587L320.189 176.096C322.06 176.598 322.196 179.201 320.388 179.895L314.943 181.986C314.134 182.296 313.617 183.092 313.662 183.957L313.967 189.782C314.069 191.717 311.635 192.651 310.416 191.145L306.745 186.613C306.2 185.939 305.283 185.694 304.474 186.004L299.029 188.094C297.22 188.789 295.58 186.763 296.635 185.138L299.812 180.246C300.283 179.52 300.234 178.572 299.688 177.898L296.018 173.366C294.799 171.86 296.218 169.674 298.09 170.175L303.724 171.685C304.561 171.909 305.447 171.569 305.919 170.842L309.095 165.95Z" fill="white"/>
<path d="M59.0953 152.95C60.1505 151.326 62.6685 152 62.7699 153.935L63.0752 159.76C63.1205 160.625 63.7178 161.363 64.5548 161.587L70.1886 163.096C72.06 163.598 72.1965 166.201 70.3877 166.895L64.9425 168.986C64.1336 169.296 63.6167 170.092 63.662 170.957L63.9673 176.782C64.0687 178.717 61.635 179.651 60.4157 178.145L56.7451 173.613C56.1999 172.939 55.283 172.694 54.4741 173.004L49.0289 175.094C47.2202 175.789 45.5796 173.763 46.6349 172.138L49.8115 167.246C50.2834 166.52 50.2337 165.572 49.6885 164.898L46.0179 160.366C44.7986 158.86 46.2184 156.674 48.0898 157.175L53.7237 158.685C54.5606 158.909 55.4467 158.569 55.9186 157.842L59.0953 152.95Z" fill="white"/>
<path d="M17.0953 208.95C18.1505 207.326 20.6685 208 20.7699 209.935L21.0752 215.76C21.1205 216.625 21.7178 217.363 22.5548 217.587L28.1886 219.096C30.06 219.598 30.1965 222.201 28.3877 222.895L22.9425 224.986C22.1336 225.296 21.6167 226.092 21.662 226.957L21.9673 232.782C22.0687 234.717 19.635 235.651 18.4157 234.145L14.7451 229.613C14.1999 228.939 13.283 228.694 12.4741 229.004L7.02893 231.094C5.22017 231.789 3.57964 229.763 4.63485 228.138L7.81151 223.246C8.28341 222.52 8.23373 221.572 7.68846 220.898L4.01789 216.366C2.79862 214.86 4.21839 212.674 6.08982 213.175L11.7237 214.685C12.5606 214.909 13.4467 214.569 13.9186 213.842L17.0953 208.95Z" fill="white"/>
<path d="M124.095 189.95C125.151 188.326 127.669 189 127.77 190.935L128.075 196.76C128.12 197.625 128.718 198.363 129.555 198.587L135.189 200.096C137.06 200.598 137.196 203.201 135.388 203.895L129.943 205.986C129.134 206.296 128.617 207.092 128.662 207.957L128.967 213.782C129.069 215.717 126.635 216.651 125.416 215.145L121.745 210.613C121.2 209.939 120.283 209.694 119.474 210.004L114.029 212.094C112.22 212.789 110.58 210.763 111.635 209.138L114.812 204.246C115.283 203.52 115.234 202.572 114.688 201.898L111.018 197.366C109.799 195.86 111.218 193.674 113.09 194.175L118.724 195.685C119.561 195.909 120.447 195.569 120.919 194.842L124.095 189.95Z" fill="white"/>
<path d="M193.095 152.95C194.151 151.326 196.669 152 196.77 153.935L197.075 159.76C197.12 160.625 197.718 161.363 198.555 161.587L204.189 163.096C206.06 163.598 206.196 166.201 204.388 166.895L198.943 168.986C198.134 169.296 197.617 170.092 197.662 170.957L197.967 176.782C198.069 178.717 195.635 179.651 194.416 178.145L190.745 173.613C190.2 172.939 189.283 172.694 188.474 173.004L183.029 175.094C181.22 175.789 179.58 173.763 180.635 172.138L183.812 167.246C184.283 166.52 184.234 165.572 183.688 164.898L180.018 160.366C178.799 158.86 180.218 156.674 182.09 157.175L187.724 158.685C188.561 158.909 189.447 158.569 189.919 157.842L193.095 152.95Z" fill="white"/>
<path d="M181.5 281C177.667 285.667 167.5 295.3 157.5 296.5" stroke="white" stroke-width="3.5" stroke-linecap="round"/>
<path d="M354.5 424.5V437.765L351.115 434.901L350.936 434.763C350.014 434.116 348.759 434.162 347.885 434.901L344.5 437.765V424.5H354.5Z" fill="#0E0E0F" stroke="#0E0E0F" stroke-width="3"/>
<path d="M21.9011 431.034L30 439L38.0989 431.034C39.2809 429.872 39.7772 428.179 39.4118 426.562C38.2393 421.372 30.7389 421.661 30 426.929C29.2611 421.661 21.7607 421.372 20.5882 426.562C20.2228 428.179 20.7191 429.872 21.9011 431.034Z" fill="black" stroke="black"/>
<mask id="path-33-inside-1_4633_84067" fill="white">
<path d="M68.5 422C73.1944 422 77 425.806 77 430.5C77 431.742 76.731 432.922 76.252 433.985L78.0635 438.929L73.6064 437.295C72.1846 438.365 70.4166 439 68.5 439C63.8056 439 60 435.194 60 430.5C60 425.806 63.8056 422 68.5 422Z"/>
</mask>
<path d="M76.252 433.985L73.5165 432.754L73.0142 433.869L73.4351 435.018L76.252 433.985ZM78.0635 438.929L77.031 441.745L83.107 443.973L80.8803 437.896L78.0635 438.929ZM73.6064 437.295L74.639 434.478L73.1064 433.916L71.8023 434.898L73.6064 437.295ZM68.5 422V425C71.5376 425 74 427.462 74 430.5H77H80C80 424.149 74.8513 419 68.5 419V422ZM77 430.5H74C74 431.305 73.8265 432.065 73.5165 432.754L76.252 433.985L78.9874 435.217C79.6355 433.778 80 432.18 80 430.5H77ZM76.252 433.985L73.4351 435.018L75.2467 439.961L78.0635 438.929L80.8803 437.896L79.0688 432.953L76.252 433.985ZM78.0635 438.929L79.096 436.112L74.639 434.478L73.6064 437.295L72.5739 440.112L77.031 441.745L78.0635 438.929ZM73.6064 437.295L71.8023 434.898C70.882 435.591 69.7429 436 68.5 436V439V442C71.0904 442 73.4873 441.139 75.4106 439.692L73.6064 437.295ZM68.5 439V436C65.4624 436 63 433.538 63 430.5H60H57C57 436.851 62.1487 442 68.5 442V439ZM60 430.5H63C63 427.462 65.4624 425 68.5 425V422V419C62.1487 419 57 424.149 57 430.5H60Z" fill="black" mask="url(#path-33-inside-1_4633_84067)"/>
<circle cx="68" cy="431" r="8" fill="black"/>
<path d="M15 461H360" stroke="#F2F7FB" stroke-width="3"/>
</svg>
