<svg width="13" height="13" viewBox="0 0 13 13" fill="none" xmlns="http://www.w3.org/2000/svg">
<path d="M10.2943 1.625C10.7252 1.625 11.1386 1.7962 11.4433 2.10095C11.7481 2.4057 11.9193 2.81902 11.9193 3.25V9.75C11.9193 10.181 11.7481 10.5943 11.4433 10.899C11.1386 11.2038 10.7252 11.375 10.2943 11.375H2.71094C2.27996 11.375 1.86664 11.2038 1.56189 10.899C1.25714 10.5943 1.08594 10.181 1.08594 9.75V3.25C1.08594 2.81902 1.25714 2.4057 1.56189 2.10095C1.86664 1.7962 2.27996 1.625 2.71094 1.625H10.2943ZM6.5026 3.79167C5.78431 3.79167 5.09543 4.07701 4.58752 4.58492C4.07961 5.09283 3.79427 5.78171 3.79427 6.5C3.79427 7.2183 4.07961 7.90717 4.58752 8.41508C5.09543 8.92299 5.78431 9.20833 6.5026 9.20833C7.2209 9.20833 7.90977 8.92299 8.41768 8.41508C8.9256 7.90717 9.21094 7.2183 9.21094 6.5C9.21094 5.78171 8.9256 5.09283 8.41768 4.58492C7.90977 4.07701 7.2209 3.79167 6.5026 3.79167ZM6.5026 4.875C6.93358 4.875 7.34691 5.0462 7.65165 5.35095C7.9564 5.6557 8.1276 6.06902 8.1276 6.5C8.1276 6.93098 7.9564 7.3443 7.65165 7.64905C7.34691 7.9538 6.93358 8.125 6.5026 8.125C6.07163 8.125 5.6583 7.9538 5.35356 7.64905C5.04881 7.3443 4.8776 6.93098 4.8776 6.5C4.8776 6.06902 5.04881 5.6557 5.35356 5.35095C5.6583 5.0462 6.07163 4.875 6.5026 4.875ZM10.2943 3.25H9.7526C9.61454 3.25015 9.48175 3.30302 9.38136 3.39779C9.28097 3.49257 9.22056 3.6221 9.21247 3.75992C9.20438 3.89774 9.24922 4.03346 9.33783 4.13933C9.42644 4.2452 9.55213 4.31324 9.68923 4.32954L9.7526 4.33333H10.2943C10.4323 4.33318 10.5651 4.28032 10.6655 4.18554C10.7659 4.09077 10.8263 3.96123 10.8344 3.82341C10.8425 3.68559 10.7977 3.54988 10.709 3.44401C10.6204 3.33814 10.4947 3.2701 10.3576 3.25379L10.2943 3.25Z" fill="#7FB945"/>
</svg>
