<svg width="23" height="24" viewBox="0 0 23 24" fill="none" xmlns="http://www.w3.org/2000/svg">
<path d="M10.5489 3.42705C10.8483 2.50574 12.1517 2.50574 12.4511 3.42705L13.8574 7.75532C13.9913 8.16734 14.3752 8.4463 14.8085 8.4463H19.3595C20.3282 8.4463 20.731 9.68592 19.9473 10.2553L16.2654 12.9303C15.9149 13.185 15.7683 13.6364 15.9021 14.0484L17.3085 18.3766C17.6078 19.298 16.5533 20.0641 15.7696 19.4947L12.0878 16.8197C11.7373 16.565 11.2627 16.565 10.9122 16.8197L7.23037 19.4947C6.44665 20.0641 5.39217 19.298 5.69153 18.3766L7.09787 14.0484C7.23174 13.6364 7.08508 13.185 6.7346 12.9303L3.05275 10.2553C2.26904 9.68592 2.67181 8.4463 3.64053 8.4463H8.19155C8.62477 8.4463 9.00873 8.16734 9.1426 7.75532L10.5489 3.42705Z" fill="#0E0E0F"/>
</svg>
