<svg width="94" height="105" viewBox="0 0 94 105" fill="none" xmlns="http://www.w3.org/2000/svg">
<path d="M41.4095 87.2504L39.0994 83.3938C37.6312 80.94 34.4011 80.2263 32.0324 81.8345L28.308 84.3616C24.9458 86.6443 20.4089 84.1514 20.5362 80.0895L20.683 75.5974C20.776 72.7428 18.4415 70.3965 15.5834 70.4699L11.0857 70.5823C7.01871 70.6849 4.55209 66.1391 6.8621 62.7908L9.41681 59.0906C11.0417 56.7395 10.3467 53.5036 7.89965 52.0225L4.05289 49.691C0.578093 47.5842 0.964726 42.4274 4.7136 40.8583L8.86378 39.1231C11.5017 38.0184 12.6714 34.9292 11.4136 32.3581L9.44128 28.3206C7.65984 24.6693 10.7774 20.5389 14.7807 21.2477L19.2099 22.0297C22.0289 22.5283 24.6815 20.5536 25.0192 17.7185L25.5477 13.2558C26.0224 9.22316 30.8823 7.42926 33.8677 10.1861L37.1712 13.2362C39.2707 15.1768 42.5742 14.9519 44.39 12.7425L47.2481 9.27204C49.8322 6.13394 54.8878 7.25329 55.9106 11.1833L57.0412 15.5336C57.7606 18.3002 60.6579 19.8937 63.3839 19.0187L67.6662 17.6452C71.5375 16.4036 75.1884 20.0696 73.916 23.9312L72.5114 28.1984C71.6158 30.9112 73.1917 33.8196 75.9568 34.5528L80.3028 35.7113C84.2327 36.7573 85.3192 41.8115 82.1576 44.3728L78.6632 47.2079C76.4413 49.0066 76.1966 52.306 78.1249 54.4177L81.1592 57.7366C83.8999 60.7379 82.0744 65.577 78.0319 66.0267L73.5587 66.5252C70.7152 66.843 68.7234 69.4825 69.203 72.298L69.9567 76.7265C70.6369 80.7298 66.4819 83.819 62.8407 82.0104L58.8079 80.0113C56.2434 78.7404 53.1406 79.8842 52.0198 82.5139L50.2531 86.6492C48.6576 90.3836 43.4943 90.7355 41.4046 87.2504H41.4095Z" fill="white"/>
<path d="M45.6719 90.8905C43.494 90.8905 41.4874 89.7614 40.3569 87.8746L38.0469 84.018C37.5134 83.1235 36.6569 82.5076 35.6341 82.2827C34.6161 82.0579 33.5786 82.2583 32.7172 82.84L28.9928 85.3671C27.0547 86.6819 24.5734 86.7992 22.5179 85.6701C20.4624 84.541 19.234 82.3854 19.3123 80.044L19.4542 75.5519C19.4885 74.5108 19.1019 73.5283 18.3677 72.7902C17.6336 72.0521 16.6695 71.666 15.6075 71.6855L11.1098 71.7979C8.75086 71.8615 6.61704 70.615 5.50119 68.5572C4.38534 66.4993 4.51748 64.0211 5.84867 62.0953L8.40339 58.395C8.99557 57.5347 9.20112 56.5034 8.98089 55.4818C8.76065 54.4602 8.14889 53.6048 7.25817 53.0622L3.41142 50.7306C1.41463 49.5184 0.279202 47.309 0.455389 44.9775C0.631576 42.6459 2.08023 40.632 4.24341 39.7277L8.3936 37.9925C9.35773 37.5917 10.087 36.8291 10.4589 35.8564C10.826 34.8788 10.777 33.8279 10.3219 32.8943L8.34955 28.8568C7.32179 26.755 7.5616 24.2865 8.9711 22.4144C10.3806 20.5472 12.6955 19.638 15.0006 20.0437L19.4298 20.8258C20.4575 21.0067 21.4853 20.7623 22.3222 20.1415C23.1591 19.5207 23.6876 18.6067 23.81 17.5704L24.3385 13.1077C24.6126 10.781 26.1493 8.83554 28.3468 8.02413C30.5491 7.21272 32.9815 7.69663 34.7042 9.28524L38.0077 12.3354C38.7761 13.0441 39.7745 13.396 40.812 13.3227C41.8545 13.2494 42.7941 12.7704 43.4548 11.9639L46.313 8.49338C47.8008 6.68482 50.1499 5.87829 52.4404 6.38176C54.7308 6.88522 56.5172 8.61069 57.1044 10.8738L58.235 15.2242C58.4993 16.2311 59.1453 17.0669 60.0605 17.5704C60.9757 18.0739 62.0279 18.1716 63.0214 17.8539L67.3037 16.4804C69.5354 15.7618 71.9482 16.3484 73.6024 18.0103C75.2566 19.6722 75.8243 22.0869 75.0951 24.311L73.6905 28.5782C73.3626 29.5705 73.4605 30.6165 73.9548 31.5354C74.454 32.4544 75.2811 33.1045 76.2893 33.3733L80.6401 34.5318C82.9061 35.133 84.619 36.9318 85.1084 39.2194C85.5978 41.507 84.7707 43.8483 82.955 45.3245L79.4606 48.1547C78.6531 48.8097 78.1637 49.7433 78.0854 50.7844C78.0071 51.8256 78.3497 52.8227 79.0544 53.5901L82.0887 56.9091C83.6695 58.6394 84.1345 61.0737 83.3074 63.2635C82.4803 65.4533 80.5177 66.9735 78.1882 67.2325L73.715 67.7311C72.6774 67.8484 71.7622 68.3666 71.1309 69.1975C70.5044 70.0285 70.2548 71.055 70.4261 72.0814L71.1798 76.51C71.5714 78.8171 70.6464 81.1194 68.767 82.5173C66.8877 83.9153 64.4113 84.1353 62.3117 83.0941L58.279 81.0949C57.3442 80.6306 56.292 80.5768 55.3132 80.9385C54.3344 81.3002 53.5709 82.0285 53.1598 82.9866L51.393 87.1218C50.473 89.2775 48.4517 90.7145 46.1123 90.8709C45.9704 90.8807 45.8236 90.8856 45.6816 90.8856L45.6719 90.8905ZM42.4564 86.6233C43.1954 87.8599 44.4924 88.5394 45.9312 88.4367C47.3701 88.339 48.5643 87.4884 49.1271 86.1687L50.8938 82.0334C51.5692 80.4497 52.8319 79.2473 54.4518 78.6509C56.0669 78.0546 57.8092 78.1475 59.3557 78.9149L63.3884 80.9141C64.6805 81.5544 66.1389 81.4224 67.2939 80.5621C68.4489 79.7019 68.9971 78.343 68.7573 76.9255L68.0036 72.4969C67.7148 70.8008 68.1259 69.1095 69.1635 67.7311C70.201 66.3576 71.7182 65.4924 73.4311 65.3067L77.9043 64.8081C79.3383 64.6517 80.4933 63.7523 81.0023 62.4032C81.5112 61.059 81.2323 59.617 80.2633 58.5563L77.2289 55.2374C76.069 53.9665 75.4964 52.3192 75.6286 50.6035C75.7558 48.8879 76.5633 47.3433 77.9043 46.2581L81.3987 43.428C82.5145 42.5237 83.0039 41.1404 82.7054 39.7326C82.4069 38.3249 81.3938 37.2642 79.999 36.8927L75.6481 35.7342C73.9841 35.2894 72.6138 34.2141 71.7916 32.6988C70.9694 31.1835 70.8128 29.4483 71.3511 27.8157L72.7557 23.5484C73.206 22.1798 72.8683 20.7574 71.8552 19.7358C70.8421 18.7142 69.4131 18.3672 68.0427 18.8071L63.7604 20.1806C62.1209 20.7085 60.3835 20.5423 58.8712 19.7114C57.3589 18.8804 56.292 17.5069 55.8564 15.8401L54.7259 11.4897C54.3638 10.0966 53.3115 9.07994 51.902 8.77199C50.4925 8.45916 49.1075 8.93819 48.1923 10.0478L45.3342 13.5182C44.2379 14.8478 42.6865 15.6445 40.9686 15.7618C39.241 15.8792 37.6015 15.2975 36.3388 14.1292L33.0353 11.0791C31.9782 10.1015 30.5393 9.81803 29.1886 10.3166C27.8378 10.8152 26.9275 11.9639 26.7611 13.396L26.2325 17.8588C26.0319 19.5696 25.1558 21.0751 23.7757 22.1016C22.3907 23.1281 20.6924 23.5289 18.9991 23.2307L14.5699 22.4486C13.1555 22.1993 11.7852 22.737 10.9189 23.8857C10.0527 25.0344 9.91076 26.491 10.5421 27.7863L12.5144 31.8238C13.2681 33.3733 13.3513 35.1086 12.7444 36.7216C12.1376 38.3347 10.9238 39.586 9.33326 40.2508L5.18308 41.986C3.85678 42.5432 2.99542 43.731 2.88775 45.1632C2.78008 46.6003 3.45057 47.9005 4.68388 48.6483L8.53063 50.9799C10.0038 51.8744 11.0168 53.292 11.3741 54.9783C11.7363 56.6598 11.3937 58.3706 10.4149 59.7881L7.86014 63.4883C7.04283 64.6712 6.96452 66.1376 7.6497 67.3987C8.33487 68.6647 9.58775 69.393 11.0462 69.3588L15.5439 69.2464C17.2519 69.1975 18.8865 69.8525 20.1003 71.0745C21.314 72.2965 21.9551 73.9145 21.8964 75.635L21.7545 80.1271C21.7104 81.5642 22.4347 82.8399 23.6974 83.5292C24.9601 84.2233 26.4234 84.1548 27.6176 83.3483L31.342 80.8212C32.7661 79.8534 34.4791 79.5259 36.1626 79.8974C37.8462 80.2689 39.2606 81.2856 40.1464 82.7666L42.4564 86.6233Z" fill="#231F20"/>
<path d="M44.8002 42.8945L23.829 48.5059C22.7817 48.7845 22.6349 50.2021 23.599 50.6958L36.8228 57.451C37.371 57.7296 38.0366 57.5439 38.3645 57.0257L46.1118 44.6591C46.6795 43.7499 45.8426 42.6159 44.8051 42.8945H44.8002Z" fill="#231F20"/>
<path d="M37.3655 58.8043C36.9935 58.8043 36.6167 58.7163 36.2643 58.5355L23.0405 51.7802C22.1498 51.3257 21.6408 50.3872 21.7436 49.39C21.8512 48.3928 22.5413 47.5814 23.5103 47.3224L44.4815 41.7109C45.4407 41.4568 46.444 41.8038 47.0362 42.6054C47.6284 43.4022 47.6675 44.4629 47.139 45.3085L39.3916 57.6752C38.9365 58.4035 38.1632 58.8092 37.3606 58.8092L37.3655 58.8043ZM24.2493 49.6539L37.341 56.3407L45.01 44.0963L24.2493 49.6539ZM45.1128 44.067C45.1128 44.067 45.1128 44.067 45.1177 44.067L44.7947 42.889L45.1128 44.067Z" fill="#231F20"/>
<path d="M64.7768 37.5468L43.8056 43.1583C42.7583 43.4369 42.6114 44.8544 43.5756 45.3481L56.7994 52.1033C57.3475 52.3819 58.0131 52.1962 58.341 51.6781L66.0884 39.3114C66.6561 38.4022 65.8192 37.2682 64.7816 37.5468H64.7768Z" fill="#231F20"/>
<path d="M57.342 53.4586C56.9701 53.4586 56.5932 53.3706 56.2409 53.1898L43.0171 46.4345C42.1263 45.9799 41.6173 45.0414 41.7201 44.0443C41.8278 43.0471 42.5179 42.2357 43.4869 41.9767L64.458 36.3652C65.4173 36.1062 66.4206 36.4581 67.0128 37.2597C67.6049 38.0565 67.6441 39.1172 67.1155 39.9628L59.3682 52.3295C58.913 53.0578 58.1398 53.4635 57.3371 53.4635L57.342 53.4586ZM44.2259 44.3082L57.3176 50.995L64.9866 38.7506L44.2259 44.3082ZM65.0894 38.7213C65.0894 38.7213 65.0894 38.7213 65.0943 38.7213L64.7713 37.5432L65.0894 38.7213Z" fill="#231F20"/>
<path d="M38.153 64.7366C33.6064 64.7366 31.1594 62.8547 31.037 62.757C30.5084 62.3366 30.4203 61.5692 30.8363 61.0413C31.2523 60.5134 32.0207 60.4254 32.5493 60.836C32.6814 60.9386 35.5347 63.0405 41.0552 62.014C41.7208 61.8918 42.357 62.3268 42.4843 62.9916C42.6066 63.6564 42.1711 64.2918 41.5055 64.4189C40.2868 64.6486 39.1661 64.7415 38.153 64.7415V64.7366Z" fill="#231F20"/>
<path d="M16.9084 88.1063C16.5903 88.1063 16.2721 87.9841 16.0323 87.7348C15.5625 87.2509 15.5723 86.4786 16.0519 86.0045L18.6115 83.5116L7.89836 81.6884C7.44321 81.6101 7.06637 81.2826 6.93423 80.8378C6.80209 80.393 6.92933 79.914 7.26213 79.5963L17.2314 70.1673C17.7208 69.703 18.4941 69.7225 18.959 70.2162C19.4239 70.705 19.4044 71.4773 18.915 71.9417L10.7222 79.6891L21.3914 81.5026C21.8465 81.5808 22.2185 81.9034 22.3555 82.3433C22.4925 82.7833 22.3702 83.2623 22.0423 83.58L17.7599 87.7495C17.5201 87.9792 17.2118 88.0965 16.9035 88.0965L16.9084 88.1063Z" fill="#231F20"/>
<path d="M87.3121 60.2743C87.2289 60.2743 87.1408 60.2645 87.0527 60.2449L80.9107 58.9301C80.4408 58.8274 80.0738 58.4657 79.971 57.9965C79.8682 57.5272 80.0493 57.0433 80.4359 56.7549L89.3285 50.1268L79.2907 47.6534C78.6349 47.4921 78.2336 46.8274 78.3951 46.1724C78.5566 45.5174 79.2222 45.1166 79.878 45.2779L92.4313 48.3671C92.8914 48.4795 93.2438 48.8461 93.3368 49.3105C93.4297 49.7748 93.2487 50.249 92.8669 50.5325L84.0576 57.0971L87.5666 57.8498C88.2273 57.9916 88.6482 58.6417 88.5063 59.3016C88.3839 59.8735 87.8749 60.2694 87.3121 60.2694V60.2743Z" fill="#231F20"/>
<path d="M35.3066 105.001H28.9149C28.2395 105.001 27.6914 104.453 27.6914 103.779C27.6914 103.104 28.2395 102.557 28.9149 102.557H35.3066C36.5497 102.557 37.6117 101.667 37.832 100.445L40.2105 87.0423C40.3279 86.3775 40.9642 85.9327 41.6298 86.05C42.2954 86.1673 42.7407 86.8028 42.6233 87.4675L40.2447 100.87C39.819 103.266 37.7439 105.001 35.3115 105.001H35.3066Z" fill="#231F20"/>
<path d="M73.7541 105H68.3119C67.108 105 65.9481 104.491 65.1357 103.607C64.3183 102.722 63.9121 101.524 64.0149 100.327L64.612 93.2733C64.7148 92.0562 64.4064 90.8195 63.7359 89.798L57.7945 80.6769C57.4275 80.1099 57.589 79.3523 58.1518 78.9857C58.7195 78.6191 59.4781 78.7804 59.8451 79.3425L65.7866 88.4635C66.7507 89.9397 67.1961 91.7238 67.0492 93.4786L66.4522 100.532C66.4081 101.06 66.5794 101.563 66.9367 101.95C67.2939 102.341 67.7833 102.551 68.3119 102.551H73.7541C74.4295 102.551 74.9777 103.098 74.9777 103.773C74.9777 104.447 74.4295 104.995 73.7541 104.995V105Z" fill="#231F20"/>
<path d="M91.7587 11.3076C86.6297 13.5854 85.044 15.4282 83.0864 21.3964C81.1287 15.4282 79.5431 13.5854 74.4141 11.3076C79.5431 9.02978 81.1287 7.18701 83.0864 1.21875C85.044 7.18701 86.6297 9.02978 91.7587 11.3076Z" fill="white"/>
<path d="M83.0882 22.6119C82.5597 22.6119 82.0898 22.2746 81.9234 21.7712C80.0735 16.1255 78.7276 14.5516 73.9167 12.4204C73.4763 12.2249 73.1875 11.785 73.1875 11.306C73.1875 10.8269 73.4714 10.387 73.9167 10.1915C78.7227 8.06032 80.0735 6.48638 81.9234 0.840737C82.0898 0.337272 82.5548 0 83.0882 0C83.6217 0 84.0866 0.337272 84.253 0.840737C86.103 6.48638 87.4489 8.06032 92.2598 10.1915C92.7002 10.387 92.989 10.8269 92.989 11.306C92.989 11.785 92.7051 12.2249 92.2598 12.4204C87.4538 14.5516 86.103 16.1255 84.253 21.7712C84.0866 22.2746 83.6217 22.6119 83.0882 22.6119ZM77.1958 11.3011C80.1028 12.8994 81.7032 14.6689 83.0882 17.8754C84.4733 14.6689 86.0785 12.8994 88.9807 11.3011C86.0736 9.70269 84.4733 7.93323 83.0882 4.7267C81.7032 7.93323 80.098 9.70269 77.1958 11.3011Z" fill="#231F20"/>
</svg>
