<svg width="38" height="30" viewBox="0 0 38 30" fill="none" xmlns="http://www.w3.org/2000/svg">
<path d="M18.3085 0.661868C18.6952 0.291737 19.3048 0.291738 19.6915 0.661868L33.655 14.0276C34.3063 14.651 33.8651 15.75 32.9636 15.75H5.03644C4.13495 15.75 3.69372 14.651 4.34496 14.0276L18.3085 0.661868Z" fill="#0E0E0F"/>
<path d="M28 11C28.5523 11 29 11.4477 29 12V29C29 29.5523 28.5523 30 28 30H22V22C22 21.4477 21.5523 21 21 21H17C16.4477 21 16 21.4477 16 22V30H10C9.44772 30 9 29.5523 9 29V12C9 11.4477 9.44772 11 10 11H28Z" fill="#0E0E0F"/>
</svg>
