<svg width="90" height="90" viewBox="0 0 90 90" fill="none" xmlns="http://www.w3.org/2000/svg">
<rect x="0.5" y="0.5" width="89" height="89" rx="4.5" fill="#E2E7EB" stroke="#E2E7EB"/>
<mask id="mask0_3126_7067" style="mask-type:alpha" maskUnits="userSpaceOnUse" x="7" y="18" width="83" height="72">
<rect x="7" y="18" width="83" height="72" rx="5" fill="#D9D9D9"/>
</mask>
<g mask="url(#mask0_3126_7067)">
<path d="M73.8026 100.901L66.916 89.3763C66.583 88.8193 65.8497 88.6548 65.3102 89.0219L54.2133 96.5668C53.4504 97.0859 52.4179 96.5204 52.4474 95.5921L52.8773 82.169C52.8983 81.5191 52.3673 80.9832 51.7183 81.0001L38.3117 81.3419C37.3887 81.3672 36.8282 80.3292 37.3508 79.5696L44.9623 68.5096C45.329 67.9737 45.173 67.2394 44.6167 66.9019L33.1531 59.9308C32.3649 59.4498 32.4492 58.2767 33.3048 57.918L45.6788 52.7361C46.2772 52.4829 46.5428 51.7824 46.2604 51.1959L40.3811 39.1273C39.9765 38.2961 40.6845 37.355 41.5949 37.5154L54.8033 39.8531C55.4439 39.9671 56.0466 39.5156 56.1225 38.8699L57.6945 25.5313C57.8041 24.6113 58.9083 24.2062 59.5869 24.8308L69.4363 33.9455C69.9126 34.3885 70.6628 34.3379 71.0758 33.8315L79.5977 23.4636C80.1835 22.7504 81.3341 23.0036 81.5659 23.8982L84.9291 36.8993C85.0934 37.5281 85.7509 37.891 86.3705 37.6926L99.1406 33.5826C100.021 33.2998 100.848 34.1354 100.561 35.0131L96.3717 47.7694C96.1694 48.3855 96.5276 49.048 97.1556 49.2168L110.115 52.6728C111.009 52.9091 111.253 54.0611 110.537 54.6477L100.123 63.1125C99.6169 63.5218 99.5621 64.2729 100 64.754L109.041 74.6747C109.664 75.3583 109.247 76.4596 108.328 76.5609L94.9977 78.0463C94.3529 78.118 93.8977 78.7172 94.0073 79.3628L96.2536 92.6045C96.4096 93.5159 95.4655 94.2206 94.6352 93.8071L82.6195 87.8403C82.0379 87.5492 81.3298 87.8108 81.077 88.41L75.8172 100.766C75.4547 101.618 74.2831 101.698 73.8068 100.905L73.8026 100.901Z" fill="#F2F7FB"/>
<path d="M74.7754 102.51C74.0084 102.51 73.3003 102.113 72.9041 101.447L66.0175 89.9223C66.0133 89.9139 66.0007 89.8928 65.9669 89.8886C65.9374 89.8801 65.9164 89.897 65.9079 89.9012L54.811 97.4462C54.1282 97.9103 53.2558 97.9525 52.5309 97.5517C51.806 97.155 51.3761 96.3912 51.4014 95.5642L51.8313 82.1411C51.8313 82.1411 51.8313 82.1073 51.8102 82.0862C51.7891 82.0609 51.7638 82.0651 51.7554 82.0651L38.3489 82.4069C37.5228 82.4322 36.7642 81.9892 36.3722 81.2634C35.9803 80.5376 36.0266 79.6598 36.4944 78.9805L44.106 67.9204C44.106 67.9204 44.1228 67.8951 44.1186 67.8614C44.1102 67.8276 44.0891 67.815 44.0849 67.8107L32.6213 60.8397C31.9174 60.4093 31.517 59.6328 31.576 58.8058C31.6393 57.9829 32.1492 57.2698 32.9121 56.9533L45.286 51.7714C45.286 51.7714 45.3155 51.7587 45.3282 51.7292C45.3408 51.6997 45.3282 51.6743 45.3282 51.6701L39.4489 39.6016C39.0864 38.8589 39.1707 37.9854 39.668 37.3271C40.1653 36.6688 40.9787 36.3481 41.7922 36.4916L55.0006 38.8294C55.0006 38.8294 55.0343 38.8336 55.0596 38.8167C55.0849 38.7956 55.0891 38.7703 55.0891 38.7661L56.6612 25.4274C56.7581 24.6045 57.2976 23.9167 58.0731 23.634C58.8485 23.347 59.7041 23.5201 60.311 24.0813L70.1604 33.196C70.1604 33.196 70.1899 33.2171 70.2194 33.2171C70.2532 33.2171 70.27 33.196 70.2742 33.1875L78.7835 22.7985C79.3103 22.1613 80.1363 21.8743 80.9413 22.0516C81.7463 22.2288 82.3785 22.8365 82.585 23.6382L85.9482 36.6393C85.9482 36.6393 85.9567 36.6731 85.9862 36.6857C86.0157 36.7026 86.0367 36.6942 86.0452 36.6899L98.8153 32.5799C99.5992 32.3267 100.451 32.5335 101.032 33.12C101.614 33.7066 101.816 34.559 101.559 35.3438L97.3697 48.1002C97.3697 48.1002 97.3613 48.1297 97.3739 48.1593C97.3908 48.1888 97.4161 48.193 97.4203 48.1973L110.38 51.6532C111.177 51.8642 111.779 52.5014 111.952 53.3074C112.125 54.1176 111.834 54.9404 111.194 55.4637L100.779 63.9285C100.779 63.9285 100.754 63.9496 100.75 63.9834C100.746 64.0172 100.762 64.034 100.771 64.0425L109.811 73.9632C110.367 74.575 110.532 75.4359 110.241 76.2081C109.95 76.9803 109.259 77.5204 108.437 77.609L95.1065 79.0944C95.1065 79.0944 95.0728 79.0944 95.0517 79.1239C95.0306 79.1493 95.0348 79.1746 95.0391 79.183L97.2854 92.4204C97.4245 93.2348 97.0958 94.0493 96.4341 94.543C95.7724 95.0367 94.9 95.1126 94.1582 94.7455L82.1425 88.7788C82.1425 88.7788 82.113 88.7619 82.0835 88.7788C82.054 88.7914 82.0413 88.8125 82.0413 88.821L76.7815 101.176C76.457 101.936 75.7448 102.442 74.9187 102.501C74.8681 102.501 74.8175 102.506 74.767 102.506L74.7754 102.51ZM74.7122 100.362C74.7122 100.362 74.729 100.4 74.7838 100.4C74.8302 100.4 74.8428 100.37 74.8513 100.354L80.111 88.0023C80.3471 87.4495 80.8022 87.0149 81.3628 86.8081C81.9233 86.6014 82.5555 86.6351 83.0908 86.901L95.1065 92.8677C95.1065 92.8677 95.1486 92.8888 95.1866 92.8593C95.2245 92.8297 95.2203 92.8044 95.2161 92.7833L92.9697 79.5417C92.8686 78.9509 93.0203 78.3391 93.3785 77.858C93.7368 77.377 94.2847 77.0689 94.8831 77.0014L108.214 75.516C108.214 75.516 108.26 75.5118 108.277 75.4654C108.294 75.4232 108.277 75.4021 108.26 75.3852L99.2241 65.4645C98.8195 65.0215 98.613 64.4265 98.6594 63.8273C98.7057 63.2281 98.9965 62.6711 99.4601 62.2913L109.874 53.8264C109.874 53.8264 109.912 53.7969 109.9 53.7505C109.887 53.7041 109.862 53.6956 109.845 53.6914L96.885 50.2354C96.3076 50.0793 95.8103 49.6911 95.5279 49.1636C95.2414 48.6361 95.1866 48.0074 95.372 47.4377L99.5613 34.6813C99.5613 34.6813 99.5782 34.6349 99.5444 34.6012C99.5107 34.5674 99.4854 34.5758 99.4644 34.5801L86.6942 38.6901C86.1252 38.8758 85.4973 38.8125 84.9747 38.5255C84.4521 38.2386 84.0643 37.7365 83.9126 37.1583L80.5494 24.1572C80.5494 24.1572 80.5367 24.1108 80.4904 24.1024C80.444 24.0939 80.4271 24.115 80.4145 24.1277L71.8926 34.4957C71.5133 34.9598 70.9528 35.2468 70.3543 35.289C69.7516 35.3312 69.1616 35.1202 68.7233 34.7151L58.8738 25.6004C58.8738 25.6004 58.8401 25.5666 58.7937 25.5835C58.7516 25.6004 58.7474 25.6257 58.7432 25.6468L57.1711 38.9855C57.0995 39.5805 56.7834 40.1291 56.3071 40.4835C55.8309 40.838 55.2114 40.9857 54.6255 40.8802L41.4171 38.5424C41.4171 38.5424 41.3707 38.534 41.3412 38.572C41.3117 38.6099 41.3243 38.6353 41.3328 38.6521L47.2121 50.7207C47.4734 51.2608 47.5029 51.8896 47.2922 52.4508C47.0814 53.012 46.6431 53.4677 46.091 53.6956L33.717 58.8775C33.717 58.8775 33.6749 58.8944 33.6707 58.9408C33.6707 58.9872 33.6918 59.0041 33.7086 59.0125L45.1722 65.9836C45.6822 66.2958 46.0489 66.8107 46.1753 67.393C46.3018 67.9795 46.1753 68.5998 45.8381 69.0935L38.2266 80.1536C38.2266 80.1536 38.2013 80.1915 38.2224 80.2337C38.2435 80.2759 38.2688 80.2717 38.2941 80.2759L51.7006 79.9341C52.2949 79.9172 52.8849 80.1536 53.3064 80.5798C53.7278 81.006 53.9596 81.5925 53.9386 82.1917L53.5087 95.6148C53.5087 95.6148 53.5087 95.6612 53.5466 95.6865C53.5887 95.7118 53.6098 95.695 53.6267 95.6865L64.7236 88.1416C65.2168 87.804 65.8363 87.6858 66.4221 87.8167C67.0079 87.9475 67.5179 88.3146 67.8256 88.8294L74.7122 100.354V100.362Z" fill="#ACB3B9"/>
<path d="M74.7754 102.51C74.0084 102.51 73.3003 102.113 72.9041 101.447L66.0175 89.9223C66.0133 89.9139 66.0007 89.8928 65.9669 89.8886C65.9374 89.8801 65.9164 89.897 65.9079 89.9012L54.811 97.4462C54.1282 97.9103 53.2558 97.9525 52.5309 97.5517C51.806 97.155 51.3761 96.3912 51.4014 95.5642L51.8313 82.1411C51.8313 82.1411 51.8313 82.1073 51.8102 82.0862C51.7891 82.0609 51.7638 82.0651 51.7554 82.0651L38.3489 82.4069C37.5228 82.4322 36.7642 81.9892 36.3722 81.2634C35.9803 80.5376 36.0266 79.6598 36.4944 78.9805L44.106 67.9204C44.106 67.9204 44.1228 67.8951 44.1186 67.8614C44.1102 67.8276 44.0891 67.815 44.0849 67.8107L32.6213 60.8397C31.9174 60.4093 31.517 59.6328 31.576 58.8058C31.6393 57.9829 32.1492 57.2698 32.9121 56.9533L45.286 51.7714C45.286 51.7714 45.3155 51.7587 45.3282 51.7292C45.3408 51.6997 45.3282 51.6743 45.3282 51.6701L39.4489 39.6016C39.0864 38.8589 39.1707 37.9854 39.668 37.3271C40.1653 36.6688 40.9787 36.3481 41.7922 36.4916L55.0006 38.8294C55.0006 38.8294 55.0343 38.8336 55.0596 38.8167C55.0849 38.7956 55.0891 38.7703 55.0891 38.7661L56.6612 25.4274C56.7581 24.6045 57.2976 23.9167 58.0731 23.634C58.8485 23.347 59.7041 23.5201 60.311 24.0813L70.1604 33.196C70.1604 33.196 70.1899 33.2171 70.2194 33.2171C70.2532 33.2171 70.27 33.196 70.2742 33.1875L78.7835 22.7985C79.3103 22.1613 80.1363 21.8743 80.9413 22.0516C81.7463 22.2288 82.3785 22.8365 82.585 23.6382L85.9482 36.6393C85.9482 36.6393 85.9567 36.6731 85.9862 36.6857C86.0157 36.7026 86.0367 36.6942 86.0452 36.6899L98.8153 32.5799C99.5992 32.3267 100.451 32.5335 101.032 33.12C101.614 33.7066 101.816 34.559 101.559 35.3438L97.3697 48.1002C97.3697 48.1002 97.3613 48.1297 97.3739 48.1593C97.3908 48.1888 97.4161 48.193 97.4203 48.1973L110.38 51.6532C111.177 51.8642 111.779 52.5014 111.952 53.3074C112.125 54.1176 111.834 54.9404 111.194 55.4637L100.779 63.9285C100.779 63.9285 100.754 63.9496 100.75 63.9834C100.746 64.0172 100.762 64.034 100.771 64.0425L109.811 73.9632C110.367 74.575 110.532 75.4359 110.241 76.2081C109.95 76.9803 109.259 77.5204 108.437 77.609L95.1065 79.0944C95.1065 79.0944 95.0728 79.0944 95.0517 79.1239C95.0306 79.1493 95.0348 79.1746 95.0391 79.183L97.2854 92.4204C97.4245 93.2348 97.0958 94.0493 96.4341 94.543C95.7724 95.0367 94.9 95.1126 94.1582 94.7455L82.1425 88.7788C82.1425 88.7788 82.113 88.7619 82.0835 88.7788C82.054 88.7914 82.0413 88.8125 82.0413 88.821L76.7815 101.176C76.457 101.936 75.7448 102.442 74.9187 102.501C74.8681 102.501 74.8175 102.506 74.767 102.506L74.7754 102.51ZM74.7122 100.362C74.7122 100.362 74.729 100.4 74.7838 100.4C74.8302 100.4 74.8428 100.37 74.8513 100.354L80.111 88.0023C80.3471 87.4495 80.8022 87.0149 81.3628 86.8081C81.9233 86.6014 82.5555 86.6351 83.0908 86.901L95.1065 92.8677C95.1065 92.8677 95.1486 92.8888 95.1866 92.8593C95.2245 92.8297 95.2203 92.8044 95.2161 92.7833L92.9697 79.5417C92.8686 78.9509 93.0203 78.3391 93.3785 77.858C93.7368 77.377 94.2847 77.0689 94.8831 77.0014L108.214 75.516C108.214 75.516 108.26 75.5118 108.277 75.4654C108.294 75.4232 108.277 75.4021 108.26 75.3852L99.2241 65.4645C98.8195 65.0215 98.613 64.4265 98.6594 63.8273C98.7057 63.2281 98.9965 62.6711 99.4601 62.2913L109.874 53.8264C109.874 53.8264 109.912 53.7969 109.9 53.7505C109.887 53.7041 109.862 53.6956 109.845 53.6914L96.885 50.2354C96.3076 50.0793 95.8103 49.6911 95.5279 49.1636C95.2414 48.6361 95.1866 48.0074 95.372 47.4377L99.5613 34.6813C99.5613 34.6813 99.5782 34.6349 99.5444 34.6012C99.5107 34.5674 99.4854 34.5758 99.4644 34.5801L86.6942 38.6901C86.1252 38.8758 85.4973 38.8125 84.9747 38.5255C84.4521 38.2386 84.0643 37.7365 83.9126 37.1583L80.5494 24.1572C80.5494 24.1572 80.5367 24.1108 80.4904 24.1024C80.444 24.0939 80.4271 24.115 80.4145 24.1277L71.8926 34.4957C71.5133 34.9598 70.9528 35.2468 70.3543 35.289C69.7516 35.3312 69.1616 35.1202 68.7233 34.7151L58.8738 25.6004C58.8738 25.6004 58.8401 25.5666 58.7937 25.5835C58.7516 25.6004 58.7474 25.6257 58.7432 25.6468L57.1711 38.9855C57.0995 39.5805 56.7834 40.1291 56.3071 40.4835C55.8309 40.838 55.2114 40.9857 54.6255 40.8802L41.4171 38.5424C41.4171 38.5424 41.3707 38.534 41.3412 38.572C41.3117 38.6099 41.3243 38.6353 41.3328 38.6521L47.2121 50.7207C47.4734 51.2608 47.5029 51.8896 47.2922 52.4508C47.0814 53.012 46.6431 53.4677 46.091 53.6956L33.717 58.8775C33.717 58.8775 33.6749 58.8944 33.6707 58.9408C33.6707 58.9872 33.6918 59.0041 33.7086 59.0125L45.1722 65.9836C45.6822 66.2958 46.0489 66.8107 46.1753 67.393C46.3018 67.9795 46.1753 68.5998 45.8381 69.0935L38.2266 80.1536C38.2266 80.1536 38.2013 80.1915 38.2224 80.2337C38.2435 80.2759 38.2688 80.2717 38.2941 80.2759L51.7006 79.9341C52.2949 79.9172 52.8849 80.1536 53.3064 80.5798C53.7278 81.006 53.9596 81.5925 53.9386 82.1917L53.5087 95.6148C53.5087 95.6148 53.5087 95.6612 53.5466 95.6865C53.5887 95.7118 53.6098 95.695 53.6267 95.6865L64.7236 88.1416C65.2168 87.804 65.8363 87.6858 66.4221 87.8167C67.0079 87.9475 67.5179 88.3146 67.8256 88.8294L74.7122 100.354V100.362Z" fill="black" fill-opacity="0.2"/>
<path d="M74.7754 102.51C74.0084 102.51 73.3003 102.113 72.9041 101.447L66.0175 89.9223C66.0133 89.9139 66.0007 89.8928 65.9669 89.8886C65.9374 89.8801 65.9164 89.897 65.9079 89.9012L54.811 97.4462C54.1282 97.9103 53.2558 97.9525 52.5309 97.5517C51.806 97.155 51.3761 96.3912 51.4014 95.5642L51.8313 82.1411C51.8313 82.1411 51.8313 82.1073 51.8102 82.0862C51.7891 82.0609 51.7638 82.0651 51.7554 82.0651L38.3489 82.4069C37.5228 82.4322 36.7642 81.9892 36.3722 81.2634C35.9803 80.5376 36.0266 79.6598 36.4944 78.9805L44.106 67.9204C44.106 67.9204 44.1228 67.8951 44.1186 67.8614C44.1102 67.8276 44.0891 67.815 44.0849 67.8107L32.6213 60.8397C31.9174 60.4093 31.517 59.6328 31.576 58.8058C31.6393 57.9829 32.1492 57.2698 32.9121 56.9533L45.286 51.7714C45.286 51.7714 45.3155 51.7587 45.3282 51.7292C45.3408 51.6997 45.3282 51.6743 45.3282 51.6701L39.4489 39.6016C39.0864 38.8589 39.1707 37.9854 39.668 37.3271C40.1653 36.6688 40.9787 36.3481 41.7922 36.4916L55.0006 38.8294C55.0006 38.8294 55.0343 38.8336 55.0596 38.8167C55.0849 38.7956 55.0891 38.7703 55.0891 38.7661L56.6612 25.4274C56.7581 24.6045 57.2976 23.9167 58.0731 23.634C58.8485 23.347 59.7041 23.5201 60.311 24.0813L70.1604 33.196C70.1604 33.196 70.1899 33.2171 70.2194 33.2171C70.2532 33.2171 70.27 33.196 70.2742 33.1875L78.7835 22.7985C79.3103 22.1613 80.1363 21.8743 80.9413 22.0516C81.7463 22.2288 82.3785 22.8365 82.585 23.6382L85.9482 36.6393C85.9482 36.6393 85.9567 36.6731 85.9862 36.6857C86.0157 36.7026 86.0367 36.6942 86.0452 36.6899L98.8153 32.5799C99.5992 32.3267 100.451 32.5335 101.032 33.12C101.614 33.7066 101.816 34.559 101.559 35.3438L97.3697 48.1002C97.3697 48.1002 97.3613 48.1297 97.3739 48.1593C97.3908 48.1888 97.4161 48.193 97.4203 48.1973L110.38 51.6532C111.177 51.8642 111.779 52.5014 111.952 53.3074C112.125 54.1176 111.834 54.9404 111.194 55.4637L100.779 63.9285C100.779 63.9285 100.754 63.9496 100.75 63.9834C100.746 64.0172 100.762 64.034 100.771 64.0425L109.811 73.9632C110.367 74.575 110.532 75.4359 110.241 76.2081C109.95 76.9803 109.259 77.5204 108.437 77.609L95.1065 79.0944C95.1065 79.0944 95.0728 79.0944 95.0517 79.1239C95.0306 79.1493 95.0348 79.1746 95.0391 79.183L97.2854 92.4204C97.4245 93.2348 97.0958 94.0493 96.4341 94.543C95.7724 95.0367 94.9 95.1126 94.1582 94.7455L82.1425 88.7788C82.1425 88.7788 82.113 88.7619 82.0835 88.7788C82.054 88.7914 82.0413 88.8125 82.0413 88.821L76.7815 101.176C76.457 101.936 75.7448 102.442 74.9187 102.501C74.8681 102.501 74.8175 102.506 74.767 102.506L74.7754 102.51ZM74.7122 100.362C74.7122 100.362 74.729 100.4 74.7838 100.4C74.8302 100.4 74.8428 100.37 74.8513 100.354L80.111 88.0023C80.3471 87.4495 80.8022 87.0149 81.3628 86.8081C81.9233 86.6014 82.5555 86.6351 83.0908 86.901L95.1065 92.8677C95.1065 92.8677 95.1486 92.8888 95.1866 92.8593C95.2245 92.8297 95.2203 92.8044 95.2161 92.7833L92.9697 79.5417C92.8686 78.9509 93.0203 78.3391 93.3785 77.858C93.7368 77.377 94.2847 77.0689 94.8831 77.0014L108.214 75.516C108.214 75.516 108.26 75.5118 108.277 75.4654C108.294 75.4232 108.277 75.4021 108.26 75.3852L99.2241 65.4645C98.8195 65.0215 98.613 64.4265 98.6594 63.8273C98.7057 63.2281 98.9965 62.6711 99.4601 62.2913L109.874 53.8264C109.874 53.8264 109.912 53.7969 109.9 53.7505C109.887 53.7041 109.862 53.6956 109.845 53.6914L96.885 50.2354C96.3076 50.0793 95.8103 49.6911 95.5279 49.1636C95.2414 48.6361 95.1866 48.0074 95.372 47.4377L99.5613 34.6813C99.5613 34.6813 99.5782 34.6349 99.5444 34.6012C99.5107 34.5674 99.4854 34.5758 99.4644 34.5801L86.6942 38.6901C86.1252 38.8758 85.4973 38.8125 84.9747 38.5255C84.4521 38.2386 84.0643 37.7365 83.9126 37.1583L80.5494 24.1572C80.5494 24.1572 80.5367 24.1108 80.4904 24.1024C80.444 24.0939 80.4271 24.115 80.4145 24.1277L71.8926 34.4957C71.5133 34.9598 70.9528 35.2468 70.3543 35.289C69.7516 35.3312 69.1616 35.1202 68.7233 34.7151L58.8738 25.6004C58.8738 25.6004 58.8401 25.5666 58.7937 25.5835C58.7516 25.6004 58.7474 25.6257 58.7432 25.6468L57.1711 38.9855C57.0995 39.5805 56.7834 40.1291 56.3071 40.4835C55.8309 40.838 55.2114 40.9857 54.6255 40.8802L41.4171 38.5424C41.4171 38.5424 41.3707 38.534 41.3412 38.572C41.3117 38.6099 41.3243 38.6353 41.3328 38.6521L47.2121 50.7207C47.4734 51.2608 47.5029 51.8896 47.2922 52.4508C47.0814 53.012 46.6431 53.4677 46.091 53.6956L33.717 58.8775C33.717 58.8775 33.6749 58.8944 33.6707 58.9408C33.6707 58.9872 33.6918 59.0041 33.7086 59.0125L45.1722 65.9836C45.6822 66.2958 46.0489 66.8107 46.1753 67.393C46.3018 67.9795 46.1753 68.5998 45.8381 69.0935L38.2266 80.1536C38.2266 80.1536 38.2013 80.1915 38.2224 80.2337C38.2435 80.2759 38.2688 80.2717 38.2941 80.2759L51.7006 79.9341C52.2949 79.9172 52.8849 80.1536 53.3064 80.5798C53.7278 81.006 53.9596 81.5925 53.9386 82.1917L53.5087 95.6148C53.5087 95.6148 53.5087 95.6612 53.5466 95.6865C53.5887 95.7118 53.6098 95.695 53.6267 95.6865L64.7236 88.1416C65.2168 87.804 65.8363 87.6858 66.4221 87.8167C67.0079 87.9475 67.5179 88.3146 67.8256 88.8294L74.7122 100.354V100.362Z" fill="black" fill-opacity="0.2"/>
<path d="M74.7754 102.51C74.0084 102.51 73.3003 102.113 72.9041 101.447L66.0175 89.9223C66.0133 89.9139 66.0007 89.8928 65.9669 89.8886C65.9374 89.8801 65.9164 89.897 65.9079 89.9012L54.811 97.4462C54.1282 97.9103 53.2558 97.9525 52.5309 97.5517C51.806 97.155 51.3761 96.3912 51.4014 95.5642L51.8313 82.1411C51.8313 82.1411 51.8313 82.1073 51.8102 82.0862C51.7891 82.0609 51.7638 82.0651 51.7554 82.0651L38.3489 82.4069C37.5228 82.4322 36.7642 81.9892 36.3722 81.2634C35.9803 80.5376 36.0266 79.6598 36.4944 78.9805L44.106 67.9204C44.106 67.9204 44.1228 67.8951 44.1186 67.8614C44.1102 67.8276 44.0891 67.815 44.0849 67.8107L32.6213 60.8397C31.9174 60.4093 31.517 59.6328 31.576 58.8058C31.6393 57.9829 32.1492 57.2698 32.9121 56.9533L45.286 51.7714C45.286 51.7714 45.3155 51.7587 45.3282 51.7292C45.3408 51.6997 45.3282 51.6743 45.3282 51.6701L39.4489 39.6016C39.0864 38.8589 39.1707 37.9854 39.668 37.3271C40.1653 36.6688 40.9787 36.3481 41.7922 36.4916L55.0006 38.8294C55.0006 38.8294 55.0343 38.8336 55.0596 38.8167C55.0849 38.7956 55.0891 38.7703 55.0891 38.7661L56.6612 25.4274C56.7581 24.6045 57.2976 23.9167 58.0731 23.634C58.8485 23.347 59.7041 23.5201 60.311 24.0813L70.1604 33.196C70.1604 33.196 70.1899 33.2171 70.2194 33.2171C70.2532 33.2171 70.27 33.196 70.2742 33.1875L78.7835 22.7985C79.3103 22.1613 80.1363 21.8743 80.9413 22.0516C81.7463 22.2288 82.3785 22.8365 82.585 23.6382L85.9482 36.6393C85.9482 36.6393 85.9567 36.6731 85.9862 36.6857C86.0157 36.7026 86.0367 36.6942 86.0452 36.6899L98.8153 32.5799C99.5992 32.3267 100.451 32.5335 101.032 33.12C101.614 33.7066 101.816 34.559 101.559 35.3438L97.3697 48.1002C97.3697 48.1002 97.3613 48.1297 97.3739 48.1593C97.3908 48.1888 97.4161 48.193 97.4203 48.1973L110.38 51.6532C111.177 51.8642 111.779 52.5014 111.952 53.3074C112.125 54.1176 111.834 54.9404 111.194 55.4637L100.779 63.9285C100.779 63.9285 100.754 63.9496 100.75 63.9834C100.746 64.0172 100.762 64.034 100.771 64.0425L109.811 73.9632C110.367 74.575 110.532 75.4359 110.241 76.2081C109.95 76.9803 109.259 77.5204 108.437 77.609L95.1065 79.0944C95.1065 79.0944 95.0728 79.0944 95.0517 79.1239C95.0306 79.1493 95.0348 79.1746 95.0391 79.183L97.2854 92.4204C97.4245 93.2348 97.0958 94.0493 96.4341 94.543C95.7724 95.0367 94.9 95.1126 94.1582 94.7455L82.1425 88.7788C82.1425 88.7788 82.113 88.7619 82.0835 88.7788C82.054 88.7914 82.0413 88.8125 82.0413 88.821L76.7815 101.176C76.457 101.936 75.7448 102.442 74.9187 102.501C74.8681 102.501 74.8175 102.506 74.767 102.506L74.7754 102.51ZM74.7122 100.362C74.7122 100.362 74.729 100.4 74.7838 100.4C74.8302 100.4 74.8428 100.37 74.8513 100.354L80.111 88.0023C80.3471 87.4495 80.8022 87.0149 81.3628 86.8081C81.9233 86.6014 82.5555 86.6351 83.0908 86.901L95.1065 92.8677C95.1065 92.8677 95.1486 92.8888 95.1866 92.8593C95.2245 92.8297 95.2203 92.8044 95.2161 92.7833L92.9697 79.5417C92.8686 78.9509 93.0203 78.3391 93.3785 77.858C93.7368 77.377 94.2847 77.0689 94.8831 77.0014L108.214 75.516C108.214 75.516 108.26 75.5118 108.277 75.4654C108.294 75.4232 108.277 75.4021 108.26 75.3852L99.2241 65.4645C98.8195 65.0215 98.613 64.4265 98.6594 63.8273C98.7057 63.2281 98.9965 62.6711 99.4601 62.2913L109.874 53.8264C109.874 53.8264 109.912 53.7969 109.9 53.7505C109.887 53.7041 109.862 53.6956 109.845 53.6914L96.885 50.2354C96.3076 50.0793 95.8103 49.6911 95.5279 49.1636C95.2414 48.6361 95.1866 48.0074 95.372 47.4377L99.5613 34.6813C99.5613 34.6813 99.5782 34.6349 99.5444 34.6012C99.5107 34.5674 99.4854 34.5758 99.4644 34.5801L86.6942 38.6901C86.1252 38.8758 85.4973 38.8125 84.9747 38.5255C84.4521 38.2386 84.0643 37.7365 83.9126 37.1583L80.5494 24.1572C80.5494 24.1572 80.5367 24.1108 80.4904 24.1024C80.444 24.0939 80.4271 24.115 80.4145 24.1277L71.8926 34.4957C71.5133 34.9598 70.9528 35.2468 70.3543 35.289C69.7516 35.3312 69.1616 35.1202 68.7233 34.7151L58.8738 25.6004C58.8738 25.6004 58.8401 25.5666 58.7937 25.5835C58.7516 25.6004 58.7474 25.6257 58.7432 25.6468L57.1711 38.9855C57.0995 39.5805 56.7834 40.1291 56.3071 40.4835C55.8309 40.838 55.2114 40.9857 54.6255 40.8802L41.4171 38.5424C41.4171 38.5424 41.3707 38.534 41.3412 38.572C41.3117 38.6099 41.3243 38.6353 41.3328 38.6521L47.2121 50.7207C47.4734 51.2608 47.5029 51.8896 47.2922 52.4508C47.0814 53.012 46.6431 53.4677 46.091 53.6956L33.717 58.8775C33.717 58.8775 33.6749 58.8944 33.6707 58.9408C33.6707 58.9872 33.6918 59.0041 33.7086 59.0125L45.1722 65.9836C45.6822 66.2958 46.0489 66.8107 46.1753 67.393C46.3018 67.9795 46.1753 68.5998 45.8381 69.0935L38.2266 80.1536C38.2266 80.1536 38.2013 80.1915 38.2224 80.2337C38.2435 80.2759 38.2688 80.2717 38.2941 80.2759L51.7006 79.9341C52.2949 79.9172 52.8849 80.1536 53.3064 80.5798C53.7278 81.006 53.9596 81.5925 53.9386 82.1917L53.5087 95.6148C53.5087 95.6148 53.5087 95.6612 53.5466 95.6865C53.5887 95.7118 53.6098 95.695 53.6267 95.6865L64.7236 88.1416C65.2168 87.804 65.8363 87.6858 66.4221 87.8167C67.0079 87.9475 67.5179 88.3146 67.8256 88.8294L74.7122 100.354V100.362Z" fill="black" fill-opacity="0.2"/>
<path d="M74.7754 102.51C74.0084 102.51 73.3003 102.113 72.9041 101.447L66.0175 89.9223C66.0133 89.9139 66.0007 89.8928 65.9669 89.8886C65.9374 89.8801 65.9164 89.897 65.9079 89.9012L54.811 97.4462C54.1282 97.9103 53.2558 97.9525 52.5309 97.5517C51.806 97.155 51.3761 96.3912 51.4014 95.5642L51.8313 82.1411C51.8313 82.1411 51.8313 82.1073 51.8102 82.0862C51.7891 82.0609 51.7638 82.0651 51.7554 82.0651L38.3489 82.4069C37.5228 82.4322 36.7642 81.9892 36.3722 81.2634C35.9803 80.5376 36.0266 79.6598 36.4944 78.9805L44.106 67.9204C44.106 67.9204 44.1228 67.8951 44.1186 67.8614C44.1102 67.8276 44.0891 67.815 44.0849 67.8107L32.6213 60.8397C31.9174 60.4093 31.517 59.6328 31.576 58.8058C31.6393 57.9829 32.1492 57.2698 32.9121 56.9533L45.286 51.7714C45.286 51.7714 45.3155 51.7587 45.3282 51.7292C45.3408 51.6997 45.3282 51.6743 45.3282 51.6701L39.4489 39.6016C39.0864 38.8589 39.1707 37.9854 39.668 37.3271C40.1653 36.6688 40.9787 36.3481 41.7922 36.4916L55.0006 38.8294C55.0006 38.8294 55.0343 38.8336 55.0596 38.8167C55.0849 38.7956 55.0891 38.7703 55.0891 38.7661L56.6612 25.4274C56.7581 24.6045 57.2976 23.9167 58.0731 23.634C58.8485 23.347 59.7041 23.5201 60.311 24.0813L70.1604 33.196C70.1604 33.196 70.1899 33.2171 70.2194 33.2171C70.2532 33.2171 70.27 33.196 70.2742 33.1875L78.7835 22.7985C79.3103 22.1613 80.1363 21.8743 80.9413 22.0516C81.7463 22.2288 82.3785 22.8365 82.585 23.6382L85.9482 36.6393C85.9482 36.6393 85.9567 36.6731 85.9862 36.6857C86.0157 36.7026 86.0367 36.6942 86.0452 36.6899L98.8153 32.5799C99.5992 32.3267 100.451 32.5335 101.032 33.12C101.614 33.7066 101.816 34.559 101.559 35.3438L97.3697 48.1002C97.3697 48.1002 97.3613 48.1297 97.3739 48.1593C97.3908 48.1888 97.4161 48.193 97.4203 48.1973L110.38 51.6532C111.177 51.8642 111.779 52.5014 111.952 53.3074C112.125 54.1176 111.834 54.9404 111.194 55.4637L100.779 63.9285C100.779 63.9285 100.754 63.9496 100.75 63.9834C100.746 64.0172 100.762 64.034 100.771 64.0425L109.811 73.9632C110.367 74.575 110.532 75.4359 110.241 76.2081C109.95 76.9803 109.259 77.5204 108.437 77.609L95.1065 79.0944C95.1065 79.0944 95.0728 79.0944 95.0517 79.1239C95.0306 79.1493 95.0348 79.1746 95.0391 79.183L97.2854 92.4204C97.4245 93.2348 97.0958 94.0493 96.4341 94.543C95.7724 95.0367 94.9 95.1126 94.1582 94.7455L82.1425 88.7788C82.1425 88.7788 82.113 88.7619 82.0835 88.7788C82.054 88.7914 82.0413 88.8125 82.0413 88.821L76.7815 101.176C76.457 101.936 75.7448 102.442 74.9187 102.501C74.8681 102.501 74.8175 102.506 74.767 102.506L74.7754 102.51ZM74.7122 100.362C74.7122 100.362 74.729 100.4 74.7838 100.4C74.8302 100.4 74.8428 100.37 74.8513 100.354L80.111 88.0023C80.3471 87.4495 80.8022 87.0149 81.3628 86.8081C81.9233 86.6014 82.5555 86.6351 83.0908 86.901L95.1065 92.8677C95.1065 92.8677 95.1486 92.8888 95.1866 92.8593C95.2245 92.8297 95.2203 92.8044 95.2161 92.7833L92.9697 79.5417C92.8686 78.9509 93.0203 78.3391 93.3785 77.858C93.7368 77.377 94.2847 77.0689 94.8831 77.0014L108.214 75.516C108.214 75.516 108.26 75.5118 108.277 75.4654C108.294 75.4232 108.277 75.4021 108.26 75.3852L99.2241 65.4645C98.8195 65.0215 98.613 64.4265 98.6594 63.8273C98.7057 63.2281 98.9965 62.6711 99.4601 62.2913L109.874 53.8264C109.874 53.8264 109.912 53.7969 109.9 53.7505C109.887 53.7041 109.862 53.6956 109.845 53.6914L96.885 50.2354C96.3076 50.0793 95.8103 49.6911 95.5279 49.1636C95.2414 48.6361 95.1866 48.0074 95.372 47.4377L99.5613 34.6813C99.5613 34.6813 99.5782 34.6349 99.5444 34.6012C99.5107 34.5674 99.4854 34.5758 99.4644 34.5801L86.6942 38.6901C86.1252 38.8758 85.4973 38.8125 84.9747 38.5255C84.4521 38.2386 84.0643 37.7365 83.9126 37.1583L80.5494 24.1572C80.5494 24.1572 80.5367 24.1108 80.4904 24.1024C80.444 24.0939 80.4271 24.115 80.4145 24.1277L71.8926 34.4957C71.5133 34.9598 70.9528 35.2468 70.3543 35.289C69.7516 35.3312 69.1616 35.1202 68.7233 34.7151L58.8738 25.6004C58.8738 25.6004 58.8401 25.5666 58.7937 25.5835C58.7516 25.6004 58.7474 25.6257 58.7432 25.6468L57.1711 38.9855C57.0995 39.5805 56.7834 40.1291 56.3071 40.4835C55.8309 40.838 55.2114 40.9857 54.6255 40.8802L41.4171 38.5424C41.4171 38.5424 41.3707 38.534 41.3412 38.572C41.3117 38.6099 41.3243 38.6353 41.3328 38.6521L47.2121 50.7207C47.4734 51.2608 47.5029 51.8896 47.2922 52.4508C47.0814 53.012 46.6431 53.4677 46.091 53.6956L33.717 58.8775C33.717 58.8775 33.6749 58.8944 33.6707 58.9408C33.6707 58.9872 33.6918 59.0041 33.7086 59.0125L45.1722 65.9836C45.6822 66.2958 46.0489 66.8107 46.1753 67.393C46.3018 67.9795 46.1753 68.5998 45.8381 69.0935L38.2266 80.1536C38.2266 80.1536 38.2013 80.1915 38.2224 80.2337C38.2435 80.2759 38.2688 80.2717 38.2941 80.2759L51.7006 79.9341C52.2949 79.9172 52.8849 80.1536 53.3064 80.5798C53.7278 81.006 53.9596 81.5925 53.9386 82.1917L53.5087 95.6148C53.5087 95.6148 53.5087 95.6612 53.5466 95.6865C53.5887 95.7118 53.6098 95.695 53.6267 95.6865L64.7236 88.1416C65.2168 87.804 65.8363 87.6858 66.4221 87.8167C67.0079 87.9475 67.5179 88.3146 67.8256 88.8294L74.7122 100.354V100.362Z" fill="black" fill-opacity="0.2"/>
<path d="M74.7754 102.51C74.0084 102.51 73.3003 102.113 72.9041 101.447L66.0175 89.9223C66.0133 89.9139 66.0007 89.8928 65.9669 89.8886C65.9374 89.8801 65.9164 89.897 65.9079 89.9012L54.811 97.4462C54.1282 97.9103 53.2558 97.9525 52.5309 97.5517C51.806 97.155 51.3761 96.3912 51.4014 95.5642L51.8313 82.1411C51.8313 82.1411 51.8313 82.1073 51.8102 82.0862C51.7891 82.0609 51.7638 82.0651 51.7554 82.0651L38.3489 82.4069C37.5228 82.4322 36.7642 81.9892 36.3722 81.2634C35.9803 80.5376 36.0266 79.6598 36.4944 78.9805L44.106 67.9204C44.106 67.9204 44.1228 67.8951 44.1186 67.8614C44.1102 67.8276 44.0891 67.815 44.0849 67.8107L32.6213 60.8397C31.9174 60.4093 31.517 59.6328 31.576 58.8058C31.6393 57.9829 32.1492 57.2698 32.9121 56.9533L45.286 51.7714C45.286 51.7714 45.3155 51.7587 45.3282 51.7292C45.3408 51.6997 45.3282 51.6743 45.3282 51.6701L39.4489 39.6016C39.0864 38.8589 39.1707 37.9854 39.668 37.3271C40.1653 36.6688 40.9787 36.3481 41.7922 36.4916L55.0006 38.8294C55.0006 38.8294 55.0343 38.8336 55.0596 38.8167C55.0849 38.7956 55.0891 38.7703 55.0891 38.7661L56.6612 25.4274C56.7581 24.6045 57.2976 23.9167 58.0731 23.634C58.8485 23.347 59.7041 23.5201 60.311 24.0813L70.1604 33.196C70.1604 33.196 70.1899 33.2171 70.2194 33.2171C70.2532 33.2171 70.27 33.196 70.2742 33.1875L78.7835 22.7985C79.3103 22.1613 80.1363 21.8743 80.9413 22.0516C81.7463 22.2288 82.3785 22.8365 82.585 23.6382L85.9482 36.6393C85.9482 36.6393 85.9567 36.6731 85.9862 36.6857C86.0157 36.7026 86.0367 36.6942 86.0452 36.6899L98.8153 32.5799C99.5992 32.3267 100.451 32.5335 101.032 33.12C101.614 33.7066 101.816 34.559 101.559 35.3438L97.3697 48.1002C97.3697 48.1002 97.3613 48.1297 97.3739 48.1593C97.3908 48.1888 97.4161 48.193 97.4203 48.1973L110.38 51.6532C111.177 51.8642 111.779 52.5014 111.952 53.3074C112.125 54.1176 111.834 54.9404 111.194 55.4637L100.779 63.9285C100.779 63.9285 100.754 63.9496 100.75 63.9834C100.746 64.0172 100.762 64.034 100.771 64.0425L109.811 73.9632C110.367 74.575 110.532 75.4359 110.241 76.2081C109.95 76.9803 109.259 77.5204 108.437 77.609L95.1065 79.0944C95.1065 79.0944 95.0728 79.0944 95.0517 79.1239C95.0306 79.1493 95.0348 79.1746 95.0391 79.183L97.2854 92.4204C97.4245 93.2348 97.0958 94.0493 96.4341 94.543C95.7724 95.0367 94.9 95.1126 94.1582 94.7455L82.1425 88.7788C82.1425 88.7788 82.113 88.7619 82.0835 88.7788C82.054 88.7914 82.0413 88.8125 82.0413 88.821L76.7815 101.176C76.457 101.936 75.7448 102.442 74.9187 102.501C74.8681 102.501 74.8175 102.506 74.767 102.506L74.7754 102.51ZM74.7122 100.362C74.7122 100.362 74.729 100.4 74.7838 100.4C74.8302 100.4 74.8428 100.37 74.8513 100.354L80.111 88.0023C80.3471 87.4495 80.8022 87.0149 81.3628 86.8081C81.9233 86.6014 82.5555 86.6351 83.0908 86.901L95.1065 92.8677C95.1065 92.8677 95.1486 92.8888 95.1866 92.8593C95.2245 92.8297 95.2203 92.8044 95.2161 92.7833L92.9697 79.5417C92.8686 78.9509 93.0203 78.3391 93.3785 77.858C93.7368 77.377 94.2847 77.0689 94.8831 77.0014L108.214 75.516C108.214 75.516 108.26 75.5118 108.277 75.4654C108.294 75.4232 108.277 75.4021 108.26 75.3852L99.2241 65.4645C98.8195 65.0215 98.613 64.4265 98.6594 63.8273C98.7057 63.2281 98.9965 62.6711 99.4601 62.2913L109.874 53.8264C109.874 53.8264 109.912 53.7969 109.9 53.7505C109.887 53.7041 109.862 53.6956 109.845 53.6914L96.885 50.2354C96.3076 50.0793 95.8103 49.6911 95.5279 49.1636C95.2414 48.6361 95.1866 48.0074 95.372 47.4377L99.5613 34.6813C99.5613 34.6813 99.5782 34.6349 99.5444 34.6012C99.5107 34.5674 99.4854 34.5758 99.4644 34.5801L86.6942 38.6901C86.1252 38.8758 85.4973 38.8125 84.9747 38.5255C84.4521 38.2386 84.0643 37.7365 83.9126 37.1583L80.5494 24.1572C80.5494 24.1572 80.5367 24.1108 80.4904 24.1024C80.444 24.0939 80.4271 24.115 80.4145 24.1277L71.8926 34.4957C71.5133 34.9598 70.9528 35.2468 70.3543 35.289C69.7516 35.3312 69.1616 35.1202 68.7233 34.7151L58.8738 25.6004C58.8738 25.6004 58.8401 25.5666 58.7937 25.5835C58.7516 25.6004 58.7474 25.6257 58.7432 25.6468L57.1711 38.9855C57.0995 39.5805 56.7834 40.1291 56.3071 40.4835C55.8309 40.838 55.2114 40.9857 54.6255 40.8802L41.4171 38.5424C41.4171 38.5424 41.3707 38.534 41.3412 38.572C41.3117 38.6099 41.3243 38.6353 41.3328 38.6521L47.2121 50.7207C47.4734 51.2608 47.5029 51.8896 47.2922 52.4508C47.0814 53.012 46.6431 53.4677 46.091 53.6956L33.717 58.8775C33.717 58.8775 33.6749 58.8944 33.6707 58.9408C33.6707 58.9872 33.6918 59.0041 33.7086 59.0125L45.1722 65.9836C45.6822 66.2958 46.0489 66.8107 46.1753 67.393C46.3018 67.9795 46.1753 68.5998 45.8381 69.0935L38.2266 80.1536C38.2266 80.1536 38.2013 80.1915 38.2224 80.2337C38.2435 80.2759 38.2688 80.2717 38.2941 80.2759L51.7006 79.9341C52.2949 79.9172 52.8849 80.1536 53.3064 80.5798C53.7278 81.006 53.9596 81.5925 53.9386 82.1917L53.5087 95.6148C53.5087 95.6148 53.5087 95.6612 53.5466 95.6865C53.5887 95.7118 53.6098 95.695 53.6267 95.6865L64.7236 88.1416C65.2168 87.804 65.8363 87.6858 66.4221 87.8167C67.0079 87.9475 67.5179 88.3146 67.8256 88.8294L74.7122 100.354V100.362Z" fill="black" fill-opacity="0.2"/>
<path d="M74.7754 102.51C74.0084 102.51 73.3003 102.113 72.9041 101.447L66.0175 89.9223C66.0133 89.9139 66.0007 89.8928 65.9669 89.8886C65.9374 89.8801 65.9164 89.897 65.9079 89.9012L54.811 97.4462C54.1282 97.9103 53.2558 97.9525 52.5309 97.5517C51.806 97.155 51.3761 96.3912 51.4014 95.5642L51.8313 82.1411C51.8313 82.1411 51.8313 82.1073 51.8102 82.0862C51.7891 82.0609 51.7638 82.0651 51.7554 82.0651L38.3489 82.4069C37.5228 82.4322 36.7642 81.9892 36.3722 81.2634C35.9803 80.5376 36.0266 79.6598 36.4944 78.9805L44.106 67.9204C44.106 67.9204 44.1228 67.8951 44.1186 67.8614C44.1102 67.8276 44.0891 67.815 44.0849 67.8107L32.6213 60.8397C31.9174 60.4093 31.517 59.6328 31.576 58.8058C31.6393 57.9829 32.1492 57.2698 32.9121 56.9533L45.286 51.7714C45.286 51.7714 45.3155 51.7587 45.3282 51.7292C45.3408 51.6997 45.3282 51.6743 45.3282 51.6701L39.4489 39.6016C39.0864 38.8589 39.1707 37.9854 39.668 37.3271C40.1653 36.6688 40.9787 36.3481 41.7922 36.4916L55.0006 38.8294C55.0006 38.8294 55.0343 38.8336 55.0596 38.8167C55.0849 38.7956 55.0891 38.7703 55.0891 38.7661L56.6612 25.4274C56.7581 24.6045 57.2976 23.9167 58.0731 23.634C58.8485 23.347 59.7041 23.5201 60.311 24.0813L70.1604 33.196C70.1604 33.196 70.1899 33.2171 70.2194 33.2171C70.2532 33.2171 70.27 33.196 70.2742 33.1875L78.7835 22.7985C79.3103 22.1613 80.1363 21.8743 80.9413 22.0516C81.7463 22.2288 82.3785 22.8365 82.585 23.6382L85.9482 36.6393C85.9482 36.6393 85.9567 36.6731 85.9862 36.6857C86.0157 36.7026 86.0367 36.6942 86.0452 36.6899L98.8153 32.5799C99.5992 32.3267 100.451 32.5335 101.032 33.12C101.614 33.7066 101.816 34.559 101.559 35.3438L97.3697 48.1002C97.3697 48.1002 97.3613 48.1297 97.3739 48.1593C97.3908 48.1888 97.4161 48.193 97.4203 48.1973L110.38 51.6532C111.177 51.8642 111.779 52.5014 111.952 53.3074C112.125 54.1176 111.834 54.9404 111.194 55.4637L100.779 63.9285C100.779 63.9285 100.754 63.9496 100.75 63.9834C100.746 64.0172 100.762 64.034 100.771 64.0425L109.811 73.9632C110.367 74.575 110.532 75.4359 110.241 76.2081C109.95 76.9803 109.259 77.5204 108.437 77.609L95.1065 79.0944C95.1065 79.0944 95.0728 79.0944 95.0517 79.1239C95.0306 79.1493 95.0348 79.1746 95.0391 79.183L97.2854 92.4204C97.4245 93.2348 97.0958 94.0493 96.4341 94.543C95.7724 95.0367 94.9 95.1126 94.1582 94.7455L82.1425 88.7788C82.1425 88.7788 82.113 88.7619 82.0835 88.7788C82.054 88.7914 82.0413 88.8125 82.0413 88.821L76.7815 101.176C76.457 101.936 75.7448 102.442 74.9187 102.501C74.8681 102.501 74.8175 102.506 74.767 102.506L74.7754 102.51ZM74.7122 100.362C74.7122 100.362 74.729 100.4 74.7838 100.4C74.8302 100.4 74.8428 100.37 74.8513 100.354L80.111 88.0023C80.3471 87.4495 80.8022 87.0149 81.3628 86.8081C81.9233 86.6014 82.5555 86.6351 83.0908 86.901L95.1065 92.8677C95.1065 92.8677 95.1486 92.8888 95.1866 92.8593C95.2245 92.8297 95.2203 92.8044 95.2161 92.7833L92.9697 79.5417C92.8686 78.9509 93.0203 78.3391 93.3785 77.858C93.7368 77.377 94.2847 77.0689 94.8831 77.0014L108.214 75.516C108.214 75.516 108.26 75.5118 108.277 75.4654C108.294 75.4232 108.277 75.4021 108.26 75.3852L99.2241 65.4645C98.8195 65.0215 98.613 64.4265 98.6594 63.8273C98.7057 63.2281 98.9965 62.6711 99.4601 62.2913L109.874 53.8264C109.874 53.8264 109.912 53.7969 109.9 53.7505C109.887 53.7041 109.862 53.6956 109.845 53.6914L96.885 50.2354C96.3076 50.0793 95.8103 49.6911 95.5279 49.1636C95.2414 48.6361 95.1866 48.0074 95.372 47.4377L99.5613 34.6813C99.5613 34.6813 99.5782 34.6349 99.5444 34.6012C99.5107 34.5674 99.4854 34.5758 99.4644 34.5801L86.6942 38.6901C86.1252 38.8758 85.4973 38.8125 84.9747 38.5255C84.4521 38.2386 84.0643 37.7365 83.9126 37.1583L80.5494 24.1572C80.5494 24.1572 80.5367 24.1108 80.4904 24.1024C80.444 24.0939 80.4271 24.115 80.4145 24.1277L71.8926 34.4957C71.5133 34.9598 70.9528 35.2468 70.3543 35.289C69.7516 35.3312 69.1616 35.1202 68.7233 34.7151L58.8738 25.6004C58.8738 25.6004 58.8401 25.5666 58.7937 25.5835C58.7516 25.6004 58.7474 25.6257 58.7432 25.6468L57.1711 38.9855C57.0995 39.5805 56.7834 40.1291 56.3071 40.4835C55.8309 40.838 55.2114 40.9857 54.6255 40.8802L41.4171 38.5424C41.4171 38.5424 41.3707 38.534 41.3412 38.572C41.3117 38.6099 41.3243 38.6353 41.3328 38.6521L47.2121 50.7207C47.4734 51.2608 47.5029 51.8896 47.2922 52.4508C47.0814 53.012 46.6431 53.4677 46.091 53.6956L33.717 58.8775C33.717 58.8775 33.6749 58.8944 33.6707 58.9408C33.6707 58.9872 33.6918 59.0041 33.7086 59.0125L45.1722 65.9836C45.6822 66.2958 46.0489 66.8107 46.1753 67.393C46.3018 67.9795 46.1753 68.5998 45.8381 69.0935L38.2266 80.1536C38.2266 80.1536 38.2013 80.1915 38.2224 80.2337C38.2435 80.2759 38.2688 80.2717 38.2941 80.2759L51.7006 79.9341C52.2949 79.9172 52.8849 80.1536 53.3064 80.5798C53.7278 81.006 53.9596 81.5925 53.9386 82.1917L53.5087 95.6148C53.5087 95.6148 53.5087 95.6612 53.5466 95.6865C53.5887 95.7118 53.6098 95.695 53.6267 95.6865L64.7236 88.1416C65.2168 87.804 65.8363 87.6858 66.4221 87.8167C67.0079 87.9475 67.5179 88.3146 67.8256 88.8294L74.7122 100.354V100.362Z" fill="black" fill-opacity="0.2"/>
<path d="M74.7754 102.51C74.0084 102.51 73.3003 102.113 72.9041 101.447L66.0175 89.9223C66.0133 89.9139 66.0007 89.8928 65.9669 89.8886C65.9374 89.8801 65.9164 89.897 65.9079 89.9012L54.811 97.4462C54.1282 97.9103 53.2558 97.9525 52.5309 97.5517C51.806 97.155 51.3761 96.3912 51.4014 95.5642L51.8313 82.1411C51.8313 82.1411 51.8313 82.1073 51.8102 82.0862C51.7891 82.0609 51.7638 82.0651 51.7554 82.0651L38.3489 82.4069C37.5228 82.4322 36.7642 81.9892 36.3722 81.2634C35.9803 80.5376 36.0266 79.6598 36.4944 78.9805L44.106 67.9204C44.106 67.9204 44.1228 67.8951 44.1186 67.8614C44.1102 67.8276 44.0891 67.815 44.0849 67.8107L32.6213 60.8397C31.9174 60.4093 31.517 59.6328 31.576 58.8058C31.6393 57.9829 32.1492 57.2698 32.9121 56.9533L45.286 51.7714C45.286 51.7714 45.3155 51.7587 45.3282 51.7292C45.3408 51.6997 45.3282 51.6743 45.3282 51.6701L39.4489 39.6016C39.0864 38.8589 39.1707 37.9854 39.668 37.3271C40.1653 36.6688 40.9787 36.3481 41.7922 36.4916L55.0006 38.8294C55.0006 38.8294 55.0343 38.8336 55.0596 38.8167C55.0849 38.7956 55.0891 38.7703 55.0891 38.7661L56.6612 25.4274C56.7581 24.6045 57.2976 23.9167 58.0731 23.634C58.8485 23.347 59.7041 23.5201 60.311 24.0813L70.1604 33.196C70.1604 33.196 70.1899 33.2171 70.2194 33.2171C70.2532 33.2171 70.27 33.196 70.2742 33.1875L78.7835 22.7985C79.3103 22.1613 80.1363 21.8743 80.9413 22.0516C81.7463 22.2288 82.3785 22.8365 82.585 23.6382L85.9482 36.6393C85.9482 36.6393 85.9567 36.6731 85.9862 36.6857C86.0157 36.7026 86.0367 36.6942 86.0452 36.6899L98.8153 32.5799C99.5992 32.3267 100.451 32.5335 101.032 33.12C101.614 33.7066 101.816 34.559 101.559 35.3438L97.3697 48.1002C97.3697 48.1002 97.3613 48.1297 97.3739 48.1593C97.3908 48.1888 97.4161 48.193 97.4203 48.1973L110.38 51.6532C111.177 51.8642 111.779 52.5014 111.952 53.3074C112.125 54.1176 111.834 54.9404 111.194 55.4637L100.779 63.9285C100.779 63.9285 100.754 63.9496 100.75 63.9834C100.746 64.0172 100.762 64.034 100.771 64.0425L109.811 73.9632C110.367 74.575 110.532 75.4359 110.241 76.2081C109.95 76.9803 109.259 77.5204 108.437 77.609L95.1065 79.0944C95.1065 79.0944 95.0728 79.0944 95.0517 79.1239C95.0306 79.1493 95.0348 79.1746 95.0391 79.183L97.2854 92.4204C97.4245 93.2348 97.0958 94.0493 96.4341 94.543C95.7724 95.0367 94.9 95.1126 94.1582 94.7455L82.1425 88.7788C82.1425 88.7788 82.113 88.7619 82.0835 88.7788C82.054 88.7914 82.0413 88.8125 82.0413 88.821L76.7815 101.176C76.457 101.936 75.7448 102.442 74.9187 102.501C74.8681 102.501 74.8175 102.506 74.767 102.506L74.7754 102.51ZM74.7122 100.362C74.7122 100.362 74.729 100.4 74.7838 100.4C74.8302 100.4 74.8428 100.37 74.8513 100.354L80.111 88.0023C80.3471 87.4495 80.8022 87.0149 81.3628 86.8081C81.9233 86.6014 82.5555 86.6351 83.0908 86.901L95.1065 92.8677C95.1065 92.8677 95.1486 92.8888 95.1866 92.8593C95.2245 92.8297 95.2203 92.8044 95.2161 92.7833L92.9697 79.5417C92.8686 78.9509 93.0203 78.3391 93.3785 77.858C93.7368 77.377 94.2847 77.0689 94.8831 77.0014L108.214 75.516C108.214 75.516 108.26 75.5118 108.277 75.4654C108.294 75.4232 108.277 75.4021 108.26 75.3852L99.2241 65.4645C98.8195 65.0215 98.613 64.4265 98.6594 63.8273C98.7057 63.2281 98.9965 62.6711 99.4601 62.2913L109.874 53.8264C109.874 53.8264 109.912 53.7969 109.9 53.7505C109.887 53.7041 109.862 53.6956 109.845 53.6914L96.885 50.2354C96.3076 50.0793 95.8103 49.6911 95.5279 49.1636C95.2414 48.6361 95.1866 48.0074 95.372 47.4377L99.5613 34.6813C99.5613 34.6813 99.5782 34.6349 99.5444 34.6012C99.5107 34.5674 99.4854 34.5758 99.4644 34.5801L86.6942 38.6901C86.1252 38.8758 85.4973 38.8125 84.9747 38.5255C84.4521 38.2386 84.0643 37.7365 83.9126 37.1583L80.5494 24.1572C80.5494 24.1572 80.5367 24.1108 80.4904 24.1024C80.444 24.0939 80.4271 24.115 80.4145 24.1277L71.8926 34.4957C71.5133 34.9598 70.9528 35.2468 70.3543 35.289C69.7516 35.3312 69.1616 35.1202 68.7233 34.7151L58.8738 25.6004C58.8738 25.6004 58.8401 25.5666 58.7937 25.5835C58.7516 25.6004 58.7474 25.6257 58.7432 25.6468L57.1711 38.9855C57.0995 39.5805 56.7834 40.1291 56.3071 40.4835C55.8309 40.838 55.2114 40.9857 54.6255 40.8802L41.4171 38.5424C41.4171 38.5424 41.3707 38.534 41.3412 38.572C41.3117 38.6099 41.3243 38.6353 41.3328 38.6521L47.2121 50.7207C47.4734 51.2608 47.5029 51.8896 47.2922 52.4508C47.0814 53.012 46.6431 53.4677 46.091 53.6956L33.717 58.8775C33.717 58.8775 33.6749 58.8944 33.6707 58.9408C33.6707 58.9872 33.6918 59.0041 33.7086 59.0125L45.1722 65.9836C45.6822 66.2958 46.0489 66.8107 46.1753 67.393C46.3018 67.9795 46.1753 68.5998 45.8381 69.0935L38.2266 80.1536C38.2266 80.1536 38.2013 80.1915 38.2224 80.2337C38.2435 80.2759 38.2688 80.2717 38.2941 80.2759L51.7006 79.9341C52.2949 79.9172 52.8849 80.1536 53.3064 80.5798C53.7278 81.006 53.9596 81.5925 53.9386 82.1917L53.5087 95.6148C53.5087 95.6148 53.5087 95.6612 53.5466 95.6865C53.5887 95.7118 53.6098 95.695 53.6267 95.6865L64.7236 88.1416C65.2168 87.804 65.8363 87.6858 66.4221 87.8167C67.0079 87.9475 67.5179 88.3146 67.8256 88.8294L74.7122 100.354V100.362Z" fill="black" fill-opacity="0.2"/>
<path d="M53.3217 47.2695H22.8629C21.8039 47.2695 20.9453 48.1291 20.9453 49.1895V94.1301C20.9453 95.1904 21.8039 96.05 22.8629 96.05H53.3217C54.3807 96.05 55.2393 95.1904 55.2393 94.1301V49.1895C55.2393 48.1291 54.3807 47.2695 53.3217 47.2695Z" fill="#F2F7FB"/>
<path d="M53.3212 97.1056H22.8541C21.2188 97.1056 19.8828 95.7721 19.8828 94.1306V49.1859C19.8828 47.5444 21.2146 46.2109 22.8541 46.2109H53.317C54.9523 46.2109 56.2883 47.5444 56.2883 49.1859V94.1306C56.2883 95.7721 54.9565 97.1056 53.317 97.1056H53.3212ZM22.8541 48.325C22.3778 48.325 21.9901 48.7133 21.9901 49.1901V94.1348C21.9901 94.6117 22.3778 94.9999 22.8541 94.9999H53.317C53.7933 94.9999 54.181 94.6117 54.181 94.1348V49.1901C54.181 48.7133 53.7933 48.325 53.317 48.325H22.8541Z" fill="#ACB3B9"/>
<path d="M53.3212 97.1056H22.8541C21.2188 97.1056 19.8828 95.7721 19.8828 94.1306V49.1859C19.8828 47.5444 21.2146 46.2109 22.8541 46.2109H53.317C54.9523 46.2109 56.2883 47.5444 56.2883 49.1859V94.1306C56.2883 95.7721 54.9565 97.1056 53.317 97.1056H53.3212ZM22.8541 48.325C22.3778 48.325 21.9901 48.7133 21.9901 49.1901V94.1348C21.9901 94.6117 22.3778 94.9999 22.8541 94.9999H53.317C53.7933 94.9999 54.181 94.6117 54.181 94.1348V49.1901C54.181 48.7133 53.7933 48.325 53.317 48.325H22.8541Z" fill="black" fill-opacity="0.2"/>
<path d="M53.3212 97.1056H22.8541C21.2188 97.1056 19.8828 95.7721 19.8828 94.1306V49.1859C19.8828 47.5444 21.2146 46.2109 22.8541 46.2109H53.317C54.9523 46.2109 56.2883 47.5444 56.2883 49.1859V94.1306C56.2883 95.7721 54.9565 97.1056 53.317 97.1056H53.3212ZM22.8541 48.325C22.3778 48.325 21.9901 48.7133 21.9901 49.1901V94.1348C21.9901 94.6117 22.3778 94.9999 22.8541 94.9999H53.317C53.7933 94.9999 54.181 94.6117 54.181 94.1348V49.1901C54.181 48.7133 53.7933 48.325 53.317 48.325H22.8541Z" fill="black" fill-opacity="0.2"/>
<path d="M53.3212 97.1056H22.8541C21.2188 97.1056 19.8828 95.7721 19.8828 94.1306V49.1859C19.8828 47.5444 21.2146 46.2109 22.8541 46.2109H53.317C54.9523 46.2109 56.2883 47.5444 56.2883 49.1859V94.1306C56.2883 95.7721 54.9565 97.1056 53.317 97.1056H53.3212ZM22.8541 48.325C22.3778 48.325 21.9901 48.7133 21.9901 49.1901V94.1348C21.9901 94.6117 22.3778 94.9999 22.8541 94.9999H53.317C53.7933 94.9999 54.181 94.6117 54.181 94.1348V49.1901C54.181 48.7133 53.7933 48.325 53.317 48.325H22.8541Z" fill="black" fill-opacity="0.2"/>
<path d="M53.3212 97.1056H22.8541C21.2188 97.1056 19.8828 95.7721 19.8828 94.1306V49.1859C19.8828 47.5444 21.2146 46.2109 22.8541 46.2109H53.317C54.9523 46.2109 56.2883 47.5444 56.2883 49.1859V94.1306C56.2883 95.7721 54.9565 97.1056 53.317 97.1056H53.3212ZM22.8541 48.325C22.3778 48.325 21.9901 48.7133 21.9901 49.1901V94.1348C21.9901 94.6117 22.3778 94.9999 22.8541 94.9999H53.317C53.7933 94.9999 54.181 94.6117 54.181 94.1348V49.1901C54.181 48.7133 53.7933 48.325 53.317 48.325H22.8541Z" fill="black" fill-opacity="0.2"/>
<path d="M53.3212 97.1056H22.8541C21.2188 97.1056 19.8828 95.7721 19.8828 94.1306V49.1859C19.8828 47.5444 21.2146 46.2109 22.8541 46.2109H53.317C54.9523 46.2109 56.2883 47.5444 56.2883 49.1859V94.1306C56.2883 95.7721 54.9565 97.1056 53.317 97.1056H53.3212ZM22.8541 48.325C22.3778 48.325 21.9901 48.7133 21.9901 49.1901V94.1348C21.9901 94.6117 22.3778 94.9999 22.8541 94.9999H53.317C53.7933 94.9999 54.181 94.6117 54.181 94.1348V49.1901C54.181 48.7133 53.7933 48.325 53.317 48.325H22.8541Z" fill="black" fill-opacity="0.2"/>
<path d="M53.3212 97.1056H22.8541C21.2188 97.1056 19.8828 95.7721 19.8828 94.1306V49.1859C19.8828 47.5444 21.2146 46.2109 22.8541 46.2109H53.317C54.9523 46.2109 56.2883 47.5444 56.2883 49.1859V94.1306C56.2883 95.7721 54.9565 97.1056 53.317 97.1056H53.3212ZM22.8541 48.325C22.3778 48.325 21.9901 48.7133 21.9901 49.1901V94.1348C21.9901 94.6117 22.3778 94.9999 22.8541 94.9999H53.317C53.7933 94.9999 54.181 94.6117 54.181 94.1348V49.1901C54.181 48.7133 53.7933 48.325 53.317 48.325H22.8541Z" fill="black" fill-opacity="0.2"/>
<path d="M53.3212 97.1056H22.8541C21.2188 97.1056 19.8828 95.7721 19.8828 94.1306V49.1859C19.8828 47.5444 21.2146 46.2109 22.8541 46.2109H53.317C54.9523 46.2109 56.2883 47.5444 56.2883 49.1859V94.1306C56.2883 95.7721 54.9565 97.1056 53.317 97.1056H53.3212ZM22.8541 48.325C22.3778 48.325 21.9901 48.7133 21.9901 49.1901V94.1348C21.9901 94.6117 22.3778 94.9999 22.8541 94.9999H53.317C53.7933 94.9999 54.181 94.6117 54.181 94.1348V49.1901C54.181 48.7133 53.7933 48.325 53.317 48.325H22.8541Z" fill="black" fill-opacity="0.2"/>
<path d="M47.2333 91.835C46.6517 91.835 46.1797 91.3624 46.1797 90.7801V53.8909C46.1797 53.3086 46.6517 52.8359 47.2333 52.8359C47.8149 52.8359 48.287 53.3086 48.287 53.8909V90.7801C48.287 91.3624 47.8149 91.835 47.2333 91.835Z" fill="#ACB3B9"/>
<path d="M47.2333 91.835C46.6517 91.835 46.1797 91.3624 46.1797 90.7801V53.8909C46.1797 53.3086 46.6517 52.8359 47.2333 52.8359C47.8149 52.8359 48.287 53.3086 48.287 53.8909V90.7801C48.287 91.3624 47.8149 91.835 47.2333 91.835Z" fill="black" fill-opacity="0.2"/>
<path d="M47.2333 91.835C46.6517 91.835 46.1797 91.3624 46.1797 90.7801V53.8909C46.1797 53.3086 46.6517 52.8359 47.2333 52.8359C47.8149 52.8359 48.287 53.3086 48.287 53.8909V90.7801C48.287 91.3624 47.8149 91.835 47.2333 91.835Z" fill="black" fill-opacity="0.2"/>
<path d="M47.2333 91.835C46.6517 91.835 46.1797 91.3624 46.1797 90.7801V53.8909C46.1797 53.3086 46.6517 52.8359 47.2333 52.8359C47.8149 52.8359 48.287 53.3086 48.287 53.8909V90.7801C48.287 91.3624 47.8149 91.835 47.2333 91.835Z" fill="black" fill-opacity="0.2"/>
<path d="M47.2333 91.835C46.6517 91.835 46.1797 91.3624 46.1797 90.7801V53.8909C46.1797 53.3086 46.6517 52.8359 47.2333 52.8359C47.8149 52.8359 48.287 53.3086 48.287 53.8909V90.7801C48.287 91.3624 47.8149 91.835 47.2333 91.835Z" fill="black" fill-opacity="0.2"/>
<path d="M47.2333 91.835C46.6517 91.835 46.1797 91.3624 46.1797 90.7801V53.8909C46.1797 53.3086 46.6517 52.8359 47.2333 52.8359C47.8149 52.8359 48.287 53.3086 48.287 53.8909V90.7801C48.287 91.3624 47.8149 91.835 47.2333 91.835Z" fill="black" fill-opacity="0.2"/>
<path d="M47.2333 91.835C46.6517 91.835 46.1797 91.3624 46.1797 90.7801V53.8909C46.1797 53.3086 46.6517 52.8359 47.2333 52.8359C47.8149 52.8359 48.287 53.3086 48.287 53.8909V90.7801C48.287 91.3624 47.8149 91.835 47.2333 91.835Z" fill="black" fill-opacity="0.2"/>
<path d="M47.2333 91.835C46.6517 91.835 46.1797 91.3624 46.1797 90.7801V53.8909C46.1797 53.3086 46.6517 52.8359 47.2333 52.8359C47.8149 52.8359 48.287 53.3086 48.287 53.8909V90.7801C48.287 91.3624 47.8149 91.835 47.2333 91.835Z" fill="black" fill-opacity="0.2"/>
<path d="M29.4913 83.3415L16.1016 84.2234V60.4492L28.9434 60.8628C29.2131 60.8712 29.466 60.9894 29.643 61.1919C35.2863 67.5173 35.2189 77.0962 29.487 83.3457L29.4913 83.3415Z" fill="#F2F7FB"/>
<path d="M16.1005 85.2796C15.835 85.2796 15.5779 85.1783 15.3798 84.9926C15.1691 84.7943 15.0469 84.5158 15.0469 84.2246V60.4505C15.0469 60.1635 15.1607 59.8892 15.3672 59.6909C15.5737 59.4926 15.8476 59.3829 16.1342 59.3955L28.976 59.8091C29.5281 59.8259 30.0592 60.0749 30.4301 60.4884C36.4611 67.2485 36.3895 77.3844 30.2657 84.0601C30.0803 84.2584 29.8274 84.3808 29.5576 84.3976L16.168 85.2796C16.1469 85.2796 16.1216 85.2796 16.1005 85.2796ZM17.1542 61.5392V83.098L28.9929 82.3215C34.0967 76.456 34.0715 67.7633 28.8791 61.9189L17.1542 61.5434V61.5392Z" fill="#ACB3B9"/>
<path d="M16.1005 85.2796C15.835 85.2796 15.5779 85.1783 15.3798 84.9926C15.1691 84.7943 15.0469 84.5158 15.0469 84.2246V60.4505C15.0469 60.1635 15.1607 59.8892 15.3672 59.6909C15.5737 59.4926 15.8476 59.3829 16.1342 59.3955L28.976 59.8091C29.5281 59.8259 30.0592 60.0749 30.4301 60.4884C36.4611 67.2485 36.3895 77.3844 30.2657 84.0601C30.0803 84.2584 29.8274 84.3808 29.5576 84.3976L16.168 85.2796C16.1469 85.2796 16.1216 85.2796 16.1005 85.2796ZM17.1542 61.5392V83.098L28.9929 82.3215C34.0967 76.456 34.0715 67.7633 28.8791 61.9189L17.1542 61.5434V61.5392Z" fill="black" fill-opacity="0.2"/>
<path d="M16.1005 85.2796C15.835 85.2796 15.5779 85.1783 15.3798 84.9926C15.1691 84.7943 15.0469 84.5158 15.0469 84.2246V60.4505C15.0469 60.1635 15.1607 59.8892 15.3672 59.6909C15.5737 59.4926 15.8476 59.3829 16.1342 59.3955L28.976 59.8091C29.5281 59.8259 30.0592 60.0749 30.4301 60.4884C36.4611 67.2485 36.3895 77.3844 30.2657 84.0601C30.0803 84.2584 29.8274 84.3808 29.5576 84.3976L16.168 85.2796C16.1469 85.2796 16.1216 85.2796 16.1005 85.2796ZM17.1542 61.5392V83.098L28.9929 82.3215C34.0967 76.456 34.0715 67.7633 28.8791 61.9189L17.1542 61.5434V61.5392Z" fill="black" fill-opacity="0.2"/>
<path d="M16.1005 85.2796C15.835 85.2796 15.5779 85.1783 15.3798 84.9926C15.1691 84.7943 15.0469 84.5158 15.0469 84.2246V60.4505C15.0469 60.1635 15.1607 59.8892 15.3672 59.6909C15.5737 59.4926 15.8476 59.3829 16.1342 59.3955L28.976 59.8091C29.5281 59.8259 30.0592 60.0749 30.4301 60.4884C36.4611 67.2485 36.3895 77.3844 30.2657 84.0601C30.0803 84.2584 29.8274 84.3808 29.5576 84.3976L16.168 85.2796C16.1469 85.2796 16.1216 85.2796 16.1005 85.2796ZM17.1542 61.5392V83.098L28.9929 82.3215C34.0967 76.456 34.0715 67.7633 28.8791 61.9189L17.1542 61.5434V61.5392Z" fill="black" fill-opacity="0.2"/>
<path d="M16.1005 85.2796C15.835 85.2796 15.5779 85.1783 15.3798 84.9926C15.1691 84.7943 15.0469 84.5158 15.0469 84.2246V60.4505C15.0469 60.1635 15.1607 59.8892 15.3672 59.6909C15.5737 59.4926 15.8476 59.3829 16.1342 59.3955L28.976 59.8091C29.5281 59.8259 30.0592 60.0749 30.4301 60.4884C36.4611 67.2485 36.3895 77.3844 30.2657 84.0601C30.0803 84.2584 29.8274 84.3808 29.5576 84.3976L16.168 85.2796C16.1469 85.2796 16.1216 85.2796 16.1005 85.2796ZM17.1542 61.5392V83.098L28.9929 82.3215C34.0967 76.456 34.0715 67.7633 28.8791 61.9189L17.1542 61.5434V61.5392Z" fill="black" fill-opacity="0.2"/>
<path d="M16.1005 85.2796C15.835 85.2796 15.5779 85.1783 15.3798 84.9926C15.1691 84.7943 15.0469 84.5158 15.0469 84.2246V60.4505C15.0469 60.1635 15.1607 59.8892 15.3672 59.6909C15.5737 59.4926 15.8476 59.3829 16.1342 59.3955L28.976 59.8091C29.5281 59.8259 30.0592 60.0749 30.4301 60.4884C36.4611 67.2485 36.3895 77.3844 30.2657 84.0601C30.0803 84.2584 29.8274 84.3808 29.5576 84.3976L16.168 85.2796C16.1469 85.2796 16.1216 85.2796 16.1005 85.2796ZM17.1542 61.5392V83.098L28.9929 82.3215C34.0967 76.456 34.0715 67.7633 28.8791 61.9189L17.1542 61.5434V61.5392Z" fill="black" fill-opacity="0.2"/>
<path d="M16.1005 85.2796C15.835 85.2796 15.5779 85.1783 15.3798 84.9926C15.1691 84.7943 15.0469 84.5158 15.0469 84.2246V60.4505C15.0469 60.1635 15.1607 59.8892 15.3672 59.6909C15.5737 59.4926 15.8476 59.3829 16.1342 59.3955L28.976 59.8091C29.5281 59.8259 30.0592 60.0749 30.4301 60.4884C36.4611 67.2485 36.3895 77.3844 30.2657 84.0601C30.0803 84.2584 29.8274 84.3808 29.5576 84.3976L16.168 85.2796C16.1469 85.2796 16.1216 85.2796 16.1005 85.2796ZM17.1542 61.5392V83.098L28.9929 82.3215C34.0967 76.456 34.0715 67.7633 28.8791 61.9189L17.1542 61.5434V61.5392Z" fill="black" fill-opacity="0.2"/>
<path d="M16.1005 85.2796C15.835 85.2796 15.5779 85.1783 15.3798 84.9926C15.1691 84.7943 15.0469 84.5158 15.0469 84.2246V60.4505C15.0469 60.1635 15.1607 59.8892 15.3672 59.6909C15.5737 59.4926 15.8476 59.3829 16.1342 59.3955L28.976 59.8091C29.5281 59.8259 30.0592 60.0749 30.4301 60.4884C36.4611 67.2485 36.3895 77.3844 30.2657 84.0601C30.0803 84.2584 29.8274 84.3808 29.5576 84.3976L16.168 85.2796C16.1469 85.2796 16.1216 85.2796 16.1005 85.2796ZM17.1542 61.5392V83.098L28.9929 82.3215C34.0967 76.456 34.0715 67.7633 28.8791 61.9189L17.1542 61.5434V61.5392Z" fill="black" fill-opacity="0.2"/>
<path d="M16.0961 84.2234C20.5372 84.2234 24.1375 78.9014 24.1375 72.3363C24.1375 65.7712 20.5372 60.4492 16.0961 60.4492C11.6549 60.4492 8.05469 65.7712 8.05469 72.3363C8.05469 78.9014 11.6549 84.2234 16.0961 84.2234Z" fill="#F2F7FB"/>
<path d="M16.095 85.2786C11.0797 85.2786 7 79.4722 7 72.3366C7 65.2009 11.0797 59.3945 16.095 59.3945C21.1104 59.3945 25.1901 65.2009 25.1901 72.3366C25.1901 79.4722 21.1104 85.2786 16.095 85.2786ZM16.095 61.5044C12.2429 61.5044 9.10729 66.3656 9.10729 72.3366C9.10729 78.3075 12.2429 83.1687 16.095 83.1687C19.9472 83.1687 23.0828 78.3075 23.0828 72.3366C23.0828 66.3656 19.9472 61.5044 16.095 61.5044Z" fill="#ACB3B9"/>
<path d="M16.095 85.2786C11.0797 85.2786 7 79.4722 7 72.3366C7 65.2009 11.0797 59.3945 16.095 59.3945C21.1104 59.3945 25.1901 65.2009 25.1901 72.3366C25.1901 79.4722 21.1104 85.2786 16.095 85.2786ZM16.095 61.5044C12.2429 61.5044 9.10729 66.3656 9.10729 72.3366C9.10729 78.3075 12.2429 83.1687 16.095 83.1687C19.9472 83.1687 23.0828 78.3075 23.0828 72.3366C23.0828 66.3656 19.9472 61.5044 16.095 61.5044Z" fill="black" fill-opacity="0.2"/>
<path d="M16.095 85.2786C11.0797 85.2786 7 79.4722 7 72.3366C7 65.2009 11.0797 59.3945 16.095 59.3945C21.1104 59.3945 25.1901 65.2009 25.1901 72.3366C25.1901 79.4722 21.1104 85.2786 16.095 85.2786ZM16.095 61.5044C12.2429 61.5044 9.10729 66.3656 9.10729 72.3366C9.10729 78.3075 12.2429 83.1687 16.095 83.1687C19.9472 83.1687 23.0828 78.3075 23.0828 72.3366C23.0828 66.3656 19.9472 61.5044 16.095 61.5044Z" fill="black" fill-opacity="0.2"/>
<path d="M16.095 85.2786C11.0797 85.2786 7 79.4722 7 72.3366C7 65.2009 11.0797 59.3945 16.095 59.3945C21.1104 59.3945 25.1901 65.2009 25.1901 72.3366C25.1901 79.4722 21.1104 85.2786 16.095 85.2786ZM16.095 61.5044C12.2429 61.5044 9.10729 66.3656 9.10729 72.3366C9.10729 78.3075 12.2429 83.1687 16.095 83.1687C19.9472 83.1687 23.0828 78.3075 23.0828 72.3366C23.0828 66.3656 19.9472 61.5044 16.095 61.5044Z" fill="black" fill-opacity="0.2"/>
<path d="M16.095 85.2786C11.0797 85.2786 7 79.4722 7 72.3366C7 65.2009 11.0797 59.3945 16.095 59.3945C21.1104 59.3945 25.1901 65.2009 25.1901 72.3366C25.1901 79.4722 21.1104 85.2786 16.095 85.2786ZM16.095 61.5044C12.2429 61.5044 9.10729 66.3656 9.10729 72.3366C9.10729 78.3075 12.2429 83.1687 16.095 83.1687C19.9472 83.1687 23.0828 78.3075 23.0828 72.3366C23.0828 66.3656 19.9472 61.5044 16.095 61.5044Z" fill="black" fill-opacity="0.2"/>
<path d="M16.095 85.2786C11.0797 85.2786 7 79.4722 7 72.3366C7 65.2009 11.0797 59.3945 16.095 59.3945C21.1104 59.3945 25.1901 65.2009 25.1901 72.3366C25.1901 79.4722 21.1104 85.2786 16.095 85.2786ZM16.095 61.5044C12.2429 61.5044 9.10729 66.3656 9.10729 72.3366C9.10729 78.3075 12.2429 83.1687 16.095 83.1687C19.9472 83.1687 23.0828 78.3075 23.0828 72.3366C23.0828 66.3656 19.9472 61.5044 16.095 61.5044Z" fill="black" fill-opacity="0.2"/>
<path d="M16.095 85.2786C11.0797 85.2786 7 79.4722 7 72.3366C7 65.2009 11.0797 59.3945 16.095 59.3945C21.1104 59.3945 25.1901 65.2009 25.1901 72.3366C25.1901 79.4722 21.1104 85.2786 16.095 85.2786ZM16.095 61.5044C12.2429 61.5044 9.10729 66.3656 9.10729 72.3366C9.10729 78.3075 12.2429 83.1687 16.095 83.1687C19.9472 83.1687 23.0828 78.3075 23.0828 72.3366C23.0828 66.3656 19.9472 61.5044 16.095 61.5044Z" fill="black" fill-opacity="0.2"/>
<path d="M16.095 85.2786C11.0797 85.2786 7 79.4722 7 72.3366C7 65.2009 11.0797 59.3945 16.095 59.3945C21.1104 59.3945 25.1901 65.2009 25.1901 72.3366C25.1901 79.4722 21.1104 85.2786 16.095 85.2786ZM16.095 61.5044C12.2429 61.5044 9.10729 66.3656 9.10729 72.3366C9.10729 78.3075 12.2429 83.1687 16.095 83.1687C19.9472 83.1687 23.0828 78.3075 23.0828 72.3366C23.0828 66.3656 19.9472 61.5044 16.095 61.5044Z" fill="black" fill-opacity="0.2"/>
<path d="M15.9484 80.525C18.4786 80.525 20.5297 76.8599 20.5297 72.3387C20.5297 67.8175 18.4786 64.1523 15.9484 64.1523C13.4183 64.1523 11.3672 67.8175 11.3672 72.3387C11.3672 76.8599 13.4183 80.525 15.9484 80.525Z" fill="#ACB3B9"/>
<path d="M15.9484 80.525C18.4786 80.525 20.5297 76.8599 20.5297 72.3387C20.5297 67.8175 18.4786 64.1523 15.9484 64.1523C13.4183 64.1523 11.3672 67.8175 11.3672 72.3387C11.3672 76.8599 13.4183 80.525 15.9484 80.525Z" fill="black" fill-opacity="0.2"/>
<path d="M15.9484 80.525C18.4786 80.525 20.5297 76.8599 20.5297 72.3387C20.5297 67.8175 18.4786 64.1523 15.9484 64.1523C13.4183 64.1523 11.3672 67.8175 11.3672 72.3387C11.3672 76.8599 13.4183 80.525 15.9484 80.525Z" fill="black" fill-opacity="0.2"/>
<path d="M15.9484 80.525C18.4786 80.525 20.5297 76.8599 20.5297 72.3387C20.5297 67.8175 18.4786 64.1523 15.9484 64.1523C13.4183 64.1523 11.3672 67.8175 11.3672 72.3387C11.3672 76.8599 13.4183 80.525 15.9484 80.525Z" fill="black" fill-opacity="0.2"/>
<path d="M15.9484 80.525C18.4786 80.525 20.5297 76.8599 20.5297 72.3387C20.5297 67.8175 18.4786 64.1523 15.9484 64.1523C13.4183 64.1523 11.3672 67.8175 11.3672 72.3387C11.3672 76.8599 13.4183 80.525 15.9484 80.525Z" fill="black" fill-opacity="0.2"/>
<path d="M15.9484 80.525C18.4786 80.525 20.5297 76.8599 20.5297 72.3387C20.5297 67.8175 18.4786 64.1523 15.9484 64.1523C13.4183 64.1523 11.3672 67.8175 11.3672 72.3387C11.3672 76.8599 13.4183 80.525 15.9484 80.525Z" fill="black" fill-opacity="0.2"/>
<path d="M15.9484 80.525C18.4786 80.525 20.5297 76.8599 20.5297 72.3387C20.5297 67.8175 18.4786 64.1523 15.9484 64.1523C13.4183 64.1523 11.3672 67.8175 11.3672 72.3387C11.3672 76.8599 13.4183 80.525 15.9484 80.525Z" fill="black" fill-opacity="0.2"/>
<path d="M15.9484 80.525C18.4786 80.525 20.5297 76.8599 20.5297 72.3387C20.5297 67.8175 18.4786 64.1523 15.9484 64.1523C13.4183 64.1523 11.3672 67.8175 11.3672 72.3387C11.3672 76.8599 13.4183 80.525 15.9484 80.525Z" fill="black" fill-opacity="0.2"/>
<path d="M15.9474 81.5802C12.7865 81.5802 10.3125 77.5208 10.3125 72.3389C10.3125 67.1571 12.7865 63.0977 15.9474 63.0977C19.1083 63.0977 21.5823 67.1571 21.5823 72.3389C21.5823 77.5208 19.1083 81.5802 15.9474 81.5802ZM15.9474 65.2118C14.2784 65.2118 12.4198 68.1403 12.4198 72.3432C12.4198 76.5461 14.2784 79.4746 15.9474 79.4746C17.6164 79.4746 19.475 76.5461 19.475 72.3432C19.475 68.1403 17.6164 65.2118 15.9474 65.2118Z" fill="#ACB3B9"/>
<path d="M15.9474 81.5802C12.7865 81.5802 10.3125 77.5208 10.3125 72.3389C10.3125 67.1571 12.7865 63.0977 15.9474 63.0977C19.1083 63.0977 21.5823 67.1571 21.5823 72.3389C21.5823 77.5208 19.1083 81.5802 15.9474 81.5802ZM15.9474 65.2118C14.2784 65.2118 12.4198 68.1403 12.4198 72.3432C12.4198 76.5461 14.2784 79.4746 15.9474 79.4746C17.6164 79.4746 19.475 76.5461 19.475 72.3432C19.475 68.1403 17.6164 65.2118 15.9474 65.2118Z" fill="black" fill-opacity="0.2"/>
<path d="M15.9474 81.5802C12.7865 81.5802 10.3125 77.5208 10.3125 72.3389C10.3125 67.1571 12.7865 63.0977 15.9474 63.0977C19.1083 63.0977 21.5823 67.1571 21.5823 72.3389C21.5823 77.5208 19.1083 81.5802 15.9474 81.5802ZM15.9474 65.2118C14.2784 65.2118 12.4198 68.1403 12.4198 72.3432C12.4198 76.5461 14.2784 79.4746 15.9474 79.4746C17.6164 79.4746 19.475 76.5461 19.475 72.3432C19.475 68.1403 17.6164 65.2118 15.9474 65.2118Z" fill="black" fill-opacity="0.2"/>
<path d="M15.9474 81.5802C12.7865 81.5802 10.3125 77.5208 10.3125 72.3389C10.3125 67.1571 12.7865 63.0977 15.9474 63.0977C19.1083 63.0977 21.5823 67.1571 21.5823 72.3389C21.5823 77.5208 19.1083 81.5802 15.9474 81.5802ZM15.9474 65.2118C14.2784 65.2118 12.4198 68.1403 12.4198 72.3432C12.4198 76.5461 14.2784 79.4746 15.9474 79.4746C17.6164 79.4746 19.475 76.5461 19.475 72.3432C19.475 68.1403 17.6164 65.2118 15.9474 65.2118Z" fill="black" fill-opacity="0.2"/>
<path d="M15.9474 81.5802C12.7865 81.5802 10.3125 77.5208 10.3125 72.3389C10.3125 67.1571 12.7865 63.0977 15.9474 63.0977C19.1083 63.0977 21.5823 67.1571 21.5823 72.3389C21.5823 77.5208 19.1083 81.5802 15.9474 81.5802ZM15.9474 65.2118C14.2784 65.2118 12.4198 68.1403 12.4198 72.3432C12.4198 76.5461 14.2784 79.4746 15.9474 79.4746C17.6164 79.4746 19.475 76.5461 19.475 72.3432C19.475 68.1403 17.6164 65.2118 15.9474 65.2118Z" fill="black" fill-opacity="0.2"/>
<path d="M15.9474 81.5802C12.7865 81.5802 10.3125 77.5208 10.3125 72.3389C10.3125 67.1571 12.7865 63.0977 15.9474 63.0977C19.1083 63.0977 21.5823 67.1571 21.5823 72.3389C21.5823 77.5208 19.1083 81.5802 15.9474 81.5802ZM15.9474 65.2118C14.2784 65.2118 12.4198 68.1403 12.4198 72.3432C12.4198 76.5461 14.2784 79.4746 15.9474 79.4746C17.6164 79.4746 19.475 76.5461 19.475 72.3432C19.475 68.1403 17.6164 65.2118 15.9474 65.2118Z" fill="black" fill-opacity="0.2"/>
<path d="M15.9474 81.5802C12.7865 81.5802 10.3125 77.5208 10.3125 72.3389C10.3125 67.1571 12.7865 63.0977 15.9474 63.0977C19.1083 63.0977 21.5823 67.1571 21.5823 72.3389C21.5823 77.5208 19.1083 81.5802 15.9474 81.5802ZM15.9474 65.2118C14.2784 65.2118 12.4198 68.1403 12.4198 72.3432C12.4198 76.5461 14.2784 79.4746 15.9474 79.4746C17.6164 79.4746 19.475 76.5461 19.475 72.3432C19.475 68.1403 17.6164 65.2118 15.9474 65.2118Z" fill="black" fill-opacity="0.2"/>
<path d="M15.9474 81.5802C12.7865 81.5802 10.3125 77.5208 10.3125 72.3389C10.3125 67.1571 12.7865 63.0977 15.9474 63.0977C19.1083 63.0977 21.5823 67.1571 21.5823 72.3389C21.5823 77.5208 19.1083 81.5802 15.9474 81.5802ZM15.9474 65.2118C14.2784 65.2118 12.4198 68.1403 12.4198 72.3432C12.4198 76.5461 14.2784 79.4746 15.9474 79.4746C17.6164 79.4746 19.475 76.5461 19.475 72.3432C19.475 68.1403 17.6164 65.2118 15.9474 65.2118Z" fill="black" fill-opacity="0.2"/>
<path d="M65.0699 84.5153C54.3481 84.5153 50.8668 80.1268 48.9197 77.6709C48.7722 77.481 48.6289 77.3037 48.494 77.1392C48.4266 77.0548 48.3381 77.0379 48.2791 77.0337C48.2285 77.0337 48.1316 77.0421 48.0515 77.1265L45.0128 80.3546C44.6124 80.7766 43.9465 80.7977 43.525 80.3968C43.1036 79.996 43.0825 79.3292 43.4829 78.9073L46.5216 75.6791C46.9936 75.177 47.6595 74.8985 48.3507 74.9238C49.0377 74.9449 49.6825 75.2614 50.1208 75.7931C50.2641 75.9661 50.4159 76.156 50.5718 76.3543C52.5948 78.903 55.9749 83.1692 68.1423 82.2831C82.0547 81.2745 82.5435 71.5016 82.5604 71.0838C82.5815 70.5015 83.0662 70.0542 83.6435 70.0626C84.2252 70.0795 84.6803 70.5605 84.6635 71.1429C84.6635 71.2653 84.1619 83.2325 68.2941 84.3845C67.1519 84.4689 66.0814 84.5069 65.0699 84.5069V84.5153Z" fill="#ACB3B9"/>
<path d="M65.0699 84.5153C54.3481 84.5153 50.8668 80.1268 48.9197 77.6709C48.7722 77.481 48.6289 77.3037 48.494 77.1392C48.4266 77.0548 48.3381 77.0379 48.2791 77.0337C48.2285 77.0337 48.1316 77.0421 48.0515 77.1265L45.0128 80.3546C44.6124 80.7766 43.9465 80.7977 43.525 80.3968C43.1036 79.996 43.0825 79.3292 43.4829 78.9073L46.5216 75.6791C46.9936 75.177 47.6595 74.8985 48.3507 74.9238C49.0377 74.9449 49.6825 75.2614 50.1208 75.7931C50.2641 75.9661 50.4159 76.156 50.5718 76.3543C52.5948 78.903 55.9749 83.1692 68.1423 82.2831C82.0547 81.2745 82.5435 71.5016 82.5604 71.0838C82.5815 70.5015 83.0662 70.0542 83.6435 70.0626C84.2252 70.0795 84.6803 70.5605 84.6635 71.1429C84.6635 71.2653 84.1619 83.2325 68.2941 84.3845C67.1519 84.4689 66.0814 84.5069 65.0699 84.5069V84.5153Z" fill="black" fill-opacity="0.2"/>
<path d="M65.0699 84.5153C54.3481 84.5153 50.8668 80.1268 48.9197 77.6709C48.7722 77.481 48.6289 77.3037 48.494 77.1392C48.4266 77.0548 48.3381 77.0379 48.2791 77.0337C48.2285 77.0337 48.1316 77.0421 48.0515 77.1265L45.0128 80.3546C44.6124 80.7766 43.9465 80.7977 43.525 80.3968C43.1036 79.996 43.0825 79.3292 43.4829 78.9073L46.5216 75.6791C46.9936 75.177 47.6595 74.8985 48.3507 74.9238C49.0377 74.9449 49.6825 75.2614 50.1208 75.7931C50.2641 75.9661 50.4159 76.156 50.5718 76.3543C52.5948 78.903 55.9749 83.1692 68.1423 82.2831C82.0547 81.2745 82.5435 71.5016 82.5604 71.0838C82.5815 70.5015 83.0662 70.0542 83.6435 70.0626C84.2252 70.0795 84.6803 70.5605 84.6635 71.1429C84.6635 71.2653 84.1619 83.2325 68.2941 84.3845C67.1519 84.4689 66.0814 84.5069 65.0699 84.5069V84.5153Z" fill="black" fill-opacity="0.2"/>
<path d="M65.0699 84.5153C54.3481 84.5153 50.8668 80.1268 48.9197 77.6709C48.7722 77.481 48.6289 77.3037 48.494 77.1392C48.4266 77.0548 48.3381 77.0379 48.2791 77.0337C48.2285 77.0337 48.1316 77.0421 48.0515 77.1265L45.0128 80.3546C44.6124 80.7766 43.9465 80.7977 43.525 80.3968C43.1036 79.996 43.0825 79.3292 43.4829 78.9073L46.5216 75.6791C46.9936 75.177 47.6595 74.8985 48.3507 74.9238C49.0377 74.9449 49.6825 75.2614 50.1208 75.7931C50.2641 75.9661 50.4159 76.156 50.5718 76.3543C52.5948 78.903 55.9749 83.1692 68.1423 82.2831C82.0547 81.2745 82.5435 71.5016 82.5604 71.0838C82.5815 70.5015 83.0662 70.0542 83.6435 70.0626C84.2252 70.0795 84.6803 70.5605 84.6635 71.1429C84.6635 71.2653 84.1619 83.2325 68.2941 84.3845C67.1519 84.4689 66.0814 84.5069 65.0699 84.5069V84.5153Z" fill="black" fill-opacity="0.2"/>
<path d="M65.0699 84.5153C54.3481 84.5153 50.8668 80.1268 48.9197 77.6709C48.7722 77.481 48.6289 77.3037 48.494 77.1392C48.4266 77.0548 48.3381 77.0379 48.2791 77.0337C48.2285 77.0337 48.1316 77.0421 48.0515 77.1265L45.0128 80.3546C44.6124 80.7766 43.9465 80.7977 43.525 80.3968C43.1036 79.996 43.0825 79.3292 43.4829 78.9073L46.5216 75.6791C46.9936 75.177 47.6595 74.8985 48.3507 74.9238C49.0377 74.9449 49.6825 75.2614 50.1208 75.7931C50.2641 75.9661 50.4159 76.156 50.5718 76.3543C52.5948 78.903 55.9749 83.1692 68.1423 82.2831C82.0547 81.2745 82.5435 71.5016 82.5604 71.0838C82.5815 70.5015 83.0662 70.0542 83.6435 70.0626C84.2252 70.0795 84.6803 70.5605 84.6635 71.1429C84.6635 71.2653 84.1619 83.2325 68.2941 84.3845C67.1519 84.4689 66.0814 84.5069 65.0699 84.5069V84.5153Z" fill="black" fill-opacity="0.2"/>
<path d="M65.0699 84.5153C54.3481 84.5153 50.8668 80.1268 48.9197 77.6709C48.7722 77.481 48.6289 77.3037 48.494 77.1392C48.4266 77.0548 48.3381 77.0379 48.2791 77.0337C48.2285 77.0337 48.1316 77.0421 48.0515 77.1265L45.0128 80.3546C44.6124 80.7766 43.9465 80.7977 43.525 80.3968C43.1036 79.996 43.0825 79.3292 43.4829 78.9073L46.5216 75.6791C46.9936 75.177 47.6595 74.8985 48.3507 74.9238C49.0377 74.9449 49.6825 75.2614 50.1208 75.7931C50.2641 75.9661 50.4159 76.156 50.5718 76.3543C52.5948 78.903 55.9749 83.1692 68.1423 82.2831C82.0547 81.2745 82.5435 71.5016 82.5604 71.0838C82.5815 70.5015 83.0662 70.0542 83.6435 70.0626C84.2252 70.0795 84.6803 70.5605 84.6635 71.1429C84.6635 71.2653 84.1619 83.2325 68.2941 84.3845C67.1519 84.4689 66.0814 84.5069 65.0699 84.5069V84.5153Z" fill="black" fill-opacity="0.2"/>
<path d="M65.0699 84.5153C54.3481 84.5153 50.8668 80.1268 48.9197 77.6709C48.7722 77.481 48.6289 77.3037 48.494 77.1392C48.4266 77.0548 48.3381 77.0379 48.2791 77.0337C48.2285 77.0337 48.1316 77.0421 48.0515 77.1265L45.0128 80.3546C44.6124 80.7766 43.9465 80.7977 43.525 80.3968C43.1036 79.996 43.0825 79.3292 43.4829 78.9073L46.5216 75.6791C46.9936 75.177 47.6595 74.8985 48.3507 74.9238C49.0377 74.9449 49.6825 75.2614 50.1208 75.7931C50.2641 75.9661 50.4159 76.156 50.5718 76.3543C52.5948 78.903 55.9749 83.1692 68.1423 82.2831C82.0547 81.2745 82.5435 71.5016 82.5604 71.0838C82.5815 70.5015 83.0662 70.0542 83.6435 70.0626C84.2252 70.0795 84.6803 70.5605 84.6635 71.1429C84.6635 71.2653 84.1619 83.2325 68.2941 84.3845C67.1519 84.4689 66.0814 84.5069 65.0699 84.5069V84.5153Z" fill="black" fill-opacity="0.2"/>
<path d="M65.0699 84.5153C54.3481 84.5153 50.8668 80.1268 48.9197 77.6709C48.7722 77.481 48.6289 77.3037 48.494 77.1392C48.4266 77.0548 48.3381 77.0379 48.2791 77.0337C48.2285 77.0337 48.1316 77.0421 48.0515 77.1265L45.0128 80.3546C44.6124 80.7766 43.9465 80.7977 43.525 80.3968C43.1036 79.996 43.0825 79.3292 43.4829 78.9073L46.5216 75.6791C46.9936 75.177 47.6595 74.8985 48.3507 74.9238C49.0377 74.9449 49.6825 75.2614 50.1208 75.7931C50.2641 75.9661 50.4159 76.156 50.5718 76.3543C52.5948 78.903 55.9749 83.1692 68.1423 82.2831C82.0547 81.2745 82.5435 71.5016 82.5604 71.0838C82.5815 70.5015 83.0662 70.0542 83.6435 70.0626C84.2252 70.0795 84.6803 70.5605 84.6635 71.1429C84.6635 71.2653 84.1619 83.2325 68.2941 84.3845C67.1519 84.4689 66.0814 84.5069 65.0699 84.5069V84.5153Z" fill="black" fill-opacity="0.2"/>
<path d="M68.1406 61.115C65.6666 61.115 63.6562 59.2414 63.6562 56.9417C63.6562 56.3593 64.1283 55.8867 64.7099 55.8867C65.2915 55.8867 65.7635 56.3593 65.7635 56.9417C65.7635 58.0768 66.8298 59.0051 68.1406 59.0051C69.4513 59.0051 70.5176 58.081 70.5176 56.9417C70.5176 56.3593 70.9896 55.8867 71.5712 55.8867C72.1528 55.8867 72.6249 56.3593 72.6249 56.9417C72.6249 59.2414 70.6145 61.115 68.1406 61.115Z" fill="#ACB3B9"/>
<path d="M68.1406 61.115C65.6666 61.115 63.6562 59.2414 63.6562 56.9417C63.6562 56.3593 64.1283 55.8867 64.7099 55.8867C65.2915 55.8867 65.7635 56.3593 65.7635 56.9417C65.7635 58.0768 66.8298 59.0051 68.1406 59.0051C69.4513 59.0051 70.5176 58.081 70.5176 56.9417C70.5176 56.3593 70.9896 55.8867 71.5712 55.8867C72.1528 55.8867 72.6249 56.3593 72.6249 56.9417C72.6249 59.2414 70.6145 61.115 68.1406 61.115Z" fill="black" fill-opacity="0.2"/>
<path d="M68.1406 61.115C65.6666 61.115 63.6562 59.2414 63.6562 56.9417C63.6562 56.3593 64.1283 55.8867 64.7099 55.8867C65.2915 55.8867 65.7635 56.3593 65.7635 56.9417C65.7635 58.0768 66.8298 59.0051 68.1406 59.0051C69.4513 59.0051 70.5176 58.081 70.5176 56.9417C70.5176 56.3593 70.9896 55.8867 71.5712 55.8867C72.1528 55.8867 72.6249 56.3593 72.6249 56.9417C72.6249 59.2414 70.6145 61.115 68.1406 61.115Z" fill="black" fill-opacity="0.2"/>
<path d="M68.1406 61.115C65.6666 61.115 63.6562 59.2414 63.6562 56.9417C63.6562 56.3593 64.1283 55.8867 64.7099 55.8867C65.2915 55.8867 65.7635 56.3593 65.7635 56.9417C65.7635 58.0768 66.8298 59.0051 68.1406 59.0051C69.4513 59.0051 70.5176 58.081 70.5176 56.9417C70.5176 56.3593 70.9896 55.8867 71.5712 55.8867C72.1528 55.8867 72.6249 56.3593 72.6249 56.9417C72.6249 59.2414 70.6145 61.115 68.1406 61.115Z" fill="black" fill-opacity="0.2"/>
<path d="M68.1406 61.115C65.6666 61.115 63.6562 59.2414 63.6562 56.9417C63.6562 56.3593 64.1283 55.8867 64.7099 55.8867C65.2915 55.8867 65.7635 56.3593 65.7635 56.9417C65.7635 58.0768 66.8298 59.0051 68.1406 59.0051C69.4513 59.0051 70.5176 58.081 70.5176 56.9417C70.5176 56.3593 70.9896 55.8867 71.5712 55.8867C72.1528 55.8867 72.6249 56.3593 72.6249 56.9417C72.6249 59.2414 70.6145 61.115 68.1406 61.115Z" fill="black" fill-opacity="0.2"/>
<path d="M68.1406 61.115C65.6666 61.115 63.6562 59.2414 63.6562 56.9417C63.6562 56.3593 64.1283 55.8867 64.7099 55.8867C65.2915 55.8867 65.7635 56.3593 65.7635 56.9417C65.7635 58.0768 66.8298 59.0051 68.1406 59.0051C69.4513 59.0051 70.5176 58.081 70.5176 56.9417C70.5176 56.3593 70.9896 55.8867 71.5712 55.8867C72.1528 55.8867 72.6249 56.3593 72.6249 56.9417C72.6249 59.2414 70.6145 61.115 68.1406 61.115Z" fill="black" fill-opacity="0.2"/>
<path d="M68.1406 61.115C65.6666 61.115 63.6562 59.2414 63.6562 56.9417C63.6562 56.3593 64.1283 55.8867 64.7099 55.8867C65.2915 55.8867 65.7635 56.3593 65.7635 56.9417C65.7635 58.0768 66.8298 59.0051 68.1406 59.0051C69.4513 59.0051 70.5176 58.081 70.5176 56.9417C70.5176 56.3593 70.9896 55.8867 71.5712 55.8867C72.1528 55.8867 72.6249 56.3593 72.6249 56.9417C72.6249 59.2414 70.6145 61.115 68.1406 61.115Z" fill="black" fill-opacity="0.2"/>
<path d="M68.1406 61.115C65.6666 61.115 63.6562 59.2414 63.6562 56.9417C63.6562 56.3593 64.1283 55.8867 64.7099 55.8867C65.2915 55.8867 65.7635 56.3593 65.7635 56.9417C65.7635 58.0768 66.8298 59.0051 68.1406 59.0051C69.4513 59.0051 70.5176 58.081 70.5176 56.9417C70.5176 56.3593 70.9896 55.8867 71.5712 55.8867C72.1528 55.8867 72.6249 56.3593 72.6249 56.9417C72.6249 59.2414 70.6145 61.115 68.1406 61.115Z" fill="black" fill-opacity="0.2"/>
<path d="M80.6484 61.115C78.1744 61.115 76.1641 59.2414 76.1641 56.9417C76.1641 56.3593 76.6361 55.8867 77.2177 55.8867C77.7993 55.8867 78.2713 56.3593 78.2713 56.9417C78.2713 58.0768 79.3376 59.0051 80.6484 59.0051C81.9591 59.0051 83.0254 58.081 83.0254 56.9417C83.0254 56.3593 83.4974 55.8867 84.079 55.8867C84.6606 55.8867 85.1327 56.3593 85.1327 56.9417C85.1327 59.2414 83.1223 61.115 80.6484 61.115Z" fill="#ACB3B9"/>
<path d="M80.6484 61.115C78.1744 61.115 76.1641 59.2414 76.1641 56.9417C76.1641 56.3593 76.6361 55.8867 77.2177 55.8867C77.7993 55.8867 78.2713 56.3593 78.2713 56.9417C78.2713 58.0768 79.3376 59.0051 80.6484 59.0051C81.9591 59.0051 83.0254 58.081 83.0254 56.9417C83.0254 56.3593 83.4974 55.8867 84.079 55.8867C84.6606 55.8867 85.1327 56.3593 85.1327 56.9417C85.1327 59.2414 83.1223 61.115 80.6484 61.115Z" fill="black" fill-opacity="0.2"/>
<path d="M80.6484 61.115C78.1744 61.115 76.1641 59.2414 76.1641 56.9417C76.1641 56.3593 76.6361 55.8867 77.2177 55.8867C77.7993 55.8867 78.2713 56.3593 78.2713 56.9417C78.2713 58.0768 79.3376 59.0051 80.6484 59.0051C81.9591 59.0051 83.0254 58.081 83.0254 56.9417C83.0254 56.3593 83.4974 55.8867 84.079 55.8867C84.6606 55.8867 85.1327 56.3593 85.1327 56.9417C85.1327 59.2414 83.1223 61.115 80.6484 61.115Z" fill="black" fill-opacity="0.2"/>
<path d="M80.6484 61.115C78.1744 61.115 76.1641 59.2414 76.1641 56.9417C76.1641 56.3593 76.6361 55.8867 77.2177 55.8867C77.7993 55.8867 78.2713 56.3593 78.2713 56.9417C78.2713 58.0768 79.3376 59.0051 80.6484 59.0051C81.9591 59.0051 83.0254 58.081 83.0254 56.9417C83.0254 56.3593 83.4974 55.8867 84.079 55.8867C84.6606 55.8867 85.1327 56.3593 85.1327 56.9417C85.1327 59.2414 83.1223 61.115 80.6484 61.115Z" fill="black" fill-opacity="0.2"/>
<path d="M80.6484 61.115C78.1744 61.115 76.1641 59.2414 76.1641 56.9417C76.1641 56.3593 76.6361 55.8867 77.2177 55.8867C77.7993 55.8867 78.2713 56.3593 78.2713 56.9417C78.2713 58.0768 79.3376 59.0051 80.6484 59.0051C81.9591 59.0051 83.0254 58.081 83.0254 56.9417C83.0254 56.3593 83.4974 55.8867 84.079 55.8867C84.6606 55.8867 85.1327 56.3593 85.1327 56.9417C85.1327 59.2414 83.1223 61.115 80.6484 61.115Z" fill="black" fill-opacity="0.2"/>
<path d="M80.6484 61.115C78.1744 61.115 76.1641 59.2414 76.1641 56.9417C76.1641 56.3593 76.6361 55.8867 77.2177 55.8867C77.7993 55.8867 78.2713 56.3593 78.2713 56.9417C78.2713 58.0768 79.3376 59.0051 80.6484 59.0051C81.9591 59.0051 83.0254 58.081 83.0254 56.9417C83.0254 56.3593 83.4974 55.8867 84.079 55.8867C84.6606 55.8867 85.1327 56.3593 85.1327 56.9417C85.1327 59.2414 83.1223 61.115 80.6484 61.115Z" fill="black" fill-opacity="0.2"/>
<path d="M80.6484 61.115C78.1744 61.115 76.1641 59.2414 76.1641 56.9417C76.1641 56.3593 76.6361 55.8867 77.2177 55.8867C77.7993 55.8867 78.2713 56.3593 78.2713 56.9417C78.2713 58.0768 79.3376 59.0051 80.6484 59.0051C81.9591 59.0051 83.0254 58.081 83.0254 56.9417C83.0254 56.3593 83.4974 55.8867 84.079 55.8867C84.6606 55.8867 85.1327 56.3593 85.1327 56.9417C85.1327 59.2414 83.1223 61.115 80.6484 61.115Z" fill="black" fill-opacity="0.2"/>
<path d="M80.6484 61.115C78.1744 61.115 76.1641 59.2414 76.1641 56.9417C76.1641 56.3593 76.6361 55.8867 77.2177 55.8867C77.7993 55.8867 78.2713 56.3593 78.2713 56.9417C78.2713 58.0768 79.3376 59.0051 80.6484 59.0051C81.9591 59.0051 83.0254 58.081 83.0254 56.9417C83.0254 56.3593 83.4974 55.8867 84.079 55.8867C84.6606 55.8867 85.1327 56.3593 85.1327 56.9417C85.1327 59.2414 83.1223 61.115 80.6484 61.115Z" fill="black" fill-opacity="0.2"/>
<path d="M73.1645 69.2572C72.6082 69.2572 72.0224 69.2276 71.4029 69.1601C70.8255 69.0968 70.404 68.5778 70.4672 67.9997C70.5304 67.4216 71.0573 66.9996 71.6262 67.0629C76.5151 67.5903 78.8205 65.51 78.8416 65.4889C79.2672 65.0922 79.9331 65.1176 80.3293 65.5438C80.7255 65.97 80.7002 66.6367 80.2745 67.0333C80.1649 67.1346 77.8174 69.2529 73.1603 69.2529L73.1645 69.2572Z" fill="#ACB3B9"/>
<path d="M73.1645 69.2572C72.6082 69.2572 72.0224 69.2276 71.4029 69.1601C70.8255 69.0968 70.404 68.5778 70.4672 67.9997C70.5304 67.4216 71.0573 66.9996 71.6262 67.0629C76.5151 67.5903 78.8205 65.51 78.8416 65.4889C79.2672 65.0922 79.9331 65.1176 80.3293 65.5438C80.7255 65.97 80.7002 66.6367 80.2745 67.0333C80.1649 67.1346 77.8174 69.2529 73.1603 69.2529L73.1645 69.2572Z" fill="black" fill-opacity="0.2"/>
<path d="M73.1645 69.2572C72.6082 69.2572 72.0224 69.2276 71.4029 69.1601C70.8255 69.0968 70.404 68.5778 70.4672 67.9997C70.5304 67.4216 71.0573 66.9996 71.6262 67.0629C76.5151 67.5903 78.8205 65.51 78.8416 65.4889C79.2672 65.0922 79.9331 65.1176 80.3293 65.5438C80.7255 65.97 80.7002 66.6367 80.2745 67.0333C80.1649 67.1346 77.8174 69.2529 73.1603 69.2529L73.1645 69.2572Z" fill="black" fill-opacity="0.2"/>
<path d="M73.1645 69.2572C72.6082 69.2572 72.0224 69.2276 71.4029 69.1601C70.8255 69.0968 70.404 68.5778 70.4672 67.9997C70.5304 67.4216 71.0573 66.9996 71.6262 67.0629C76.5151 67.5903 78.8205 65.51 78.8416 65.4889C79.2672 65.0922 79.9331 65.1176 80.3293 65.5438C80.7255 65.97 80.7002 66.6367 80.2745 67.0333C80.1649 67.1346 77.8174 69.2529 73.1603 69.2529L73.1645 69.2572Z" fill="black" fill-opacity="0.2"/>
<path d="M73.1645 69.2572C72.6082 69.2572 72.0224 69.2276 71.4029 69.1601C70.8255 69.0968 70.404 68.5778 70.4672 67.9997C70.5304 67.4216 71.0573 66.9996 71.6262 67.0629C76.5151 67.5903 78.8205 65.51 78.8416 65.4889C79.2672 65.0922 79.9331 65.1176 80.3293 65.5438C80.7255 65.97 80.7002 66.6367 80.2745 67.0333C80.1649 67.1346 77.8174 69.2529 73.1603 69.2529L73.1645 69.2572Z" fill="black" fill-opacity="0.2"/>
<path d="M73.1645 69.2572C72.6082 69.2572 72.0224 69.2276 71.4029 69.1601C70.8255 69.0968 70.404 68.5778 70.4672 67.9997C70.5304 67.4216 71.0573 66.9996 71.6262 67.0629C76.5151 67.5903 78.8205 65.51 78.8416 65.4889C79.2672 65.0922 79.9331 65.1176 80.3293 65.5438C80.7255 65.97 80.7002 66.6367 80.2745 67.0333C80.1649 67.1346 77.8174 69.2529 73.1603 69.2529L73.1645 69.2572Z" fill="black" fill-opacity="0.2"/>
<path d="M73.1645 69.2572C72.6082 69.2572 72.0224 69.2276 71.4029 69.1601C70.8255 69.0968 70.404 68.5778 70.4672 67.9997C70.5304 67.4216 71.0573 66.9996 71.6262 67.0629C76.5151 67.5903 78.8205 65.51 78.8416 65.4889C79.2672 65.0922 79.9331 65.1176 80.3293 65.5438C80.7255 65.97 80.7002 66.6367 80.2745 67.0333C80.1649 67.1346 77.8174 69.2529 73.1603 69.2529L73.1645 69.2572Z" fill="black" fill-opacity="0.2"/>
<path d="M73.1645 69.2572C72.6082 69.2572 72.0224 69.2276 71.4029 69.1601C70.8255 69.0968 70.404 68.5778 70.4672 67.9997C70.5304 67.4216 71.0573 66.9996 71.6262 67.0629C76.5151 67.5903 78.8205 65.51 78.8416 65.4889C79.2672 65.0922 79.9331 65.1176 80.3293 65.5438C80.7255 65.97 80.7002 66.6367 80.2745 67.0333C80.1649 67.1346 77.8174 69.2529 73.1603 69.2529L73.1645 69.2572Z" fill="black" fill-opacity="0.2"/>
<path d="M34.2594 43.2344H26.6016V47.2854H34.2594V43.2344Z" fill="#F2F7FB"/>
<path d="M34.2584 48.3405H26.6005C26.0189 48.3405 25.5469 47.8679 25.5469 47.2856V43.2346C25.5469 42.6523 26.0189 42.1797 26.6005 42.1797H34.2584C34.84 42.1797 35.312 42.6523 35.312 43.2346V47.2856C35.312 47.8679 34.84 48.3405 34.2584 48.3405ZM27.6542 46.2307H33.2048V44.2896H27.6542V46.2307Z" fill="#ACB3B9"/>
<path d="M34.2584 48.3405H26.6005C26.0189 48.3405 25.5469 47.8679 25.5469 47.2856V43.2346C25.5469 42.6523 26.0189 42.1797 26.6005 42.1797H34.2584C34.84 42.1797 35.312 42.6523 35.312 43.2346V47.2856C35.312 47.8679 34.84 48.3405 34.2584 48.3405ZM27.6542 46.2307H33.2048V44.2896H27.6542V46.2307Z" fill="black" fill-opacity="0.2"/>
<path d="M34.2584 48.3405H26.6005C26.0189 48.3405 25.5469 47.8679 25.5469 47.2856V43.2346C25.5469 42.6523 26.0189 42.1797 26.6005 42.1797H34.2584C34.84 42.1797 35.312 42.6523 35.312 43.2346V47.2856C35.312 47.8679 34.84 48.3405 34.2584 48.3405ZM27.6542 46.2307H33.2048V44.2896H27.6542V46.2307Z" fill="black" fill-opacity="0.2"/>
<path d="M34.2584 48.3405H26.6005C26.0189 48.3405 25.5469 47.8679 25.5469 47.2856V43.2346C25.5469 42.6523 26.0189 42.1797 26.6005 42.1797H34.2584C34.84 42.1797 35.312 42.6523 35.312 43.2346V47.2856C35.312 47.8679 34.84 48.3405 34.2584 48.3405ZM27.6542 46.2307H33.2048V44.2896H27.6542V46.2307Z" fill="black" fill-opacity="0.2"/>
<path d="M34.2584 48.3405H26.6005C26.0189 48.3405 25.5469 47.8679 25.5469 47.2856V43.2346C25.5469 42.6523 26.0189 42.1797 26.6005 42.1797H34.2584C34.84 42.1797 35.312 42.6523 35.312 43.2346V47.2856C35.312 47.8679 34.84 48.3405 34.2584 48.3405ZM27.6542 46.2307H33.2048V44.2896H27.6542V46.2307Z" fill="black" fill-opacity="0.2"/>
<path d="M34.2584 48.3405H26.6005C26.0189 48.3405 25.5469 47.8679 25.5469 47.2856V43.2346C25.5469 42.6523 26.0189 42.1797 26.6005 42.1797H34.2584C34.84 42.1797 35.312 42.6523 35.312 43.2346V47.2856C35.312 47.8679 34.84 48.3405 34.2584 48.3405ZM27.6542 46.2307H33.2048V44.2896H27.6542V46.2307Z" fill="black" fill-opacity="0.2"/>
<path d="M34.2584 48.3405H26.6005C26.0189 48.3405 25.5469 47.8679 25.5469 47.2856V43.2346C25.5469 42.6523 26.0189 42.1797 26.6005 42.1797H34.2584C34.84 42.1797 35.312 42.6523 35.312 43.2346V47.2856C35.312 47.8679 34.84 48.3405 34.2584 48.3405ZM27.6542 46.2307H33.2048V44.2896H27.6542V46.2307Z" fill="black" fill-opacity="0.2"/>
<path d="M34.2584 48.3405H26.6005C26.0189 48.3405 25.5469 47.8679 25.5469 47.2856V43.2346C25.5469 42.6523 26.0189 42.1797 26.6005 42.1797H34.2584C34.84 42.1797 35.312 42.6523 35.312 43.2346V47.2856C35.312 47.8679 34.84 48.3405 34.2584 48.3405ZM27.6542 46.2307H33.2048V44.2896H27.6542V46.2307Z" fill="black" fill-opacity="0.2"/>
</g>
</svg>
