<svg width="25" height="25" viewBox="0 0 25 25" fill="none" xmlns="http://www.w3.org/2000/svg">
<path d="M17.1983 23.1746L14.0983 20.664C13.793 20.4165 13.342 20.4943 13.1354 20.8267L11.0335 24.2212C10.7329 24.7068 10.0001 24.5984 9.84983 24.0467L8.81179 20.1879C8.71081 19.8084 8.29982 19.6033 7.93815 19.7518L4.24866 21.2581C3.72025 21.4726 3.19184 20.954 3.39381 20.4189L4.81465 16.685C4.95321 16.3172 4.74185 15.9118 4.36139 15.8175L0.495768 14.8604C-0.0584773 14.7237 -0.180599 13.9906 0.296146 13.6771L3.63336 11.4942C3.96215 11.2797 4.02791 10.8248 3.77662 10.5254L1.20971 7.47034C0.843345 7.03189 1.17213 6.36713 1.74047 6.39542L5.71648 6.59815C6.10867 6.617 6.42807 6.28934 6.39989 5.89803L6.11337 1.91187C6.07345 1.34141 6.72868 0.997244 7.17254 1.35555L10.2726 3.86606C10.5779 4.11357 11.0288 4.03578 11.2354 3.7034L13.3373 0.308918C13.638 -0.176683 14.3707 -0.0682476 14.521 0.483356L15.559 4.34223C15.66 4.72175 16.071 4.92683 16.4327 4.77832L20.1222 3.27202C20.6506 3.05751 21.179 3.57611 20.977 4.11121L19.5562 7.84515C19.4176 8.21288 19.629 8.61834 20.0094 8.71263L23.875 9.66968C24.4293 9.80641 24.5514 10.5395 24.0747 10.853L20.7375 13.0359C20.4087 13.2504 20.3429 13.7053 20.5942 14.0047L23.1611 17.0598C23.5275 17.4982 23.1987 18.163 22.6303 18.1347L18.6543 17.932C18.2621 17.9131 17.9427 18.2408 17.9709 18.6321L18.2574 22.6182C18.2974 23.1887 17.6421 23.5329 17.1983 23.1746Z" fill="#231F20"/>
</svg>
