<svg width="57" height="64" viewBox="0 0 57 64" fill="none" xmlns="http://www.w3.org/2000/svg">
<path d="M24.844 52.9098L23.4431 50.5709C22.5527 49.0829 20.5939 48.6501 19.1573 49.6253L16.8987 51.1579C14.8597 52.5422 12.1084 51.0304 12.1855 48.5671L12.2746 45.8429C12.331 44.1117 10.9152 42.6889 9.18193 42.7333L6.45435 42.8015C3.98795 42.8637 2.49208 40.1069 3.89297 38.0764L5.44226 35.8324C6.42764 34.4066 6.00618 32.4442 4.52219 31.546L2.18934 30.1321C0.0820702 28.8544 0.316541 25.7271 2.59002 24.7756L5.10688 23.7232C6.70663 23.0533 7.41598 21.1799 6.6532 19.6206L5.4571 17.1721C4.37675 14.9578 6.26736 12.453 8.69518 12.8828L11.3812 13.3571C13.0908 13.6594 14.6994 12.4618 14.9042 10.7426L15.2248 8.03614C15.5127 5.59059 18.4599 4.50269 20.2703 6.17456L22.2737 8.02428C23.547 9.20111 25.5504 9.06475 26.6515 7.72489L28.3848 5.62023C29.9519 3.71715 33.0179 4.39598 33.6382 6.77928L34.3238 9.41751C34.7601 11.0953 36.5171 12.0617 38.1703 11.5311L40.7673 10.6981C43.115 9.94515 45.3291 12.1684 44.5574 14.5102L43.7056 17.098C43.1625 18.7432 44.1182 20.507 45.7951 20.9516L48.4306 21.6542C50.8139 22.2885 51.4728 25.3536 49.5555 26.9069L47.4364 28.6262C46.0889 29.7171 45.9405 31.718 47.1099 32.9985L48.95 35.0113C50.6121 36.8314 49.5051 39.766 47.0535 40.0388L44.3408 40.3411C42.6164 40.5338 41.4084 42.1345 41.6992 43.842L42.1563 46.5276C42.5689 48.9554 40.049 50.8288 37.8409 49.732L35.3952 48.5196C33.84 47.7489 31.9583 48.4426 31.2786 50.0374L30.2072 52.5452C29.2396 54.8099 26.1084 55.0233 24.8411 52.9098H24.844Z" fill="#B0D987"/>
<path d="M27.4321 55.1205C26.1114 55.1205 24.8945 54.4357 24.2089 53.2915L22.808 50.9527C22.4845 50.4102 21.9651 50.0367 21.3448 49.9003C20.7274 49.764 20.0982 49.8855 19.5758 50.2383L17.3172 51.7708C16.1419 52.5682 14.6371 52.6394 13.3906 51.9546C12.144 51.2698 11.399 49.9626 11.4465 48.5427L11.5326 45.8185C11.5534 45.1871 11.3189 44.5913 10.8737 44.1437C10.4285 43.696 9.8438 43.4619 9.19975 43.4737L6.47217 43.5419C5.04159 43.5804 3.74755 42.8245 3.07085 41.5766C2.39415 40.3286 2.47428 38.8257 3.28158 37.6578L4.83087 35.4138C5.18999 34.8921 5.31465 34.2666 5.18109 33.6471C5.04753 33.0275 4.67653 32.5088 4.13636 32.1797L1.80352 30.7658C0.592575 30.0306 -0.095999 28.6907 0.0108487 27.2768C0.117696 25.8628 0.996222 24.6415 2.30807 24.0931L4.82493 23.0408C5.40962 22.7977 5.85186 22.3353 6.07742 21.7454C6.30002 21.1525 6.27034 20.5152 5.99432 19.949L4.79822 17.5005C4.17494 16.2258 4.32037 14.7289 5.17515 13.5935C6.02993 12.4612 7.43379 11.9098 8.83172 12.1559L11.5178 12.6301C12.141 12.7398 12.7643 12.5916 13.2718 12.2151C13.7794 11.8387 14.0999 11.2844 14.1741 10.6559L14.4946 7.94951C14.6609 6.5385 15.5928 5.35871 16.9254 4.86664C18.261 4.37456 19.7361 4.66803 20.7808 5.63143L22.7842 7.48115C23.2502 7.91098 23.8557 8.12441 24.4849 8.07994C25.1171 8.03548 25.6869 7.74498 26.0876 7.25587L27.8209 5.15121C28.7232 4.05442 30.1478 3.56531 31.5369 3.87063C32.9259 4.17595 34.0092 5.22235 34.3653 6.59483L35.051 9.23306C35.2112 9.8437 35.603 10.3506 36.158 10.6559C36.713 10.9612 37.3511 11.0205 37.9536 10.8279L40.5506 9.99488C41.904 9.55913 43.3673 9.91485 44.3704 10.9227C45.3736 11.9306 45.7179 13.3949 45.2757 14.7437L44.4239 17.3315C44.225 17.9333 44.2844 18.5676 44.5841 19.1249C44.8869 19.6822 45.3885 20.0765 45.9999 20.2395L48.6384 20.9421C50.0126 21.3067 51.0514 22.3975 51.3482 23.7848C51.645 25.1721 51.1434 26.592 50.0423 27.4872L47.9231 29.2036C47.4334 29.6008 47.1366 30.167 47.0891 30.7984C47.0416 31.4298 47.2494 32.0345 47.6768 32.4999L49.5169 34.5126C50.4756 35.562 50.7576 37.0382 50.256 38.3662C49.7544 39.6942 48.5642 40.6161 47.1515 40.7732L44.4387 41.0756C43.8095 41.1467 43.2545 41.461 42.8716 41.9649C42.4917 42.4688 42.3403 43.0913 42.4442 43.7138L42.9013 46.3995C43.1387 47.7986 42.5778 49.1948 41.4381 50.0426C40.2984 50.8904 38.7966 51.0238 37.5233 50.3924L35.0777 49.18C34.5108 48.8984 33.8727 48.8658 33.2791 49.0852C32.6855 49.3045 32.2225 49.7462 31.9731 50.3272L30.9017 52.835C30.3437 54.1423 29.1179 55.0138 27.6992 55.1086C27.6132 55.1145 27.5241 55.1175 27.4381 55.1175L27.4321 55.1205ZM25.4821 52.5326C25.9303 53.2826 26.7168 53.6946 27.5894 53.6324C28.462 53.5731 29.1862 53.0573 29.5275 52.257L30.599 49.7492C31.0085 48.7887 31.7743 48.0595 32.7567 47.6979C33.7361 47.3362 34.7927 47.3925 35.7306 47.8579L38.1763 49.0703C38.9598 49.4587 39.8443 49.3786 40.5447 48.8569C41.2452 48.3352 41.5776 47.5111 41.4321 46.6515L40.9751 43.9658C40.7999 42.9372 41.0493 41.9115 41.6785 41.0756C42.3077 40.2426 43.2278 39.718 44.2666 39.6053L46.9793 39.303C47.8489 39.2081 48.5494 38.6627 48.858 37.8445C49.1667 37.0293 48.9975 36.1549 48.4099 35.5116L46.5697 33.4988C45.8663 32.7281 45.5191 31.7292 45.5992 30.6887C45.6764 29.6482 46.1661 28.7115 46.9793 28.0534L49.0985 26.3371C49.7752 25.7887 50.072 24.9498 49.8909 24.0961C49.7099 23.2424 49.0955 22.5991 48.2496 22.3738L45.6111 21.6713C44.6019 21.4015 43.7709 20.7494 43.2723 19.8304C42.7737 18.9115 42.6787 17.8592 43.0052 16.8691L43.857 14.2813C44.13 13.4513 43.9252 12.5886 43.3109 11.9691C42.6965 11.3496 41.8298 11.1391 40.9988 11.4059L38.4018 12.2389C37.4075 12.559 36.3539 12.4582 35.4368 11.9543C34.5197 11.4504 33.8727 10.6174 33.6085 9.60656L32.9229 6.96833C32.7033 6.1235 32.0652 5.50693 31.2104 5.32017C30.3556 5.13046 29.5156 5.42096 28.9606 6.09386L27.2273 8.19851C26.5625 9.0048 25.6216 9.48799 24.5799 9.55913C23.5322 9.63027 22.5379 9.27752 21.7722 8.56905L19.7688 6.71933C19.1277 6.12647 18.2551 5.95454 17.4359 6.2569C16.6168 6.55925 16.0647 7.25587 15.9638 8.12441L15.6433 10.8308C15.5216 11.8683 14.9903 12.7813 14.1533 13.4038C13.3134 14.0263 12.2835 14.2694 11.2566 14.0886L8.57053 13.6143C7.71279 13.4631 6.88175 13.7892 6.35641 14.4858C5.83108 15.1824 5.74501 16.0658 6.12788 16.8513L7.32398 19.2998C7.78105 20.2395 7.83151 21.2918 7.46347 22.2701C7.09544 23.2483 6.35938 24.0071 5.39478 24.4103L2.87793 25.4626C2.0736 25.8005 1.55124 26.5209 1.48594 27.3894C1.42064 28.2609 1.82726 29.0494 2.57519 29.503L4.90803 30.9169C5.8014 31.4594 6.41577 32.319 6.63244 33.3417C6.85207 34.3615 6.64431 35.399 6.05071 36.2586L4.50142 38.5026C4.00576 39.2199 3.95828 40.1092 4.3738 40.874C4.78931 41.6418 5.54912 42.0835 6.43358 42.0627L9.16117 41.9945C10.197 41.9649 11.1883 42.3621 11.9244 43.1032C12.6604 43.8443 13.0492 44.8254 13.0136 45.8689L12.9275 48.5931C12.9008 49.4646 13.3401 50.2383 14.1058 50.6562C14.8716 51.0772 15.759 51.0357 16.4832 50.5466L18.7418 49.014C19.6055 48.4271 20.6443 48.2285 21.6653 48.4538C22.6863 48.679 23.5441 49.2956 24.0813 50.1938L25.4821 52.5326Z" fill="#0E0E0F"/>
<path d="M26.9014 26.0104L14.1835 29.4134C13.5484 29.5824 13.4593 30.442 14.044 30.7414L22.0635 34.8381C22.396 35.0071 22.7996 34.8944 22.9985 34.5802L27.6968 27.0805C28.0411 26.5292 27.5336 25.8414 26.9043 26.0104H26.9014Z" fill="#0E0E0F"/>
<path d="M22.3958 35.662C22.1703 35.662 21.9417 35.6087 21.728 35.499L13.7085 31.4023C13.1683 31.1266 12.8597 30.5575 12.922 29.9528C12.9873 29.348 13.4058 28.856 13.9934 28.6989L26.7113 25.2958C27.293 25.1417 27.9015 25.3522 28.2606 25.8383C28.6197 26.3215 28.6434 26.9647 28.3229 27.4776L23.6246 34.9773C23.3486 35.4189 22.8796 35.665 22.3929 35.665L22.3958 35.662ZM14.4416 30.1128L22.381 34.168L27.0318 26.7424L14.4416 30.1128ZM27.0942 26.7246C27.0942 26.7246 27.0942 26.7246 27.0971 26.7246L26.9012 26.0102L27.0942 26.7246Z" fill="#0E0E0F"/>
<path d="M39.0186 22.7721L26.3007 26.1752C25.6656 26.3441 25.5765 27.2038 26.1612 27.5032L34.1807 31.5998C34.5132 31.7688 34.9168 31.6561 35.1157 31.3419L39.814 23.8422C40.1583 23.2909 39.6507 22.6032 39.0215 22.7721H39.0186Z" fill="#0E0E0F"/>
<path d="M34.513 32.421C34.2874 32.421 34.0589 32.3677 33.8452 32.258L25.8257 28.1613C25.2855 27.8856 24.9769 27.3165 25.0392 26.7118C25.1045 26.107 25.523 25.615 26.1106 25.4579L38.8285 22.0548C39.4102 21.8977 40.0186 22.1112 40.3778 22.5973C40.7369 23.0805 40.7606 23.7237 40.4401 24.2366L35.7418 31.7363C35.4657 32.1779 34.9968 32.424 34.51 32.424L34.513 32.421ZM26.5588 26.8718L34.4982 30.927L39.149 23.5014L26.5588 26.8718ZM39.2113 23.4836C39.2113 23.4836 39.2113 23.4836 39.2143 23.4836L39.0184 22.7692L39.2113 23.4836Z" fill="#0E0E0F"/>
<path d="M22.8735 39.2602C20.1162 39.2602 18.6322 38.1189 18.558 38.0596C18.2375 37.8047 18.184 37.3393 18.4363 37.0192C18.6886 36.699 19.1546 36.6457 19.4751 36.8947C19.5552 36.9569 21.2856 38.2316 24.6335 37.6091C25.0371 37.5349 25.423 37.7988 25.5001 38.2019C25.5743 38.6051 25.3102 38.9904 24.9065 39.0675C24.1675 39.2068 23.4878 39.2631 22.8735 39.2631V39.2602Z" fill="#0E0E0F"/>
<path d="M9.9862 53.43C9.79328 53.43 9.60036 53.3559 9.45493 53.2047C9.17 52.9112 9.17593 52.4429 9.4668 52.1553L11.0191 50.6435L4.52212 49.5379C4.2461 49.4904 4.01757 49.2918 3.93743 49.0221C3.85729 48.7523 3.93446 48.4618 4.13629 48.2691L10.1821 42.551C10.4789 42.2694 10.9478 42.2812 11.2298 42.5806C11.5117 42.8771 11.4999 43.3454 11.2031 43.627L6.23466 48.3255L12.7049 49.4252C12.9809 49.4726 13.2065 49.6683 13.2896 49.9351C13.3727 50.2019 13.2985 50.4924 13.0996 50.685L10.5026 53.2136C10.3572 53.3529 10.1702 53.4241 9.98323 53.4241L9.9862 53.43Z" fill="#0E0E0F"/>
<path d="M52.6833 36.5536C52.6328 36.5536 52.5794 36.5477 52.526 36.5358L48.8011 35.7384C48.5162 35.6762 48.2936 35.4568 48.2313 35.1723C48.1689 34.8877 48.2788 34.5942 48.5132 34.4193L53.9061 30.3997L47.8187 28.8998C47.421 28.802 47.1776 28.3988 47.2756 28.0016C47.3735 27.6044 47.7772 27.3613 48.1749 27.4591L55.7878 29.3326C56.0668 29.4008 56.2805 29.6231 56.3369 29.9047C56.3932 30.1863 56.2834 30.4738 56.0519 30.6458L50.7095 34.6268L52.8376 35.0833C53.2383 35.1693 53.4935 35.5635 53.4074 35.9637C53.3332 36.3106 53.0246 36.5507 52.6833 36.5507V36.5536Z" fill="#0E0E0F"/>
<path d="M21.1455 63.6759H17.2693C16.8598 63.6759 16.5273 63.3439 16.5273 62.9348C16.5273 62.5257 16.8598 62.1937 17.2693 62.1937H21.1455C21.8994 62.1937 22.5435 61.6542 22.677 60.9131L24.1195 52.785C24.1907 52.3819 24.5765 52.1121 24.9802 52.1833C25.3838 52.2544 25.6539 52.6398 25.5827 53.0429L24.1402 61.171C23.882 62.6235 22.6236 63.6759 21.1485 63.6759H21.1455Z" fill="#0E0E0F"/>
<path d="M44.4621 63.6765H41.1617C40.4315 63.6765 39.7281 63.3682 39.2354 62.8317C38.7398 62.2951 38.4934 61.5689 38.5558 60.8426L38.9179 56.5651C38.9802 55.827 38.7932 55.0771 38.3866 54.4575L34.7835 48.9261C34.5609 48.5823 34.6588 48.1228 35.0001 47.9005C35.3444 47.6782 35.8044 47.776 36.027 48.1169L39.6302 53.6483C40.2149 54.5435 40.485 55.6255 40.3959 56.6896L40.0338 60.9671C40.0071 61.2873 40.111 61.5926 40.3277 61.8268C40.5443 62.0639 40.8411 62.1914 41.1617 62.1914H44.4621C44.8717 62.1914 45.2041 62.5234 45.2041 62.9325C45.2041 63.3415 44.8717 63.6735 44.4621 63.6735V63.6765Z" fill="#0E0E0F"/>
<path d="M55.374 6.8566C52.2636 8.23797 51.3019 9.35551 50.1147 12.9749C48.9276 9.35551 47.9659 8.23797 44.8555 6.8566C47.9659 5.47524 48.9276 4.3577 50.1147 0.738281C51.3019 4.3577 52.2636 5.47524 55.374 6.8566Z" fill="#B0D987"/>
<path d="M50.1175 13.7129C49.797 13.7129 49.5121 13.5083 49.4111 13.203C48.2892 9.77924 47.473 8.82473 44.5555 7.5323C44.2884 7.41372 44.1133 7.14694 44.1133 6.85643C44.1133 6.56593 44.2854 6.29915 44.5555 6.18057C47.4701 4.88814 48.2892 3.93363 49.4111 0.50986C49.5121 0.204537 49.794 0 50.1175 0C50.441 0 50.723 0.204537 50.8239 0.50986C51.9458 3.93363 52.762 4.88814 55.6795 6.18057C55.9467 6.29915 56.1218 6.56593 56.1218 6.85643C56.1218 7.14694 55.9496 7.41372 55.6795 7.5323C52.765 8.82473 51.9458 9.77924 50.8239 13.203C50.723 13.5083 50.441 13.7129 50.1175 13.7129ZM46.5441 6.85347C48.3071 7.8228 49.2776 8.89588 50.1175 10.8405C50.9575 8.89588 51.931 7.8228 53.691 6.85347C51.928 5.88414 50.9575 4.81107 50.1175 2.86648C49.2776 4.81107 48.3041 5.88414 46.5441 6.85347Z" fill="#0E0E0F"/>
</svg>
