<svg width="23" height="24" viewBox="0 0 23 24" fill="none" xmlns="http://www.w3.org/2000/svg">
<path d="M11.9756 3.58203C11.8352 3.15011 11.254 3.12295 11.0586 3.50098L11.0244 3.58203L9.61816 7.91016C9.41727 8.52803 8.84115 8.94629 8.19141 8.94629H3.64062C3.18643 8.94629 2.98098 9.49131 3.28027 9.79395L3.34668 9.85059L7.02832 12.5254C7.52105 12.8834 7.74557 13.5011 7.60645 14.0859L7.57324 14.2031L6.16699 18.5312C6.0268 18.963 6.48114 19.3263 6.86133 19.1357L6.93652 19.0898L10.6182 16.415C11.111 16.0569 11.7679 16.0343 12.2812 16.3477L12.3818 16.415L16.0635 19.0898C16.4309 19.3568 16.9177 19.0369 16.8535 18.6162L16.833 18.5312L15.4268 14.2031C15.2384 13.6236 15.4201 12.9919 15.877 12.6006L15.9717 12.5254L19.6533 9.85059C20.0451 9.56586 19.8437 8.94629 19.3594 8.94629H14.8086C14.1994 8.94629 13.655 8.5786 13.4238 8.02344L13.3818 7.91016L11.9756 3.58203Z" fill="#E2E7EB"/>
<path d="M11.9756 3.58203C11.8352 3.15011 11.254 3.12295 11.0586 3.50098L11.0244 3.58203L9.61816 7.91016C9.41727 8.52803 8.84115 8.94629 8.19141 8.94629H3.64062C3.18643 8.94629 2.98098 9.49131 3.28027 9.79395L3.34668 9.85059L7.02832 12.5254C7.52105 12.8834 7.74557 13.5011 7.60645 14.0859L7.57324 14.2031L6.16699 18.5312C6.0268 18.963 6.48114 19.3263 6.86133 19.1357L6.93652 19.0898L10.6182 16.415C11.111 16.0569 11.7679 16.0343 12.2812 16.3477L12.3818 16.415L16.0635 19.0898C16.4309 19.3568 16.9177 19.0369 16.8535 18.6162L16.833 18.5312L15.4268 14.2031C15.2384 13.6236 15.4201 12.9919 15.877 12.6006L15.9717 12.5254L19.6533 9.85059C20.0451 9.56586 19.8437 8.94629 19.3594 8.94629H14.8086C14.1994 8.94629 13.655 8.5786 13.4238 8.02344L13.3818 7.91016L11.9756 3.58203Z" stroke="#ACB3B9"/>
<path d="M11.9756 3.58203C11.8352 3.15011 11.254 3.12295 11.0586 3.50098L11.0244 3.58203L9.61816 7.91016C9.41727 8.52803 8.84115 8.94629 8.19141 8.94629H3.64062C3.18643 8.94629 2.98098 9.49131 3.28027 9.79395L3.34668 9.85059L7.02832 12.5254C7.52105 12.8834 7.74557 13.5011 7.60645 14.0859L7.57324 14.2031L6.16699 18.5312C6.0268 18.963 6.48114 19.3263 6.86133 19.1357L6.93652 19.0898L10.6182 16.415C11.111 16.0569 11.7679 16.0343 12.2812 16.3477L12.3818 16.415L16.0635 19.0898C16.4309 19.3568 16.9177 19.0369 16.8535 18.6162L16.833 18.5312L15.4268 14.2031C15.2384 13.6236 15.4201 12.9919 15.877 12.6006L15.9717 12.5254L19.6533 9.85059C20.0451 9.56586 19.8437 8.94629 19.3594 8.94629H14.8086C14.1994 8.94629 13.655 8.5786 13.4238 8.02344L13.3818 7.91016L11.9756 3.58203Z" stroke="black" stroke-opacity="0.2"/>
<path d="M11.9756 3.58203C11.8352 3.15011 11.254 3.12295 11.0586 3.50098L11.0244 3.58203L9.61816 7.91016C9.41727 8.52803 8.84115 8.94629 8.19141 8.94629H3.64062C3.18643 8.94629 2.98098 9.49131 3.28027 9.79395L3.34668 9.85059L7.02832 12.5254C7.52105 12.8834 7.74557 13.5011 7.60645 14.0859L7.57324 14.2031L6.16699 18.5312C6.0268 18.963 6.48114 19.3263 6.86133 19.1357L6.93652 19.0898L10.6182 16.415C11.111 16.0569 11.7679 16.0343 12.2812 16.3477L12.3818 16.415L16.0635 19.0898C16.4309 19.3568 16.9177 19.0369 16.8535 18.6162L16.833 18.5312L15.4268 14.2031C15.2384 13.6236 15.4201 12.9919 15.877 12.6006L15.9717 12.5254L19.6533 9.85059C20.0451 9.56586 19.8437 8.94629 19.3594 8.94629H14.8086C14.1994 8.94629 13.655 8.5786 13.4238 8.02344L13.3818 7.91016L11.9756 3.58203Z" stroke="black" stroke-opacity="0.2"/>
<path d="M11.9756 3.58203C11.8352 3.15011 11.254 3.12295 11.0586 3.50098L11.0244 3.58203L9.61816 7.91016C9.41727 8.52803 8.84115 8.94629 8.19141 8.94629H3.64062C3.18643 8.94629 2.98098 9.49131 3.28027 9.79395L3.34668 9.85059L7.02832 12.5254C7.52105 12.8834 7.74557 13.5011 7.60645 14.0859L7.57324 14.2031L6.16699 18.5312C6.0268 18.963 6.48114 19.3263 6.86133 19.1357L6.93652 19.0898L10.6182 16.415C11.111 16.0569 11.7679 16.0343 12.2812 16.3477L12.3818 16.415L16.0635 19.0898C16.4309 19.3568 16.9177 19.0369 16.8535 18.6162L16.833 18.5312L15.4268 14.2031C15.2384 13.6236 15.4201 12.9919 15.877 12.6006L15.9717 12.5254L19.6533 9.85059C20.0451 9.56586 19.8437 8.94629 19.3594 8.94629H14.8086C14.1994 8.94629 13.655 8.5786 13.4238 8.02344L13.3818 7.91016L11.9756 3.58203Z" stroke="black" stroke-opacity="0.2"/>
<path d="M11.9756 3.58203C11.8352 3.15011 11.254 3.12295 11.0586 3.50098L11.0244 3.58203L9.61816 7.91016C9.41727 8.52803 8.84115 8.94629 8.19141 8.94629H3.64062C3.18643 8.94629 2.98098 9.49131 3.28027 9.79395L3.34668 9.85059L7.02832 12.5254C7.52105 12.8834 7.74557 13.5011 7.60645 14.0859L7.57324 14.2031L6.16699 18.5312C6.0268 18.963 6.48114 19.3263 6.86133 19.1357L6.93652 19.0898L10.6182 16.415C11.111 16.0569 11.7679 16.0343 12.2812 16.3477L12.3818 16.415L16.0635 19.0898C16.4309 19.3568 16.9177 19.0369 16.8535 18.6162L16.833 18.5312L15.4268 14.2031C15.2384 13.6236 15.4201 12.9919 15.877 12.6006L15.9717 12.5254L19.6533 9.85059C20.0451 9.56586 19.8437 8.94629 19.3594 8.94629H14.8086C14.1994 8.94629 13.655 8.5786 13.4238 8.02344L13.3818 7.91016L11.9756 3.58203Z" stroke="black" stroke-opacity="0.2"/>
<path d="M11.9756 3.58203C11.8352 3.15011 11.254 3.12295 11.0586 3.50098L11.0244 3.58203L9.61816 7.91016C9.41727 8.52803 8.84115 8.94629 8.19141 8.94629H3.64062C3.18643 8.94629 2.98098 9.49131 3.28027 9.79395L3.34668 9.85059L7.02832 12.5254C7.52105 12.8834 7.74557 13.5011 7.60645 14.0859L7.57324 14.2031L6.16699 18.5312C6.0268 18.963 6.48114 19.3263 6.86133 19.1357L6.93652 19.0898L10.6182 16.415C11.111 16.0569 11.7679 16.0343 12.2812 16.3477L12.3818 16.415L16.0635 19.0898C16.4309 19.3568 16.9177 19.0369 16.8535 18.6162L16.833 18.5312L15.4268 14.2031C15.2384 13.6236 15.4201 12.9919 15.877 12.6006L15.9717 12.5254L19.6533 9.85059C20.0451 9.56586 19.8437 8.94629 19.3594 8.94629H14.8086C14.1994 8.94629 13.655 8.5786 13.4238 8.02344L13.3818 7.91016L11.9756 3.58203Z" stroke="black" stroke-opacity="0.2"/>
<path d="M11.9756 3.58203C11.8352 3.15011 11.254 3.12295 11.0586 3.50098L11.0244 3.58203L9.61816 7.91016C9.41727 8.52803 8.84115 8.94629 8.19141 8.94629H3.64062C3.18643 8.94629 2.98098 9.49131 3.28027 9.79395L3.34668 9.85059L7.02832 12.5254C7.52105 12.8834 7.74557 13.5011 7.60645 14.0859L7.57324 14.2031L6.16699 18.5312C6.0268 18.963 6.48114 19.3263 6.86133 19.1357L6.93652 19.0898L10.6182 16.415C11.111 16.0569 11.7679 16.0343 12.2812 16.3477L12.3818 16.415L16.0635 19.0898C16.4309 19.3568 16.9177 19.0369 16.8535 18.6162L16.833 18.5312L15.4268 14.2031C15.2384 13.6236 15.4201 12.9919 15.877 12.6006L15.9717 12.5254L19.6533 9.85059C20.0451 9.56586 19.8437 8.94629 19.3594 8.94629H14.8086C14.1994 8.94629 13.655 8.5786 13.4238 8.02344L13.3818 7.91016L11.9756 3.58203Z" stroke="black" stroke-opacity="0.2"/>
<path d="M11.9756 3.58203C11.8352 3.15011 11.254 3.12295 11.0586 3.50098L11.0244 3.58203L9.61816 7.91016C9.41727 8.52803 8.84115 8.94629 8.19141 8.94629H3.64062C3.18643 8.94629 2.98098 9.49131 3.28027 9.79395L3.34668 9.85059L7.02832 12.5254C7.52105 12.8834 7.74557 13.5011 7.60645 14.0859L7.57324 14.2031L6.16699 18.5312C6.0268 18.963 6.48114 19.3263 6.86133 19.1357L6.93652 19.0898L10.6182 16.415C11.111 16.0569 11.7679 16.0343 12.2812 16.3477L12.3818 16.415L16.0635 19.0898C16.4309 19.3568 16.9177 19.0369 16.8535 18.6162L16.833 18.5312L15.4268 14.2031C15.2384 13.6236 15.4201 12.9919 15.877 12.6006L15.9717 12.5254L19.6533 9.85059C20.0451 9.56586 19.8437 8.94629 19.3594 8.94629H14.8086C14.1994 8.94629 13.655 8.5786 13.4238 8.02344L13.3818 7.91016L11.9756 3.58203Z" stroke="black" stroke-opacity="0.2"/>
<path d="M11.5 3.50391C11.1345 3.52087 10.7784 3.72796 10.6416 4.12891L9.2998 8.06348C9.1721 8.43798 8.80575 8.69141 8.39258 8.69141H4.05273C3.12881 8.69141 2.74471 9.81834 3.49219 10.3359L7.00293 12.7676C7.33721 12.9991 7.47729 13.4096 7.34961 13.7842L6.00879 17.7188C5.72339 18.5562 6.72912 19.2529 7.47656 18.7354L10.9873 16.3027C11.1407 16.1965 11.3196 16.1415 11.5 16.1328V3.50391Z" fill="#0E0E0F"/>
</svg>
