<svg width="33" height="33" viewBox="0 0 33 33" fill="none" xmlns="http://www.w3.org/2000/svg">
<circle cx="16.5" cy="16.5" r="16" fill="#FEFEFE" stroke="black"/>
<path d="M23.8077 10.2174H21.2756L20.0305 8.32891C19.9638 8.22779 19.8735 8.14487 19.7675 8.0875C19.6616 8.03013 19.5433 8.00007 19.4231 8H13.5769C13.4567 8.00007 13.3384 8.03013 13.2325 8.0875C13.1265 8.14487 13.0362 8.22779 12.9695 8.32891L11.7235 10.2174H9.19231C8.61087 10.2174 8.05325 10.451 7.64211 10.8669C7.23097 11.2827 7 11.8467 7 12.4348V22.7826C7 23.3707 7.23097 23.9347 7.64211 24.3505C8.05325 24.7664 8.61087 25 9.19231 25H23.8077C24.3891 25 24.9468 24.7664 25.3579 24.3505C25.769 23.9347 26 23.3707 26 22.7826V12.4348C26 11.8467 25.769 11.2827 25.3579 10.8669C24.9468 10.451 24.3891 10.2174 23.8077 10.2174ZM19.7885 17.2391C19.7885 17.897 19.5956 18.54 19.2343 19.087C18.8729 19.634 18.3593 20.0603 17.7584 20.312C17.1576 20.5638 16.4964 20.6296 15.8585 20.5013C15.2206 20.373 14.6346 20.0562 14.1747 19.591C13.7148 19.1259 13.4016 18.5332 13.2747 17.888C13.1478 17.2428 13.213 16.5741 13.4619 15.9663C13.7108 15.3585 14.1322 14.8391 14.673 14.4736C15.2138 14.1081 15.8496 13.913 16.5 13.913C17.3722 13.913 18.2086 14.2635 18.8253 14.8872C19.442 15.511 19.7885 16.357 19.7885 17.2391Z" fill="#0E0E0F"/>
</svg>
