<svg width="375" height="495" viewBox="0 0 375 495" fill="none" xmlns="http://www.w3.org/2000/svg">
<rect width="375" height="495" fill="white"/>
<circle cx="188.999" cy="311" r="163" fill="#F2F7FB"/>
<path d="M296.265 373.086C297.663 370.758 301.038 370.758 302.437 373.086L304.876 377.147C306.323 379.556 309.376 380.453 311.896 379.208L316.144 377.111C318.579 375.908 321.418 377.733 321.336 380.448L321.192 385.183C321.107 387.992 323.192 390.397 325.984 390.712L330.691 391.245C333.39 391.55 334.792 394.619 333.255 396.859L330.574 400.764C328.984 403.081 329.437 406.231 331.616 408.006L335.288 410.999C337.394 412.714 336.914 416.055 334.41 417.108L330.043 418.945C327.452 420.034 326.131 422.929 327.004 425.6L328.476 430.103C329.32 432.685 327.109 435.236 324.434 434.768L319.768 433.952C316.999 433.467 314.322 435.188 313.612 437.908L312.416 442.491C311.73 445.119 308.491 446.07 306.493 444.23L303.009 441.021C300.942 439.117 297.76 439.117 295.692 441.021L292.208 444.23C290.21 446.07 286.971 445.119 286.285 442.491L285.089 437.908C284.379 435.188 281.702 433.467 278.934 433.952L274.268 434.768C271.592 435.236 269.382 432.685 270.226 430.103L271.697 425.6C272.57 422.929 271.249 420.034 268.658 418.945L264.291 417.108C261.787 416.055 261.307 412.714 263.413 410.999L267.085 408.006C269.264 406.231 269.717 403.081 268.127 400.764L265.446 396.859C263.909 394.619 265.311 391.55 268.01 391.245L272.717 390.712C275.51 390.397 277.594 387.992 277.509 385.183L277.365 380.448C277.283 377.733 280.122 375.908 282.558 377.111L286.805 379.208C289.325 380.453 292.378 379.556 293.825 377.147L296.265 373.086Z" fill="white" stroke="black" stroke-width="1.8"/>
<circle cx="284.05" cy="407.15" r="3.15" fill="black"/>
<circle cx="302.95" cy="407.15" r="3.15" fill="black"/>
<path d="M292.271 422.45C292.618 423.05 293.484 423.05 293.83 422.45L297.338 416.375C297.684 415.775 297.251 415.025 296.558 415.025H289.543C288.85 415.025 288.417 415.775 288.764 416.375L292.271 422.45Z" fill="black"/>
<path d="M324.1 412.549C325 424.699 305.65 439.101 295.75 431.45" stroke="black" stroke-width="1.8" stroke-linecap="round"/>
<path d="M293.049 444.499L295.299 460.249H285.399" stroke="black" stroke-width="1.8" stroke-linecap="round"/>
<path d="M311.949 444.499L314.199 460.249H304.299" stroke="black" stroke-width="1.8" stroke-linecap="round"/>
<path d="M139.89 350.74C140.475 350.154 141.425 350.154 142.011 350.74C142.597 351.326 142.597 352.276 142.011 352.861L140.95 351.801L139.89 350.74ZM121.001 373.248C120.172 373.248 119.501 372.577 119.501 371.748L119.502 358.248C119.502 357.42 120.173 356.748 121.002 356.748C121.83 356.748 122.502 357.42 122.502 358.248L122.501 370.248L134.501 370.249C135.329 370.249 136.001 370.921 136.001 371.749C136.001 372.577 135.329 373.249 134.501 373.249L121.001 373.248ZM140.95 351.801L142.011 352.861L122.062 372.809L121.001 371.748L119.94 370.688L139.89 350.74L140.95 351.801Z" fill="black"/>
<path d="M235.058 350.74C234.472 350.154 233.522 350.154 232.936 350.74C232.351 351.326 232.351 352.276 232.936 352.861L233.997 351.801L235.058 350.74ZM253.946 373.248C254.775 373.248 255.446 372.577 255.446 371.748L255.446 358.248C255.446 357.42 254.774 356.748 253.946 356.748C253.117 356.748 252.446 357.42 252.446 358.248L252.446 370.248L240.446 370.249C239.618 370.249 238.946 370.921 238.946 371.749C238.946 372.577 239.618 373.249 240.446 373.249L253.946 373.248ZM233.997 351.801L232.936 352.861L252.886 372.809L253.946 371.748L255.007 370.688L235.058 350.74L233.997 351.801Z" fill="black"/>
<rect x="280.445" y="435.539" width="16.2" height="22.5" rx="1.8" transform="rotate(-2.32582 280.445 435.539)" fill="black"/>
<circle cx="284.045" cy="439.251" r="1.35" fill="white"/>
<circle cx="284.045" cy="442.851" r="1.35" fill="white"/>
<circle cx="286.745" cy="441.051" r="1.35" fill="white"/>
<path d="M79.7166 446.299L83.6748 433.554C83.8662 432.938 84.5362 432.608 85.1433 432.836L97.6292 437.531C98.4876 437.854 99.353 437.066 99.1073 436.176L95.5527 423.308C95.3803 422.685 95.768 422.043 96.3991 421.907L109.432 419.102C110.329 418.911 110.628 417.777 109.946 417.165L100.005 408.26C99.5255 407.828 99.5044 407.082 99.963 406.625L109.408 397.209C110.057 396.56 109.701 395.447 108.791 395.3L95.6238 393.188C94.9864 393.083 94.566 392.468 94.7017 391.836L97.5594 378.801C97.7559 377.903 96.8518 377.159 96.0097 377.527L83.7952 382.875C83.2029 383.135 82.515 382.839 82.2907 382.233L77.6523 369.714C77.3313 368.851 76.1697 368.718 75.6602 369.48L68.2759 380.589C67.9194 381.129 67.1827 381.255 66.6653 380.863L56.0071 372.839C55.2743 372.287 54.2219 372.801 54.2071 373.719L53.9984 387.067C53.9867 387.713 53.4363 388.217 52.7914 388.17L39.4923 387.186C38.5751 387.119 37.9724 388.119 38.4546 388.9L45.4855 400.245C45.825 400.793 45.6338 401.517 45.0666 401.827L33.3538 408.197C32.5458 408.634 32.5791 409.804 33.4085 410.203L45.4499 415.946C46.0342 416.223 46.2628 416.936 45.9519 417.503L39.5378 429.202C39.0951 430.009 39.7558 430.975 40.6671 430.858L53.8939 429.175C54.5337 429.094 55.1136 429.566 55.1587 430.216L56.0853 443.535C56.1478 444.452 57.2248 444.912 57.9302 444.318L68.1437 435.743C68.6375 435.326 69.3828 435.413 69.7672 435.933L77.7386 446.64C78.2882 447.378 79.4389 447.182 79.7135 446.304L79.7166 446.299Z" fill="white"/>
<path d="M79.1542 448.077C79.8953 447.898 80.4866 447.349 80.7135 446.612L84.6717 433.868C84.6738 433.859 84.6811 433.835 84.7127 433.823C84.7392 433.808 84.7635 433.82 84.7727 433.822L97.2585 438.516C98.0267 438.805 98.8795 438.641 99.4861 438.085C100.094 437.532 100.33 436.693 100.113 435.9L96.5579 423.032C96.5579 423.032 96.55 423 96.5654 422.974C96.5798 422.945 96.6053 422.943 96.6134 422.941L109.646 420.136C110.45 419.967 111.079 419.362 111.288 418.569C111.497 417.776 111.247 416.939 110.636 416.392L100.696 407.486C100.696 407.486 100.674 407.466 100.67 407.432C100.67 407.397 100.687 407.38 100.69 407.375L110.136 397.959C110.715 397.379 110.92 396.535 110.67 395.75C110.416 394.969 109.757 394.4 108.946 394.272L95.7788 392.16C95.7788 392.16 95.7473 392.154 95.7282 392.129C95.7091 392.103 95.7154 392.076 95.7144 392.072L98.5721 379.037C98.7486 378.234 98.4629 377.41 97.8285 376.891C97.194 376.371 96.3331 376.251 95.5808 376.58L83.3662 381.928C83.3662 381.928 83.3347 381.94 83.3063 381.929C83.2769 381.915 83.2669 381.892 83.2659 381.887L78.6275 369.368C78.3414 368.596 77.6593 368.057 76.844 367.965C76.0277 367.87 75.2415 368.237 74.7864 368.921L67.4021 380.031C67.4021 380.031 67.3786 380.058 67.35 380.065C67.3175 380.073 67.2963 380.056 67.2902 380.049L56.6393 372.002C55.9813 371.51 55.1161 371.425 54.3798 371.785C53.6435 372.144 53.1748 372.879 53.1628 373.702L52.9541 387.05C52.9541 387.05 52.9539 387.084 52.9283 387.104C52.9038 387.127 52.8814 387.124 52.8723 387.121L39.5732 386.137C38.7566 386.076 37.9825 386.475 37.5577 387.178C37.133 387.88 37.1369 388.751 37.5688 389.449L44.5997 400.794C44.5997 400.794 44.6148 400.821 44.6094 400.852C44.6001 400.885 44.5766 400.895 44.5735 400.9L32.8607 407.27C32.1405 407.66 31.7072 408.416 31.7288 409.235C31.7513 410.059 32.2247 410.786 32.966 411.141L45.0074 416.884C45.0074 416.884 45.0368 416.898 45.0487 416.93C45.0607 416.962 45.0484 416.982 45.0422 416.992L38.6282 428.691C38.2338 429.412 38.2763 430.283 38.7379 430.961C39.1995 431.639 39.9936 431.999 40.8083 431.892L54.0351 430.21C54.0351 430.21 54.0677 430.202 54.0949 430.225C54.1212 430.245 54.1231 430.27 54.121 430.279L55.0466 443.594C55.1027 444.414 55.6108 445.123 56.3655 445.446C57.1203 445.768 57.9809 445.637 58.6117 445.109L68.8252 436.534C68.8252 436.534 68.8497 436.511 68.8822 436.52C68.9137 436.526 68.9308 436.543 68.9328 436.551L76.9042 447.258C77.3953 447.916 78.2019 448.239 79.0138 448.103C79.0627 448.091 79.1125 448.083 79.1614 448.071L79.1542 448.077ZM78.713 445.988C78.713 445.988 78.7056 446.028 78.6527 446.041C78.6079 446.052 78.5887 446.026 78.5766 446.012L70.6063 435.309C70.249 434.83 69.7075 434.517 69.1176 434.448C68.5277 434.379 67.9248 434.56 67.4698 434.942L57.2564 443.517C57.2564 443.517 57.2206 443.547 57.177 443.527C57.1335 443.508 57.1316 443.482 57.1307 443.461L56.2042 430.142C56.1637 429.548 55.874 428.992 55.4154 428.611C54.9568 428.23 54.3554 428.061 53.7614 428.135L40.5346 429.818C40.5346 429.818 40.4888 429.825 40.4617 429.784C40.4355 429.747 40.4469 429.723 40.4592 429.702L46.8692 418.004C47.1564 417.482 47.2168 416.858 47.0319 416.29C46.8469 415.722 46.4357 415.252 45.899 414.994L33.8576 409.251C33.8576 409.251 33.8141 409.231 33.8154 409.183C33.8168 409.136 33.8392 409.122 33.8545 409.114L45.5673 402.744C46.0887 402.458 46.4784 401.966 46.6278 401.391C46.7813 400.814 46.6872 400.194 46.3748 399.687L39.344 388.342C39.344 388.342 39.3168 388.301 39.3415 388.261C39.3662 388.22 39.3926 388.222 39.4139 388.221L52.713 389.206C53.3061 389.252 53.8981 389.044 54.3359 388.645C54.7737 388.245 55.0308 387.669 55.0422 387.075L55.251 373.728C55.251 373.728 55.2523 373.68 55.2951 373.661C55.3379 373.642 55.3592 373.658 55.3743 373.668L66.0325 381.692C66.5076 382.051 67.1162 382.197 67.7043 382.098C68.2965 381.998 68.8172 381.656 69.1459 381.162L76.5302 370.053C76.5302 370.053 76.5549 370.012 76.6036 370.018C76.6483 370.024 76.6583 370.048 76.6673 370.067L81.3057 382.586C81.5141 383.144 81.9478 383.601 82.4908 383.832C83.0338 384.063 83.667 384.06 84.2083 383.822L96.4229 378.474C96.4229 378.474 96.4657 378.455 96.5031 378.485C96.5404 378.514 96.5341 378.542 96.5299 378.56L93.6722 391.595C93.5461 392.178 93.6646 392.792 93.9995 393.285C94.3343 393.778 94.8644 394.116 95.4511 394.207L108.618 396.32C108.618 396.32 108.663 396.326 108.678 396.37C108.689 396.415 108.672 396.436 108.658 396.448L99.2126 405.864C98.7929 406.285 98.5591 406.868 98.5731 407.461C98.5882 408.057 98.8554 408.627 99.2966 409.025L109.237 417.93C109.237 417.93 109.27 417.961 109.26 418.007C109.249 418.052 109.224 418.054 109.201 418.064L96.1679 420.869C95.5899 420.992 95.0751 421.358 94.7676 421.869C94.46 422.379 94.3733 423 94.5338 423.574L98.0884 436.442C98.0884 436.442 98.0993 436.487 98.0686 436.52C98.0338 436.555 98.0095 436.543 97.9912 436.539L85.5053 431.845C84.95 431.634 84.3238 431.665 83.7884 431.928C83.253 432.191 82.8461 432.665 82.6693 433.235L78.711 445.979L78.713 445.988Z" fill="#231F20"/>
<path d="M89.4921 460.451L96.0529 460.444C96.631 460.444 97.0998 459.973 97.0992 459.395C97.0987 458.816 96.629 458.346 96.0508 458.347L89.4901 458.353C88.824 458.354 88.2788 457.809 88.2781 457.142L88.2768 434.149C88.2763 433.57 87.8066 433.101 87.2284 433.101C86.6503 433.102 86.1815 433.572 86.1821 434.151L86.1834 457.144C86.1852 458.969 87.6697 460.452 89.4921 460.451Z" fill="#231F20"/>
<path d="M70.9205 460.466L77.4812 460.459C78.0594 460.459 78.5281 459.988 78.5276 459.41C78.527 458.831 78.0573 458.361 77.4792 458.362L70.9184 458.368C70.2523 458.369 69.7071 457.824 69.7065 457.157L69.6865 436.557C69.686 435.978 69.2163 435.509 68.6381 435.51C68.06 435.51 67.5912 435.98 67.5918 436.559L67.6117 457.159C67.6135 458.984 69.098 460.467 70.9205 460.466Z" fill="#231F20"/>
<path d="M30.0409 410.857L60.3184 410.857C61.3712 410.857 62.2246 411.711 62.2246 412.765L62.2246 457.439C62.2246 458.493 61.3712 459.347 60.3184 459.347L30.0409 459.347C28.9881 459.347 28.1346 458.493 28.1346 457.439L28.1346 412.765C28.1346 411.711 28.9881 410.857 30.0409 410.857Z" fill="white"/>
<path d="M30.0398 460.394L60.3257 460.394C61.9512 460.394 63.2793 459.068 63.2793 457.437L63.2793 412.759C63.2793 411.128 61.9554 409.802 60.3257 409.802L30.044 409.802C28.4185 409.802 27.0904 411.128 27.0904 412.759L27.0904 457.437C27.0904 459.068 28.4143 460.394 30.044 460.394L30.0398 460.394ZM60.3257 411.904C60.7991 411.904 61.1845 412.289 61.1845 412.763L61.1845 457.441C61.1845 457.915 60.7991 458.301 60.3257 458.301L30.044 458.301C29.5706 458.301 29.1851 457.915 29.1851 457.441L29.1851 412.763C29.1851 412.289 29.5706 411.904 30.044 411.904L60.3257 411.904Z" fill="#231F20"/>
<path d="M36.0762 455.158C36.6543 455.158 37.1235 454.689 37.1235 454.11L37.1235 417.44C37.1235 416.861 36.6543 416.391 36.0762 416.391C35.498 416.391 35.0288 416.861 35.0288 417.44L35.0288 454.11C35.0288 454.689 35.498 455.158 36.0762 455.158Z" fill="#231F20"/>
<path d="M53.7344 446.716L67.0444 447.593L67.0444 423.96L54.279 424.371C54.0109 424.38 53.7595 424.497 53.5836 424.699C47.9738 430.986 48.0409 440.508 53.7386 446.721L53.7344 446.716Z" fill="white"/>
<path d="M67.0444 448.64C67.3084 448.64 67.5639 448.54 67.7608 448.355C67.9703 448.158 68.0918 447.881 68.0918 447.592L68.0918 423.959C68.0918 423.674 67.9787 423.401 67.7734 423.204C67.5681 423.007 67.2958 422.898 67.0109 422.91L54.2455 423.321C53.6967 423.338 53.1688 423.585 52.8001 423.997C46.8049 430.716 46.8762 440.792 52.9635 447.428C53.1478 447.625 53.3992 447.747 53.6673 447.763L66.9774 448.64C66.9983 448.64 67.0235 448.64 67.0444 448.64ZM65.997 425.041L65.997 446.472L54.2287 445.7C49.1553 439.869 49.1804 431.228 54.3419 425.419L65.997 425.045L65.997 425.041Z" fill="#231F20"/>
<path d="M67.044 447.596C62.6293 447.596 59.0505 442.306 59.0505 435.78C59.0505 429.254 62.6293 423.963 67.044 423.963C71.4588 423.963 75.0376 429.254 75.0376 435.78C75.0376 442.306 71.4588 447.596 67.044 447.596Z" fill="white"/>
<path d="M67.044 448.642C72.0295 448.642 76.085 442.87 76.085 435.777C76.085 428.684 72.0295 422.912 67.044 422.912C62.0585 422.912 58.0031 428.684 58.0031 435.777C58.0031 442.87 62.0585 448.642 67.044 448.642ZM67.044 425.01C70.8732 425.01 73.9902 429.842 73.9902 435.777C73.9902 441.713 70.8732 446.545 67.044 446.545C63.2148 446.545 60.0978 441.713 60.0978 435.777C60.0978 429.842 63.2148 425.01 67.044 425.01Z" fill="#231F20"/>
<path d="M67.1955 443.918C64.6804 443.918 62.6415 440.274 62.6415 435.78C62.6415 431.286 64.6804 427.642 67.1955 427.642C69.7106 427.642 71.7495 431.286 71.7495 435.78C71.7495 440.274 69.7106 443.918 67.1955 443.918Z" fill="#231F20"/>
<path d="M67.1926 444.964C70.3347 444.964 72.7939 440.928 72.7939 435.777C72.7939 430.626 70.3347 426.591 67.1926 426.591C64.0505 426.591 61.5912 430.626 61.5912 435.777C61.5912 440.928 64.0505 444.964 67.1926 444.964ZM67.1926 428.693C68.8516 428.693 70.6992 431.604 70.6992 435.782C70.6992 439.96 68.8516 442.871 67.1926 442.871C65.5335 442.871 63.686 439.96 63.686 435.782C63.686 431.604 65.5335 428.693 67.1926 428.693Z" fill="#231F20"/>
<path d="M48.9682 406.849L56.5806 406.849L56.5806 410.875L48.9682 410.875L48.9682 406.849Z" fill="white"/>
<path d="M48.9682 411.922L56.5806 411.922C57.1587 411.922 57.6279 411.452 57.6279 410.873L57.6279 406.846C57.6279 406.267 57.1587 405.797 56.5806 405.797L48.9682 405.797C48.3901 405.797 47.9209 406.267 47.9209 406.846L47.9209 410.873C47.9209 411.452 48.3901 411.922 48.9682 411.922ZM55.5332 409.824L50.0156 409.824L50.0156 407.895L55.5332 407.895L55.5332 409.824Z" fill="#231F20"/>
<path d="M79.8621 419.75C80.2085 420.35 81.0745 420.35 81.4209 419.75L84.9283 413.675C85.2747 413.075 84.8417 412.325 84.1489 412.325H77.1341C76.4413 412.325 76.0083 413.075 76.3547 413.675L79.8621 419.75Z" fill="black"/>
<circle cx="71.6437" cy="403.55" r="3.15" fill="black"/>
<circle cx="88.7438" cy="403.55" r="3.15" fill="black"/>
<path d="M98.6436 421.096C98.6435 423.497 101.523 428.209 113.044 427.85" stroke="black" stroke-width="1.8" stroke-linecap="round"/>
<g filter="url(#filter0_d_4633_83984)">
<path d="M109.593 426.593C109.275 426.218 109.355 425.648 109.766 425.376L110.412 424.948C121.063 417.889 130.819 409.564 139.465 400.155C139.786 399.805 140.341 399.816 140.649 400.178L153.122 414.865C153.354 415.139 153.349 415.542 153.11 415.81C144.453 425.503 134.521 433.978 123.588 441.004L123 441.382C122.686 441.583 122.272 441.522 122.03 441.237L109.593 426.593Z" fill="black"/>
<path d="M131.734 428.5L127.71 425.461L126.357 426.607L125.315 425.375L126.389 424.465L122.364 421.427L124.223 419.852L128.109 423.008L129.111 422.16L126.746 417.715L128.424 416.294L132.419 419.358L133.427 418.504L130.947 414.157L132.806 412.582L135.135 417.057L136.216 416.142L137.259 417.374L135.901 418.524L138.229 422.999L136.262 424.666L132.297 421.576L131.307 422.414L133.702 426.834L131.734 428.5ZM129.382 424.045L130.481 424.939L130.553 424.878L129.883 423.621L129.382 424.045ZM130.518 420.968L131.001 420.559L129.967 419.755L129.895 419.817L130.518 420.968ZM133.728 420.364L134.873 421.239L134.945 421.178L134.235 419.935L133.728 420.364Z" fill="white"/>
</g>
<g filter="url(#filter1_d_4633_83984)">
<path d="M106.828 424.713C106.432 424.421 106.379 423.848 106.715 423.489L107.246 422.923C115.982 413.598 123.554 403.247 129.797 392.098C130.03 391.684 130.572 391.566 130.955 391.847L146.479 403.262C146.768 403.475 146.856 403.869 146.685 404.185C140.496 415.613 132.788 426.15 123.769 435.508L123.284 436.011C123.025 436.279 122.607 436.315 122.307 436.094L106.828 424.713Z" fill="black"/>
<path d="M128.809 421.46L124.191 419.431L123.14 420.857L121.841 419.9L122.677 418.766L118.059 416.738L119.505 414.777L124.015 416.952L124.794 415.895L121.468 412.116L122.773 410.346L127.366 412.406L128.15 411.343L124.735 407.685L126.181 405.724L129.479 409.541L130.319 408.402L131.618 409.359L130.562 410.792L133.86 414.609L132.329 416.685L127.759 414.593L126.989 415.637L130.339 419.384L128.809 421.46ZM125.492 417.668L126.767 418.284L126.823 418.207L125.881 417.139L125.492 417.668ZM125.888 414.412L126.263 413.902L125.072 413.358L125.016 413.435L125.888 414.412ZM128.872 413.084L130.188 413.671L130.244 413.595L129.266 412.549L128.872 413.084Z" fill="white"/>
</g>
<path d="M131.488 79.2051C131.18 75.6162 128.514 73.4629 123.763 73.4629C119.046 73.4629 116.62 75.5137 116.585 78.3164C116.517 81.3926 119.525 82.8965 123.968 83.8535L128.275 84.8789C137.811 86.9639 143.348 91.7148 143.382 99.6445C143.348 109.01 136.068 114.649 123.763 114.684C111.424 114.649 103.46 109.112 103.255 97.7305H114.466C114.74 102.516 118.329 104.977 123.626 104.977C128.548 104.977 131.488 102.823 131.556 99.6445C131.488 96.7734 128.958 95.2695 123.49 94.0391L118.294 92.8086C109.784 90.8262 104.554 86.5879 104.554 79.1367C104.52 69.9424 112.621 63.8242 123.832 63.8242C135.248 63.8242 142.596 70.0449 142.699 79.2051H131.488ZM158.148 114H145.57L162.386 64.5078H177.835L194.583 114H182.074L178.724 103.404H161.498L158.148 114ZM164.3 94.5176H175.921L170.316 76.7441H169.906L164.3 94.5176ZM199.847 114V64.5078H233.412V74.0098H211.468V84.4688H231.224V93.9707H211.468V114H199.847ZM239.427 114V64.5078H273.675V74.0098H251.048V84.4688L271.898 84.4688V93.9707L251.048 93.9707V104.498L273.744 104.498V114H239.427Z" fill="black"/>
<rect x="42.9956" y="184.272" width="274.011" height="143.357" rx="3.09268" transform="rotate(-5.92403 42.9956 184.272)" fill="#FEFEFE" stroke="#0E0E0F" stroke-width="1.81464"/>
<path d="M117.88 295.245L118.025 296.641L115.487 296.904C115.634 297.908 116.639 298.737 118.572 298.893L118.011 300.348C116.529 300.217 115.461 299.679 114.801 298.878C114.335 299.881 113.387 300.706 111.91 301.166L111.032 299.846C112.932 299.278 113.73 298.177 113.668 297.093L111.115 297.358L110.971 295.962L113.537 295.695L113.407 294.44L115.212 294.253L115.342 295.508L117.88 295.245ZM110.796 301.838C113.165 301.592 116.322 301.243 118.993 300.616L119.241 301.902C118.202 302.195 117.129 302.428 116.065 302.616L116.485 306.663L114.694 306.849L114.285 302.901C113.175 303.059 112.11 303.169 111.173 303.267L110.796 301.838ZM120.404 306.656L119.074 293.838L120.851 293.654L122.181 306.472L120.404 306.656ZM135.282 302.105L135.431 303.543L123.685 304.762L123.536 303.324L128.443 302.814L128.142 299.909L129.933 299.724L130.234 302.628L135.282 302.105ZM123.404 299.304C126.262 298.551 127.695 296.428 127.521 294.615L127.426 293.698L129.344 293.499L129.439 294.416C129.622 296.25 131.479 298.01 134.459 298.156L133.853 299.73C131.554 299.555 129.751 298.524 128.739 297.011C128.065 298.692 126.521 300.085 124.32 300.719L123.404 299.304Z" fill="#0E0E0F"/>
<path d="M87.8851 231.96L89.0233 242.929L88.0609 243.028L87.4643 237.279L84.8485 237.55L84.7653 236.748L87.3811 236.477L86.9227 232.06L87.8851 231.96ZM79.6575 241.007C82.4757 239.262 83.6319 237.003 83.563 234.416L79.5036 234.837L79.4217 234.048L84.4558 233.525C84.7723 236.635 83.7444 239.529 80.2687 241.729L79.6575 241.007ZM94.3267 232.501L94.7248 236.338L91.5538 236.667L91.8124 239.16C93.0765 239.022 94.262 238.849 95.656 238.462L95.8243 239.242C94.2917 239.676 93.0568 239.854 91.6748 239.997L90.9592 240.071L90.5329 235.963L93.7039 235.634L93.4734 233.413L90.2777 233.744L90.1932 232.93L94.3267 232.501ZM96.75 241.553L95.6964 231.399L96.5847 231.306L97.0098 235.403L98.6261 235.235L98.1755 230.892L99.1009 230.796L100.239 241.765L99.3137 241.861L98.7094 236.037L97.093 236.205L97.6384 241.461L96.75 241.553ZM111.203 234.691L111.283 235.456L101.239 236.498L101.16 235.733L111.203 234.691ZM102.615 237.976L102.539 237.248L110.115 236.462L110.357 238.794L103.768 239.478L103.877 240.527L110.824 239.806L110.897 240.509L102.975 241.331L102.724 238.913L109.325 238.228L109.228 237.29L102.615 237.976ZM102.009 231.542L101.936 230.838L109.413 230.063L109.649 232.333L103.171 233.005L103.271 233.967L109.946 233.275L110.019 233.978L102.382 234.771L102.14 232.439L108.605 231.768L108.512 230.867L102.009 231.542ZM123.298 228.298L123.642 231.617L125.283 231.446L125.368 232.261L123.727 232.431L124.061 235.651L123.086 235.752L122.323 228.399L123.298 228.298ZM115.332 235.422C116.208 235.331 117.232 235.225 118.303 235.083L118.219 234.275C116.93 234.29 116.042 233.79 115.954 232.876C115.844 231.877 116.81 231.153 118.352 230.993C119.907 230.832 120.983 231.344 121.099 232.342C121.18 233.25 120.439 233.919 119.181 234.175L119.261 234.946C120.28 234.79 121.308 234.596 122.255 234.355L122.415 235.049C120.077 235.716 117.457 236.006 115.525 236.2L115.332 235.422ZM115.138 230.903L115.061 230.162L117.763 229.882L117.649 228.784L118.611 228.684L118.725 229.782L121.415 229.503L121.492 230.243L115.138 230.903ZM116.931 237.726L116.85 236.948L124.117 236.194L124.435 239.254L123.46 239.355L123.223 237.073L116.931 237.726ZM116.879 232.78C116.932 233.354 117.608 233.677 118.619 233.56C119.632 233.467 120.233 233.012 120.173 232.438C120.113 231.858 119.434 231.567 118.424 231.684C117.411 231.777 116.813 232.201 116.879 232.78ZM134.747 227.097L135.425 233.637L134.451 233.738L134.152 230.863L131.944 231.092L131.861 230.29L134.069 230.061L133.772 227.198L134.747 227.097ZM126.29 233.699C127.858 232.944 128.864 231.337 128.701 229.77L128.659 229.363L126.179 229.62L126.094 228.806L132.005 228.192L132.089 229.007L129.634 229.261L129.675 229.656C129.823 231.088 131.063 232.337 132.724 232.72L132.299 233.549C131.025 233.233 129.973 232.406 129.38 231.327C129.045 232.659 128.133 233.788 126.877 234.424L126.29 233.699ZM128.356 236.777C128.216 235.488 129.538 234.59 131.821 234.36C134.097 234.117 135.576 234.725 135.71 236.014C135.844 237.31 134.52 238.195 132.245 238.444C129.961 238.668 128.484 238.073 128.356 236.777ZM129.318 236.677C129.395 237.474 130.481 237.847 132.165 237.666C133.843 237.498 134.83 236.91 134.747 236.114C134.664 235.312 133.578 234.938 131.9 235.112C130.215 235.287 129.229 235.876 129.318 236.677ZM142.248 228.239L142.33 229.029L136.827 229.6L136.745 228.81L139.028 228.573L138.865 227.006L139.828 226.907L139.991 228.474L142.248 228.239ZM137.558 232.792C137.407 231.336 138.293 230.202 139.656 230.055C141.038 229.918 142.132 230.845 142.296 232.3C142.436 233.776 141.557 234.915 140.176 235.064C138.811 235.2 137.711 234.266 137.558 232.792ZM138.421 232.702C138.523 233.677 139.218 234.309 140.087 234.213C140.964 234.128 141.533 233.364 141.432 232.39C141.332 231.427 140.618 230.791 139.74 230.869C138.872 230.972 138.322 231.74 138.421 232.702ZM143.701 236.706L142.647 226.552L143.56 226.457L144.012 230.812L145.468 230.661L144.988 226.034L145.913 225.938L147.051 236.907L146.126 237.003L145.551 231.463L144.095 231.614L144.614 236.612L143.701 236.706ZM150.517 226.321C152.134 226.16 153.436 227.527 153.691 229.858C153.921 232.198 152.927 233.797 151.31 233.959C149.682 234.134 148.387 232.772 148.151 230.433C147.902 228.102 148.889 226.496 150.517 226.321ZM149.064 230.338C149.255 232.12 150.135 233.214 151.22 233.095C152.319 232.987 152.938 231.738 152.753 229.955C152.568 228.172 151.706 227.077 150.607 227.185C149.522 227.304 148.885 228.555 149.064 230.338ZM156.157 235.963L155.019 224.994L155.981 224.894L156.268 227.658L158.045 227.473L158.131 228.3L156.354 228.484L156.608 230.927L158.384 230.743L158.469 231.557L156.692 231.742L157.12 235.863L156.157 235.963ZM165.508 225.963C165.666 227.424 166.878 228.646 168.559 229.039L168.143 229.843C166.845 229.528 165.796 228.733 165.209 227.646C164.87 228.941 163.964 230.014 162.724 230.617L162.127 229.918C163.708 229.168 164.709 227.636 164.558 226.062L164.51 225.593L162.005 225.853L161.923 225.063L167.845 224.448L167.927 225.238L165.46 225.494L165.508 225.963ZM163.806 232.151L163.724 231.361L170.905 230.616L171.297 234.392L170.334 234.491L170.024 231.506L163.806 232.151ZM169.882 230.136L169.196 223.523L170.158 223.423L170.459 226.322L172.113 226.151L172.198 226.977L170.545 227.149L170.845 230.036L169.882 230.136ZM180.992 222.299L181.455 226.765L183.232 226.581L183.316 227.395L181.54 227.579L182.13 233.268L181.167 233.367L180.029 222.398L180.992 222.299ZM173.419 231.29C176.105 229.59 177.428 227.314 177.38 224.694L173.29 225.118L173.206 224.304L178.277 223.778C178.593 226.881 177.43 229.864 174.042 231.999L173.419 231.29ZM192.824 221.071L193.963 232.04L193.025 232.137L191.887 221.168L192.824 221.071ZM184.05 226.77C183.814 224.438 184.586 222.867 186.011 222.713C187.344 222.581 188.378 223.771 188.716 225.825L190.135 225.677L189.715 221.63L190.64 221.534L191.696 231.714L190.771 231.81L190.218 226.479L188.805 226.626C188.934 228.77 188.154 230.204 186.802 230.338C185.378 230.492 184.298 229.102 184.05 226.77ZM184.963 226.676C185.135 228.454 185.819 229.517 186.706 229.413C187.602 229.332 188.053 228.151 187.862 226.375C187.684 224.591 187 223.533 186.106 223.626C185.217 223.718 184.765 224.894 184.963 226.676ZM203.732 219.939L204.87 230.908L203.944 231.004L202.806 220.035L203.732 219.939ZM195.174 228.809C197.408 227.149 198.4 225.044 198.347 222.73L195.052 223.072L194.969 222.27L199.226 221.828C199.338 222.908 199.273 223.968 198.998 224.982L200.966 224.778L200.53 220.571L201.455 220.475L202.505 230.592L201.579 230.688L201.048 225.568L198.722 225.809C198.195 227.155 197.251 228.394 195.814 229.453L195.174 228.809ZM214.042 219.904C214.209 221.452 216.358 222.576 218.367 222.648L218.054 223.479C216.322 223.372 214.534 222.603 213.691 221.331C213.129 222.761 211.541 223.868 209.862 224.329L209.385 223.58C211.336 223.097 213.206 221.581 213.042 220.008L212.977 219.379L213.977 219.275L214.042 219.904ZM209.159 226.447L209.074 225.633L219.068 224.596L219.153 225.41L214.612 225.881L215.024 229.854L214.074 229.953L213.662 225.98L209.159 226.447ZM229.147 224.498L229.547 228.347L228.584 228.447L228.269 225.412L221.853 226.078L221.769 225.263L229.147 224.498ZM219.948 221.536C219.784 220.013 220.889 218.826 222.555 218.659C224.22 218.48 225.533 219.416 225.698 220.94C225.852 222.483 224.758 223.662 223.093 223.841C221.427 224.008 220.102 223.079 219.948 221.536ZM220.898 221.438C220.995 222.494 221.878 223.132 223.006 223.002C224.124 222.899 224.857 222.093 224.748 221.038C224.641 220.008 223.758 219.376 222.641 219.486C221.513 219.609 220.779 220.409 220.898 221.438ZM228.124 224.005L227.446 217.478L228.409 217.378L229.086 223.905L228.124 224.005ZM239.316 216.247L240.457 227.24L239.482 227.341L238.341 216.348L239.316 216.247ZM231.164 221.819C230.928 219.486 231.934 217.879 233.568 217.704C235.197 217.541 236.53 218.905 236.766 221.238C237.015 223.575 235.99 225.178 234.361 225.341C232.726 225.517 231.413 224.157 231.164 221.819ZM232.102 221.722C232.287 223.505 233.174 224.598 234.271 224.477C235.376 224.369 236.013 223.118 235.828 221.335C235.643 219.552 234.763 218.459 233.658 218.567C232.56 218.687 231.917 219.939 232.102 221.722ZM253.457 214.792L254.292 222.836L253.317 222.938L252.881 218.73L250.623 218.964L250.539 218.162L252.797 217.928L252.482 214.893L253.457 214.792ZM245.02 221.579C246.577 220.843 247.599 219.272 247.436 217.699L247.377 217.131L244.897 217.389L244.814 216.587L250.724 215.973L250.807 216.775L248.352 217.03L248.411 217.598C248.558 219.017 249.799 220.278 251.46 220.661L251.034 221.491C249.754 221.168 248.702 220.348 248.109 219.263C247.766 220.583 246.859 221.693 245.608 222.316L245.02 221.579ZM247.524 226.245L247.171 222.84L248.146 222.738L248.415 225.329L254.794 224.668L254.878 225.482L247.524 226.245ZM260.728 214.673L260.81 215.463L256.886 215.87L257.186 218.757C259.34 218.546 260.628 218.332 262.095 217.874L262.299 218.638C260.761 219.135 259.428 219.335 257.169 219.557L256.318 219.646L255.854 215.179L260.728 214.673ZM257.574 221.299L257.492 220.509L264.488 219.783L264.769 222.485L258.748 223.11L258.877 224.356L265.305 223.689L265.387 224.479L258.009 225.244L257.718 222.444L263.727 221.82L263.608 220.673L257.574 221.299ZM263.47 219.34L262.895 213.8L263.857 213.7L264.099 216.032L265.753 215.861L265.836 216.663L264.182 216.834L264.432 219.24L263.47 219.34ZM266.872 221.244C267.576 221.171 268.457 221.074 269.373 220.947L269.145 218.751L267.233 218.949L266.775 214.532L271.439 214.048L271.522 214.85L267.808 215.236L268.1 218.049L271.912 217.653L271.996 218.455L270.083 218.654L270.308 220.819C271.112 220.698 271.908 220.553 272.597 220.401L272.719 221.099C270.937 221.596 268.592 221.895 267.105 222.043L266.872 221.244ZM273.399 223.211L272.347 213.069L273.248 212.975L273.697 217.306L275.067 217.164L274.592 212.586L275.53 212.489L276.668 223.458L275.73 223.555L275.149 217.954L273.779 218.096L274.3 223.117L273.399 223.211ZM288.072 220.03L288.157 220.844L278.113 221.886L278.029 221.072L280.521 220.813L280.215 217.858C279.226 217.468 278.577 216.737 278.473 215.738C278.297 214.041 279.847 212.752 282.19 212.496C284.536 212.265 286.317 213.209 286.493 214.906C286.595 215.887 286.127 216.721 285.27 217.302L285.58 220.288L288.072 220.03ZM279.411 215.641C279.532 216.869 280.894 217.557 282.696 217.37C284.479 217.185 285.683 216.231 285.555 215.003C285.428 213.775 284.055 213.101 282.273 213.298C280.47 213.473 279.277 214.413 279.411 215.641ZM281.471 220.715L284.605 220.389L284.335 217.78C283.872 217.952 283.349 218.075 282.775 218.135C282.214 218.193 281.683 218.186 281.201 218.111L281.471 220.715ZM290.243 221.114C289.81 221.153 289.403 220.833 289.37 220.394C289.313 219.963 289.646 219.567 290.078 219.522C290.516 219.477 290.911 219.798 290.949 220.23C291.001 220.667 290.68 221.062 290.243 221.114ZM106.122 248.164L107.26 259.133L106.298 259.233L105.701 253.483L103.086 253.754L103.002 252.952L105.618 252.681L105.16 248.264L106.122 248.164ZM97.8946 257.211C100.713 255.466 101.869 253.207 101.8 250.62L97.7408 251.042L97.6589 250.252L102.693 249.729C103.009 252.839 101.982 255.733 98.5059 257.934L97.8946 257.211ZM112.564 248.705L112.962 252.543L109.791 252.872L110.05 255.364C111.314 255.227 112.499 255.054 113.893 254.666L114.061 255.447C112.529 255.88 111.294 256.058 109.912 256.201L109.196 256.276L108.77 252.167L111.941 251.838L111.711 249.617L108.515 249.949L108.43 249.134L112.564 248.705ZM114.987 257.757L113.934 247.603L114.822 247.511L115.247 251.607L116.863 251.439L116.413 247.096L117.338 247L118.476 257.969L117.551 258.065L116.947 252.241L115.33 252.409L115.876 257.665L114.987 257.757ZM130.616 245.635L130.96 248.954L132.601 248.784L132.685 249.598L131.044 249.768L131.379 252.989L130.404 253.09L129.641 245.736L130.616 245.635ZM122.65 252.759C123.526 252.669 124.55 252.562 125.62 252.42L125.536 251.612C124.247 251.627 123.36 251.127 123.271 250.213C123.161 249.214 124.127 248.491 125.67 248.331C127.224 248.169 128.3 248.681 128.416 249.679C128.498 250.588 127.757 251.257 126.499 251.512L126.579 252.283C127.598 252.128 128.625 251.934 129.573 251.692L129.732 252.386C127.394 253.053 124.774 253.343 122.843 253.538L122.65 252.759ZM122.455 248.24L122.378 247.5L125.081 247.219L124.967 246.121L125.929 246.021L126.043 247.12L128.733 246.84L128.81 247.581L122.455 248.24ZM124.248 255.063L124.168 254.286L131.435 253.532L131.752 256.592L130.778 256.693L130.541 254.41L124.248 255.063ZM124.196 250.117C124.25 250.692 124.926 251.014 125.936 250.897C126.949 250.804 127.55 250.349 127.491 249.775C127.431 249.195 126.752 248.904 125.741 249.022C124.728 249.114 124.13 249.538 124.196 250.117ZM142.064 244.434L142.743 250.974L141.768 251.075L141.47 248.2L139.261 248.429L139.178 247.627L141.387 247.398L141.09 244.536L142.064 244.434ZM133.608 251.036C135.176 250.281 136.181 248.674 136.019 247.107L135.977 246.7L133.496 246.957L133.412 246.143L139.322 245.53L139.407 246.344L136.951 246.599L136.992 246.994C137.141 248.425 138.38 249.674 140.041 250.057L139.616 250.887C138.342 250.57 137.29 249.744 136.698 248.664C136.362 249.996 135.451 251.126 134.195 251.761L133.608 251.036ZM135.673 254.114C135.533 252.826 136.856 251.928 139.139 251.697C141.415 251.455 142.893 252.062 143.027 253.351C143.162 254.647 141.838 255.533 139.563 255.781C137.279 256.006 135.802 255.411 135.673 254.114ZM136.636 254.015C136.712 254.811 137.799 255.185 139.482 255.004C141.161 254.836 142.147 254.247 142.065 253.451C141.981 252.649 140.895 252.276 139.217 252.45C137.533 252.624 136.546 253.213 136.636 254.015ZM156.106 242.977L157.246 253.971L156.272 254.072L155.131 243.079L156.106 242.977ZM147.954 248.55C147.718 246.217 148.724 244.61 150.358 244.434C151.987 244.272 153.32 245.636 153.556 247.969C153.804 250.306 152.78 251.909 151.15 252.072C149.516 252.248 148.203 250.887 147.954 248.55ZM148.892 248.453C149.077 250.236 149.963 251.328 151.061 251.208C152.166 251.1 152.803 249.849 152.618 248.066C152.433 246.283 151.552 245.19 150.448 245.298C149.35 245.418 148.707 246.67 148.892 248.453ZM167.526 243.065L167.609 243.867L158.713 244.79L158.63 243.988L162.628 243.573L162.491 242.253L163.441 242.154L163.578 243.474L167.526 243.065ZM158.802 250.692L158.719 249.89L168.762 248.848L168.845 249.65L164.268 250.125L164.588 253.209L163.638 253.308L163.318 250.223L158.802 250.692ZM159.87 247.164C159.735 245.981 161.012 245.187 163.257 244.954C165.484 244.723 166.897 245.237 167.026 246.421C167.14 247.582 165.863 248.375 163.638 248.619C161.391 248.839 159.978 248.325 159.87 247.164ZM160.869 247.06C160.927 247.74 161.925 248.042 163.56 247.866C165.176 247.704 166.085 247.205 166.027 246.525C165.943 245.835 164.951 245.533 163.334 245.694C161.7 245.87 160.785 246.37 160.869 247.06ZM178.303 240.674L179.441 251.643L178.503 251.74L177.365 240.772L178.303 240.674ZM169.528 246.374C169.292 244.041 170.065 242.471 171.489 242.317C172.822 242.184 173.856 243.374 174.194 245.428L175.613 245.281L175.193 241.234L176.118 241.138L177.175 251.317L176.249 251.413L175.696 246.083L174.283 246.229C174.412 248.374 173.632 249.808 172.28 249.942C170.856 250.096 169.776 248.705 169.528 246.374ZM170.441 246.279C170.613 248.057 171.297 249.121 172.184 249.016C173.08 248.936 173.531 247.754 173.341 245.978C173.162 244.195 172.478 243.137 171.584 243.23C170.696 243.322 170.244 244.497 170.441 246.279ZM189.037 242.928L189.118 243.705L181.604 244.485L181.22 240.783L182.182 240.683L182.486 243.607L189.037 242.928ZM180.471 246.909L180.389 246.12L190.433 245.078L190.515 245.867L180.471 246.909ZM182.226 251.08L181.896 247.896L182.858 247.797L183.105 250.178L189.78 249.485L189.863 250.287L182.226 251.08ZM202.474 238.166L202.873 242.016L204.514 241.845L204.599 242.66L202.958 242.83L203.365 246.754L202.39 246.855L201.499 238.267L202.474 238.166ZM194.539 245.587C195.409 245.497 196.438 245.377 197.507 245.229L197.42 244.39C196.131 244.405 195.241 243.88 195.151 242.954C195.036 241.9 195.999 241.151 197.542 240.998C199.096 240.83 200.175 241.367 200.296 242.42C200.379 243.341 199.641 244.035 198.383 244.29L198.465 245.086C199.483 244.918 200.516 244.717 201.457 244.47L201.615 245.152C199.311 245.84 196.649 246.147 194.732 246.365L194.539 245.587ZM194.321 240.845L194.246 240.117L196.948 239.837L196.833 238.727L197.795 238.627L197.91 239.737L200.6 239.458L200.676 240.186L194.321 240.845ZM196.616 249.624L196.334 246.897L197.308 246.796L197.507 248.709L203.898 248.045L203.983 248.86L196.616 249.624ZM196.077 242.858C196.132 243.457 196.808 243.78 197.82 243.675C198.832 243.57 199.433 243.115 199.371 242.516C199.306 241.893 198.625 241.577 197.614 241.688C196.601 241.787 196.006 242.236 196.077 242.858ZM207.145 237.869L207.254 238.917L212.683 238.354L212.574 237.305L213.536 237.205L213.91 240.808L206.556 241.571L206.182 237.968L207.145 237.869ZM205.402 243.425L205.318 242.623L215.313 241.586L215.396 242.388L210.868 242.857L210.979 243.931L214.224 243.594L214.476 246.025L207.961 246.701L208.073 247.774L214.921 247.064L215 247.829L207.19 248.639L206.925 246.085L213.452 245.408L213.351 244.433L206.799 245.113L206.722 244.373L210.017 244.031L209.905 242.957L205.402 243.425ZM207.44 240.719L212.869 240.155L212.759 239.094L207.33 239.658L207.44 240.719ZM224.794 235.85L225.935 246.844L224.96 246.945L223.82 235.951L224.794 235.85ZM216.643 241.423C216.407 239.09 217.412 237.483 219.047 237.307C220.676 237.144 222.008 238.509 222.244 240.841C222.493 243.179 221.468 244.782 219.839 244.945C218.205 245.12 216.891 243.76 216.643 241.423ZM217.58 241.325C217.765 243.108 218.652 244.201 219.749 244.081C220.854 243.972 221.492 242.722 221.307 240.939C221.122 239.156 220.241 238.062 219.136 238.171C218.039 238.291 217.395 239.542 217.58 241.325ZM232.878 235.872C234.372 235.723 235.584 236.894 235.946 238.933L238.407 238.678L237.972 234.483L238.934 234.383L240.075 245.376L239.113 245.476L238.49 239.48L236.041 239.734C236.16 241.898 235.201 243.357 233.671 243.509C232.049 243.684 230.76 242.321 230.523 239.982C230.275 237.651 231.256 236.046 232.878 235.872ZM231.449 239.886C231.64 241.669 232.502 242.764 233.581 242.646C234.655 242.54 235.286 241.29 235.101 239.507C234.916 237.724 234.042 236.63 232.968 236.735C231.889 236.854 231.27 238.103 231.449 239.886ZM249.842 233.251L250.982 244.245L250.02 244.345L249.535 239.668L247.252 239.905L247.168 239.091L249.45 238.854L249.224 236.67L247.027 236.898L246.943 236.084L249.139 235.856L248.879 233.351L249.842 233.251ZM241.33 235.955L241.247 235.153L246.071 234.653L246.476 238.551L242.651 238.948L242.931 241.651C244.578 241.48 245.935 241.276 247.574 240.844L247.745 241.65C246.021 242.103 244.621 242.311 242.869 242.493L242.054 242.577L241.606 238.259L245.443 237.86L245.204 235.553L241.33 235.955ZM260.762 232.13L261.901 243.099L260.913 243.202L260.631 240.475L258.101 240.737L258.024 239.997L260.554 239.735L259.775 232.233L260.762 232.13ZM252.231 238.852C254.322 238.629 257.103 238.334 259.486 237.738L259.623 238.459C258.557 238.757 257.439 238.979 256.354 239.16L256.781 243.281L255.807 243.382L255.384 239.311C254.339 239.457 253.335 239.573 252.453 239.665L252.231 238.852ZM252.751 235.693C252.611 234.404 253.656 233.416 255.303 233.246C256.932 233.077 258.164 233.828 258.291 235.118C258.433 236.419 257.378 237.377 255.75 237.552C254.102 237.716 252.88 236.995 252.751 235.693ZM253.664 235.598C253.745 236.432 254.568 236.92 255.672 236.799C256.752 236.693 257.458 236.046 257.378 235.213C257.286 234.387 256.462 233.892 255.381 233.998C254.278 234.119 253.572 234.772 253.664 235.598ZM273.551 239.633L273.635 240.447L263.592 241.49L263.507 240.675L266 240.417L265.693 237.462C264.705 237.071 264.055 236.341 263.952 235.341C263.775 233.645 265.325 232.355 267.668 232.1C270.014 231.869 271.796 232.813 271.972 234.509C272.073 235.49 271.605 236.324 270.749 236.906L271.058 239.892L273.551 239.633ZM264.889 235.244C265.01 236.472 266.373 237.16 268.174 236.973C269.957 236.788 271.161 235.834 271.034 234.606C270.906 233.379 269.533 232.704 267.752 232.902C265.949 233.076 264.756 234.017 264.889 235.244ZM266.95 240.318L270.084 239.993L269.813 237.383C269.351 237.556 268.827 237.679 268.253 237.738C267.692 237.797 267.161 237.789 266.68 237.715L266.95 240.318ZM275.721 240.717C275.289 240.756 274.881 240.437 274.848 239.997C274.791 239.567 275.124 239.171 275.556 239.126C275.994 239.08 276.389 239.401 276.428 239.833C276.479 240.271 276.159 240.666 275.721 240.717Z" fill="#667886"/>
<path d="M82.0347 202.666L82.1697 203.967L79.2269 204.272C79.4373 205.14 80.7337 205.735 82.6763 205.758L82.2226 207.104C80.5013 207.05 79.2131 206.534 78.5023 205.71C77.9807 206.71 76.807 207.53 75.0971 207.972L74.3784 206.764C76.3121 206.314 77.4425 205.387 77.4661 204.455L74.5392 204.759L74.4042 203.458L77.339 203.153L77.2238 202.043L78.9688 201.862L79.084 202.972L82.0347 202.666ZM74.2718 208.827C75.3585 208.714 76.5951 208.578 77.8847 208.412L77.7489 207.103L79.4939 206.922L79.6239 208.175C80.8071 207.989 81.9799 207.779 83.0685 207.529L83.3205 208.722C80.3954 209.506 77.107 209.88 74.6005 210.14L74.2718 208.827ZM76.4375 212.082L76.3042 210.797L85.8859 209.803L86.2382 213.197L78.4491 214.006L78.5495 214.973L86.8463 214.113L86.9829 215.429L76.9252 216.473L76.5631 212.983L84.3522 212.175L84.2584 211.27L76.4375 212.082ZM84.0674 209.43L83.2395 201.451L85.0003 201.268L85.3312 204.457L87.2666 204.256L87.4164 205.699L85.481 205.9L85.8283 209.247L84.0674 209.43ZM91.7471 201.386C92.9043 201.257 93.9561 201.581 94.7052 202.233L98.1318 201.878L97.9294 199.926L99.6902 199.744L100.566 208.183L98.8051 208.366L98.6158 206.542L95.1813 206.898C94.5724 207.675 93.6174 208.207 92.4664 208.318C90.3019 208.551 88.5252 207.268 88.3161 205.253C88.1054 203.223 89.5809 201.602 91.7471 201.386ZM89.9977 205.079C90.1195 206.253 91.0823 206.954 92.3117 206.827C93.5015 206.703 94.2996 205.819 94.1858 204.644C94.0519 203.431 93.0933 202.769 91.9035 202.893C90.674 203.02 89.8718 203.865 89.9977 205.079ZM91.1624 212.286C90.963 210.519 92.7359 209.292 95.7429 208.988C98.7562 208.668 100.743 209.504 100.935 211.272C101.109 213.033 99.3365 214.26 96.3223 214.572C93.3161 214.884 91.3293 214.048 91.1624 212.286ZM92.8916 212.106C92.9704 213.02 94.1874 213.391 96.1791 213.192C98.2089 212.974 99.3 212.363 99.2054 211.451C99.1083 210.515 97.9142 210.134 95.8828 210.337C93.8927 210.551 92.7786 211.172 92.8916 212.106ZM95.6449 203.563C95.7547 203.848 95.8336 204.144 95.8673 204.47C95.9002 204.787 95.8839 205.093 95.8422 205.386L98.4676 205.114L98.2783 203.289L95.6449 203.563ZM109.887 200.193L109.992 201.208C110.125 202.485 110.312 204.294 110.172 206.802L108.412 206.84C108.535 204.63 108.408 203.016 108.288 201.786L102.657 202.37L102.51 200.958L109.887 200.193ZM102.623 209.461C103.471 209.365 104.414 209.259 105.395 209.133L104.949 204.842L106.695 204.661L107.134 208.897C108.587 208.682 110.075 208.423 111.43 208.114L111.662 209.421C108.754 210.212 105.476 210.608 102.944 210.855L102.623 209.461ZM112.68 212.891L111.192 198.55L112.968 198.366L113.574 204.204L115.652 203.988L115.807 205.479L113.729 205.695L114.456 212.707L112.68 212.891ZM125.096 200.587C125.346 203.151 126.9 205.603 129.232 206.443L128.3 207.967C126.663 207.343 125.388 205.944 124.588 204.183C124.164 206.2 123.158 207.94 121.601 208.935L120.376 207.635C122.571 206.301 123.603 203.42 123.336 200.77L123.099 198.485L124.859 198.302L125.096 200.587ZM130.574 211.034L129.086 196.693L130.847 196.511L131.43 202.126L133.635 201.898L133.791 203.405L131.586 203.634L132.335 210.852L130.574 211.034ZM139.399 198.574C139.584 200.358 140.987 201.977 143.344 202.446L142.583 203.919C140.903 203.565 139.609 202.609 138.809 201.313C138.321 202.863 137.222 204.171 135.585 204.934L134.536 203.632C136.765 202.631 137.802 200.647 137.622 198.758L137.579 198.346L134.486 198.667L134.339 197.255L142.224 196.437L142.37 197.848L139.356 198.161L139.399 198.574ZM137.572 210.02L137.096 205.435L138.873 205.251L139.201 208.407L147.307 207.566L147.455 208.994L137.572 210.02ZM144.905 205.587L143.825 195.18L145.602 194.996L146.682 205.402L144.905 205.587ZM163.56 193.132L164.646 203.602L162.885 203.785L162.34 198.534L159.802 198.798L159.654 197.37L162.192 197.106L161.799 193.315L163.56 193.132ZM152.284 201.758C154.491 200.768 155.518 198.769 155.32 196.858L155.28 196.477L152.298 196.786L152.15 195.359L159.891 194.555L160.039 195.983L157.073 196.291L157.114 196.687C157.292 198.409 158.636 200.073 160.932 200.572L160.19 202.076C158.531 201.695 157.284 200.719 156.516 199.427C156.046 200.999 154.973 202.329 153.337 203.092L152.284 201.758ZM155.609 208.148L155.143 203.658L156.904 203.476L157.222 206.537L165.233 205.706L165.381 207.134L155.609 208.148ZM172.649 192.959L172.796 194.371L168.116 194.856L168.447 198.045C171.055 197.758 172.607 197.493 174.346 196.952L174.678 198.296C172.796 198.932 171.058 199.177 168.003 199.486L166.845 199.606L166.224 193.625L172.649 192.959ZM168.479 201.906L168.332 200.494L177.708 199.521L178.103 203.329L170.488 204.119L170.607 205.261L178.665 204.425L178.814 205.852L169.01 206.87L168.605 202.967L176.204 202.179L176.093 201.116L168.479 201.906ZM175.883 199.085L175.139 191.915L176.899 191.732L177.192 194.556L179.191 194.348L179.341 195.792L177.342 195.999L177.644 198.903L175.883 199.085ZM191.558 190.211L193.047 204.568L191.271 204.752L189.781 190.395L191.558 190.211ZM180.722 197.509C180.393 194.416 181.767 192.285 183.941 192.06C186.09 191.837 187.881 193.639 188.21 196.732C188.525 199.85 187.142 201.974 184.992 202.197C182.819 202.422 181.037 200.627 180.722 197.509ZM182.419 197.333C182.648 199.538 183.613 200.728 184.828 200.61C186.033 200.477 186.725 199.115 186.496 196.91C186.269 194.72 185.311 193.521 184.105 193.646C182.892 193.772 182.192 195.143 182.419 197.333ZM201.917 189.761C204.012 189.544 205.624 190.555 205.818 192.275C205.95 193.704 204.991 194.886 203.427 195.345L203.547 196.503C204.737 196.308 205.924 196.08 207.018 195.806L207.294 197.077C204.367 197.917 201.042 198.327 198.614 198.57L198.278 197.178C199.309 197.071 200.514 196.938 201.779 196.767L201.651 195.538C199.98 195.43 198.775 194.473 198.632 193.021C198.445 191.3 199.816 189.98 201.917 189.761ZM200.915 203.431L200.495 199.386L202.256 199.203L202.527 201.82L210.697 200.973L210.845 202.4L200.915 203.431ZM200.282 192.85C200.364 193.795 201.234 194.298 202.377 194.187C203.526 194.06 204.242 193.393 204.152 192.448C204.044 191.481 203.208 190.991 202.057 191.11C200.915 191.228 200.165 191.883 200.282 192.85ZM208.258 199.558L207.122 188.612L208.883 188.429L209.363 193.062L211.299 192.861L211.45 194.32L209.515 194.521L210.018 199.375L208.258 199.558ZM225.829 197.991L225.981 199.451L212.877 200.811L212.726 199.351L216.2 198.991L215.955 196.627L214.035 196.826L213.55 192.146L221.799 191.29L221.616 189.529L213.335 190.389L213.187 188.961L223.213 187.921L223.69 192.521L215.457 193.375L215.648 195.216L224.214 194.327L224.362 195.754L222.268 195.972L222.514 198.335L225.829 197.991ZM217.913 198.813L220.785 198.515L220.539 196.151L217.668 196.449L217.913 198.813ZM234.753 191.742L234.902 193.17L231.999 193.471L232.258 195.969C233.506 195.792 234.75 195.575 235.927 195.324L236.205 196.61C233.096 197.406 229.776 197.782 227.072 198.071L226.699 196.634C227.881 196.52 229.173 196.378 230.503 196.216L230.238 193.654L227.43 193.945L226.801 187.885L234.209 187.116L234.354 188.512L228.691 189.1L229.027 192.336L234.753 191.742ZM237.276 199.979L235.786 185.622L237.547 185.439L239.037 199.796L237.276 199.979ZM245.856 193.973C245.967 195.188 246.644 196.385 247.965 197.065C249.121 196.072 249.539 194.689 249.442 193.601L249.373 192.935L251.102 192.755L251.171 193.422C251.318 194.922 252.348 196.266 254.33 196.67L253.578 198.078C252.131 197.732 251.124 196.906 250.512 195.799C250.153 196.983 249.41 198.086 248.148 198.754C246.764 198.393 245.807 197.514 245.228 196.412C244.826 197.568 244.017 198.574 242.743 199.203L241.75 197.975C243.54 197.148 244.283 195.572 244.143 194.151L244.074 193.485L245.787 193.307L245.856 193.973ZM240.264 189.374C240.058 187.391 241.528 185.796 243.702 185.57C245.534 185.38 247.121 186.306 247.651 187.854L250.245 187.585L249.889 184.158L251.65 183.976L252.489 192.066L250.728 192.249L250.393 189.013L247.815 189.28C247.651 190.949 246.274 192.206 244.41 192.392C242.237 192.625 240.472 191.373 240.264 189.374ZM241.962 189.198C242.075 190.365 243.044 191.05 244.258 190.932C245.439 190.801 246.239 189.933 246.118 188.767C245.995 187.585 245.037 186.923 243.855 187.045C242.641 187.171 241.831 188.017 241.962 189.198ZM267.612 187.915L267.762 189.359L265.636 189.58L266.397 196.909L264.636 197.091L263.151 182.782L264.912 182.6L265.486 188.136L267.612 187.915ZM255.306 194.484L254.333 185.108L256.078 184.927L256.899 192.843C258.808 192.613 260.821 192.236 262.939 191.559L263.284 193.031C260.915 193.765 258.636 194.13 256.511 194.359L255.306 194.484ZM281.981 192.101L282.13 193.544L269.027 194.904L268.877 193.46L271.907 193.146L271.531 189.521C270.32 188.981 269.523 188.022 269.4 186.752C269.155 184.468 271.235 182.729 274.321 182.409C277.422 182.087 279.831 183.36 280.06 185.646C280.198 186.898 279.628 187.975 278.586 188.749L278.966 192.414L281.981 192.101ZM271.129 186.572C271.273 188.041 272.822 188.826 274.963 188.596C277.097 188.382 278.483 187.293 278.331 185.825C278.176 184.334 276.598 183.576 274.465 183.805C272.323 184.019 270.966 185.082 271.129 186.572ZM273.652 192.965L277.174 192.6L276.864 189.609C276.329 189.785 275.74 189.91 275.106 189.976C274.487 190.04 273.894 190.038 273.343 189.983L273.652 192.965ZM285.163 190.007C284.969 187.983 285.476 187.305 286.412 186.59C287.041 186.084 287.509 185.498 287.419 184.706C287.334 183.817 286.577 183.318 285.713 183.408C284.927 183.489 284.219 184.076 284.273 185.144L282.29 185.35C282.124 183.211 283.598 181.959 285.557 181.756C287.699 181.534 289.29 182.571 289.494 184.458C289.62 185.752 289.065 186.66 288.097 187.377C287.235 188.036 286.911 188.623 287.019 189.814L287.034 189.957L285.177 190.15L285.163 190.007ZM285.159 192.444C285.082 191.779 285.588 191.173 286.27 191.095C286.929 191.034 287.549 191.523 287.618 192.189C287.689 192.871 287.183 193.485 286.525 193.553C285.843 193.624 285.222 193.127 285.159 192.444Z" fill="#0E0E0F"/>
<path d="M55.106 287.702L327.027 257.877" stroke="#94A9B8" stroke-width="1.81464"/>
<path d="M190.754 272.019L327.028 257.879L330.868 294.88C331.126 297.373 329.316 299.602 326.823 299.861L195.062 313.533L190.754 272.019Z" fill="#0E0E0F"/>
<path d="M245.699 280.697L246.079 284.364L247.715 284.194L247.869 285.675L246.233 285.844L246.603 289.412L244.798 289.599L243.894 280.885L245.699 280.697ZM236.025 288.842C236.963 288.745 238.028 288.634 239.139 288.49L239.064 287.771C237.647 287.719 236.709 287.125 236.615 286.144C236.484 284.953 237.656 284.09 239.56 283.9C241.449 283.697 242.773 284.301 242.904 285.491C242.998 286.472 242.208 287.238 240.854 287.578L240.923 288.241C241.975 288.075 243.024 287.888 243.998 287.658L244.254 288.886C241.589 289.647 238.617 289.984 236.353 290.219L236.025 288.842ZM235.863 283.984L235.727 282.673L238.505 282.385L238.397 281.341L240.188 281.155L240.296 282.199L243.074 281.911L243.21 283.222L235.863 283.984ZM238.03 292.226L237.886 290.844L246.657 289.934L247.029 293.515L245.224 293.703L244.996 291.503L238.03 292.226ZM238.335 285.966C238.376 286.432 238.919 286.653 239.835 286.551C240.738 286.464 241.225 286.136 241.183 285.67C241.124 285.17 240.587 285.005 239.685 285.099C238.768 285.194 238.276 285.466 238.335 285.966ZM258.727 279.331L259.517 286.946L257.726 287.132L257.411 284.1L255.409 284.308L255.258 282.855L257.261 282.648L256.936 279.517L258.727 279.331ZM248.47 286.667C250.498 285.744 251.283 283.966 251.159 282.354L248.578 282.622L248.429 281.184L255.395 280.461L255.544 281.899L252.992 282.164C253.182 283.655 254.255 285.069 256.319 285.525L255.577 287.027C254.12 286.715 253.043 285.886 252.367 284.795C251.938 286.157 251.018 287.315 249.549 287.995L248.47 286.667ZM251.005 290.623C250.843 289.065 252.426 287.974 255.161 287.683C257.904 287.406 259.677 288.148 259.846 289.705C260.001 291.264 258.417 292.348 255.674 292.633C252.939 292.916 251.166 292.181 251.005 290.623ZM252.795 290.437C252.871 291.17 253.833 291.441 255.532 291.265C257.239 291.088 258.124 290.625 258.055 289.891C257.971 289.152 257.01 288.881 255.304 289.065C253.604 289.234 252.719 289.697 252.795 290.437ZM270.515 278.108L271.036 283.128L272.926 282.932L273.079 284.413L271.19 284.609L271.847 290.94L270.07 291.125L268.739 278.293L270.515 278.108ZM260.668 282.522L260.519 281.084L263.424 280.782L263.246 279.062L265.051 278.875L265.229 280.595L268.063 280.301L268.213 281.739L260.668 282.522ZM261.582 286.247C261.389 284.457 262.653 283.036 264.55 282.846C266.418 282.645 267.954 283.776 268.139 285.567C268.325 287.358 267.053 288.765 265.185 288.966C263.288 289.156 261.761 288.039 261.582 286.247ZM263.303 286.069C263.406 287.063 264.123 287.587 265.032 287.486C265.928 287.4 266.522 286.739 266.419 285.745C266.317 284.758 265.598 284.22 264.701 284.299C263.793 284.407 263.2 285.082 263.303 286.069ZM283.658 276.744L284.989 289.577L283.17 289.765L281.839 276.933L283.658 276.744ZM273.867 287.053C277.018 285.144 278.267 282.962 278.26 280.084L273.889 280.537L273.743 279.127L279.947 278.484C280.344 282.376 279.319 285.754 274.961 288.394L273.867 287.053Z" fill="white"/>
<defs>
<filter id="filter0_d_4633_83984" x="106.158" y="396.119" width="50.375" height="48.0806" filterUnits="userSpaceOnUse" color-interpolation-filters="sRGB">
<feFlood flood-opacity="0" result="BackgroundImageFix"/>
<feColorMatrix in="SourceAlpha" type="matrix" values="0 0 0 0 0 0 0 0 0 0 0 0 0 0 0 0 0 0 127 0" result="hardAlpha"/>
<feOffset dy="-0.54"/>
<feGaussianBlur stdDeviation="1.62"/>
<feComposite in2="hardAlpha" operator="out"/>
<feColorMatrix type="matrix" values="0 0 0 0 0 0 0 0 0 0 0 0 0 0 0 0 0 0 0.2 0"/>
<feBlend mode="normal" in2="BackgroundImageFix" result="effect1_dropShadow_4633_83984"/>
<feBlend mode="normal" in="SourceGraphic" in2="effect1_dropShadow_4633_83984" result="shape"/>
</filter>
<filter id="filter1_d_4633_83984" x="103.253" y="387.914" width="46.7593" height="51.0247" filterUnits="userSpaceOnUse" color-interpolation-filters="sRGB">
<feFlood flood-opacity="0" result="BackgroundImageFix"/>
<feColorMatrix in="SourceAlpha" type="matrix" values="0 0 0 0 0 0 0 0 0 0 0 0 0 0 0 0 0 0 127 0" result="hardAlpha"/>
<feOffset dy="-0.54"/>
<feGaussianBlur stdDeviation="1.62"/>
<feComposite in2="hardAlpha" operator="out"/>
<feColorMatrix type="matrix" values="0 0 0 0 0 0 0 0 0 0 0 0 0 0 0 0 0 0 0.2 0"/>
<feBlend mode="normal" in2="BackgroundImageFix" result="effect1_dropShadow_4633_83984"/>
<feBlend mode="normal" in="SourceGraphic" in2="effect1_dropShadow_4633_83984" result="shape"/>
</filter>
</defs>
</svg>
