<svg width="77" height="77" viewBox="0 0 77 77" fill="none" xmlns="http://www.w3.org/2000/svg">
<path d="M53.7607 71.4981L44.3223 63.9042C43.3928 63.1555 42.02 63.3908 41.3907 64.3962L34.9912 74.664C34.076 76.1329 31.8451 75.8049 31.3875 74.1364L28.227 62.4638C27.9196 61.3158 26.6683 60.6955 25.5671 61.1447L14.334 65.701C12.7252 66.3499 11.1164 64.7812 11.7313 63.1626L16.0572 51.868C16.4791 50.7556 15.8356 49.5292 14.6772 49.244L2.90786 46.349C1.2204 45.9355 0.848581 43.7179 2.30009 42.7696L12.4607 36.1668C13.4617 35.5179 13.6619 34.1417 12.8968 33.2362L5.08155 23.9951C3.96611 22.6689 4.96715 20.6581 6.69752 20.7437L18.803 21.3569C19.9971 21.4139 20.9695 20.4228 20.8837 19.2391L20.0114 7.18156C19.8898 5.456 21.8847 4.41495 23.2361 5.49878L32.6745 13.0927C33.6041 13.8414 34.9769 13.6061 35.6061 12.6007L42.0057 2.33287C42.9209 0.863999 45.1518 1.192 45.6094 2.86052L48.7698 14.533C49.0773 15.681 50.3286 16.3014 51.4297 15.8522L62.6628 11.2958C64.2717 10.647 65.8805 12.2157 65.2655 13.8343L60.9396 25.1289C60.5178 26.2412 61.1613 27.4677 62.3196 27.7529L74.089 30.6478C75.7765 31.0614 76.1483 33.279 74.6968 34.2273L64.5362 40.8301C63.5352 41.479 63.335 42.8551 64.1001 43.7607L71.9153 53.0017C73.0308 54.328 72.0297 56.3388 70.2994 56.2532L58.1939 55.64C56.9998 55.583 56.0274 56.5741 56.1132 57.7577L56.9855 69.8153C57.1071 71.5409 55.1121 72.5819 53.7607 71.4981Z" fill="white"/>
<path d="M33.3791 77C33.195 77 33.0039 76.9859 32.8128 76.9576C31.3194 76.7387 30.1444 75.7008 29.7551 74.2462L26.6266 62.6872C26.6125 62.6308 26.5771 62.5884 26.5276 62.5672C26.478 62.539 26.4214 62.539 26.3648 62.5672L15.2452 67.0792C13.8438 67.6441 12.3078 67.3475 11.2249 66.2884C10.142 65.2292 9.8093 63.704 10.3472 62.2989L14.6294 51.1142C14.6507 51.0577 14.6436 51.0083 14.6223 50.9518C14.6011 50.8953 14.5516 50.867 14.4949 50.8529L2.84454 47.9861C1.37939 47.626 0.31061 46.4751 0.0558016 44.9922C-0.199007 43.5094 0.430936 42.076 1.6979 41.2499L11.7557 34.7113C11.8053 34.6831 11.8336 34.6337 11.8407 34.5772C11.8478 34.5207 11.8407 34.4713 11.7982 34.4218L4.06195 25.2707C3.08519 24.1198 2.90116 22.5663 3.57357 21.2177C4.24598 19.869 5.59788 19.0852 7.1055 19.1558L19.0886 19.7631C19.1452 19.7631 19.1947 19.749 19.2372 19.7066C19.2797 19.6642 19.2938 19.6148 19.2938 19.5583L18.4303 7.61807C18.3241 6.11406 19.0886 4.75128 20.4263 4.05223C21.7641 3.35319 23.3283 3.50853 24.5032 4.45471L33.8462 11.9747C33.8887 12.01 33.9453 12.0242 34.0019 12.0171C34.0585 12.01 34.101 11.9747 34.1364 11.9253L40.4712 1.75739C41.271 0.479338 42.6937 -0.17734 44.1872 0.0415529C45.6806 0.260446 46.8556 1.29842 47.2449 2.753L50.3734 14.3119C50.3875 14.3684 50.4229 14.4108 50.4725 14.432C50.522 14.4602 50.5786 14.4602 50.6352 14.432L61.7548 9.91997C63.1562 9.35509 64.6922 9.65165 65.7751 10.7108C66.858 11.7629 67.1907 13.2952 66.6528 14.7003L62.3706 25.885C62.3493 25.9415 62.3564 25.9909 62.3777 26.0474C62.406 26.0968 62.4484 26.1322 62.5051 26.1463L74.1555 29.0131C75.6206 29.3732 76.6894 30.5241 76.9442 32.007C77.199 33.4898 76.5691 34.9232 75.3021 35.7493L65.2442 42.2878C65.1947 42.3161 65.1664 42.3655 65.1593 42.422C65.1522 42.4785 65.1593 42.5279 65.2018 42.5774L72.938 51.7285C73.9148 52.8794 74.0988 54.4329 73.4264 55.7815C72.754 57.1302 71.395 57.914 69.8945 57.8434L57.9114 57.2361C57.8548 57.2361 57.8053 57.2502 57.7628 57.2926C57.7203 57.335 57.7062 57.3844 57.7062 57.4409L58.5697 69.3811C58.6759 70.8851 57.9114 72.2479 56.5737 72.947C55.2359 73.646 53.6717 73.4907 52.4968 72.5445L43.1538 65.0244C43.1113 64.9891 43.0547 64.975 42.9981 64.9821C42.9415 64.9891 42.899 65.0244 42.8636 65.0739L36.5288 75.2418C35.8351 76.3574 34.6602 77 33.3791 77ZM26.4355 59.0084C27.0018 59.0084 27.5751 59.1355 28.0918 59.3968C29.0473 59.8699 29.7622 60.7313 30.0382 61.7622L33.1667 73.3212C33.1809 73.3636 33.2021 73.4412 33.3295 73.4624C33.4569 73.4836 33.4994 73.413 33.5206 73.3706L39.8554 63.2027C40.4217 62.2989 41.3489 61.6775 42.4035 61.4939C43.4581 61.3174 44.5411 61.5998 45.3692 62.2706L54.7122 69.7907C54.7122 69.7907 54.8113 69.8683 54.9245 69.8118C55.0378 69.7554 55.0307 69.6706 55.0307 69.6283L54.1672 57.688C54.0893 56.6218 54.4786 55.5768 55.2218 54.8142C55.965 54.0516 57.0125 53.642 58.0813 53.6985L70.0644 54.3058C70.1068 54.3058 70.1918 54.3058 70.2484 54.1998C70.305 54.0869 70.2484 54.0233 70.2201 53.988L62.4838 44.8369C61.7973 44.0178 61.4858 42.9516 61.6415 41.8924C61.7973 40.8403 62.3989 39.8942 63.2978 39.3151L73.3556 32.7766C73.391 32.7554 73.4618 32.706 73.4406 32.5789C73.4193 32.4518 73.3415 32.4306 73.2919 32.4236L61.6415 29.5568C60.6011 29.3026 59.7234 28.6106 59.2279 27.6644C58.7325 26.7182 58.6688 25.6026 59.051 24.607L63.3332 13.4223C63.3473 13.3799 63.3757 13.3022 63.2907 13.2175C63.1987 13.1257 63.1208 13.161 63.0784 13.1751L51.9588 17.6871C50.9679 18.0896 49.8496 18.0472 48.8941 17.5742C47.9385 17.1011 47.2236 16.2396 46.9476 15.2087L43.8191 3.64975C43.805 3.60739 43.7837 3.52971 43.6563 3.50853C43.5289 3.48735 43.4865 3.55796 43.4652 3.60032L37.1304 13.7682C36.5642 14.6721 35.6369 15.2934 34.5823 15.477C33.5277 15.6535 32.4448 15.3711 31.6166 14.7003L22.2737 7.18028C22.2737 7.18028 22.1746 7.10261 22.0613 7.1591C21.9481 7.21559 21.9552 7.30032 21.9552 7.34268L22.8187 19.2829C22.8965 20.3491 22.5072 21.3942 21.7641 22.1568C21.0209 22.9194 19.9662 23.3289 18.9045 23.2724L6.92147 22.6652C6.879 22.6652 6.79406 22.6652 6.73744 22.7711C6.68082 22.8841 6.73744 22.9476 6.76575 22.9829L14.502 32.1341C15.1886 32.9531 15.5 34.0194 15.3443 35.0785C15.1886 36.1306 14.587 37.0768 13.688 37.6558L3.6302 44.1943C3.59481 44.2155 3.52403 44.2649 3.54526 44.392C3.56649 44.5191 3.64435 44.5403 3.6939 44.5474L15.3443 47.4142C16.3848 47.6684 17.2624 48.3604 17.7579 49.3065C18.2534 50.2527 18.3171 51.3684 17.9348 52.364L13.6527 63.5487C13.6385 63.5911 13.6102 63.6687 13.6951 63.7535C13.7871 63.8452 13.865 63.8099 13.9075 63.7958L25.027 59.2838C25.48 59.1002 25.9542 59.0084 26.4355 59.0084Z" fill="#231F20"/>
</svg>
