<svg width="117" height="100" viewBox="0 0 117 100" fill="none" xmlns="http://www.w3.org/2000/svg">
<path d="M74.2988 87.1492L66.6925 74.4207C66.3247 73.8055 65.5148 73.6237 64.9189 74.0292L52.6623 82.3626C51.8198 82.9359 50.6793 82.3114 50.7119 81.286L51.1867 66.4602C51.21 65.7424 50.6234 65.1505 49.9066 65.1692L35.099 65.5467C34.0796 65.5747 33.4604 64.4281 34.0377 63.5892L42.4446 51.3734C42.8496 50.7815 42.6773 49.9705 42.0629 49.5976L29.4013 41.8981C28.5308 41.3668 28.6239 40.0711 29.5689 39.6749L43.236 33.9515C43.897 33.6719 44.1902 32.8982 43.8783 32.2504L37.3846 18.9206C36.9377 18.0025 37.7198 16.9631 38.7253 17.1402L53.314 19.7223C54.0216 19.8481 54.6873 19.3494 54.771 18.6363L56.5074 3.90374C56.6284 2.8877 57.848 2.44027 58.5975 3.13006L69.4762 13.1973C70.0022 13.6866 70.8308 13.6307 71.287 13.0714L80.6994 1.61998C81.3464 0.832317 82.6173 1.11196 82.8733 2.10004L86.588 16.4598C86.7695 17.1542 87.4957 17.555 88.18 17.336L102.285 12.7964C103.258 12.4842 104.17 13.407 103.853 14.3764L99.2263 28.4658C99.0029 29.1463 99.3985 29.878 100.092 30.0645L114.406 33.8816C115.393 34.1426 115.663 35.415 114.872 36.0629L103.369 45.4123C102.811 45.8644 102.75 46.694 103.234 47.2253L113.219 58.1827C113.908 58.9378 113.447 60.1542 112.433 60.2661L97.7088 61.9067C96.9966 61.9859 96.4938 62.6477 96.6148 63.3608L99.096 77.9862C99.2682 78.9929 98.2255 79.7713 97.3084 79.3145L84.037 72.7242C83.3946 72.4026 82.6126 72.6916 82.3333 73.3534L76.5239 87.0001C76.1235 87.9415 74.8294 88.0301 74.3034 87.1539L74.2988 87.1492Z" fill="white"/>
<path d="M75.3724 88.9233C74.5252 88.9233 73.7432 88.4852 73.3056 87.7488L65.6993 75.0203C65.6947 75.011 65.6807 74.9877 65.6435 74.983C65.6109 74.9737 65.5876 74.9923 65.5783 74.997L53.3217 83.3304C52.5676 83.8431 51.604 83.8897 50.8033 83.4469C50.0027 83.0088 49.5279 82.1652 49.5558 81.2517L50.0306 66.4259C50.0306 66.4259 50.0306 66.3886 50.0073 66.3653C49.984 66.3373 49.9561 66.342 49.9468 66.342L35.1393 66.7195C34.2269 66.7475 33.389 66.2581 32.9561 65.4565C32.5231 64.6548 32.5743 63.6854 33.0911 62.935L41.498 50.7192C41.498 50.7192 41.5166 50.6912 41.5119 50.6539C41.5026 50.6167 41.4794 50.6027 41.4747 50.598L28.8131 42.8985C28.0357 42.4231 27.5935 41.5655 27.6587 40.652C27.7285 39.7432 28.2917 38.9555 29.1343 38.6059L42.8014 32.8826C42.8014 32.8826 42.834 32.8686 42.8479 32.8359C42.8619 32.8033 42.8479 32.7754 42.8479 32.7707L36.3542 19.441C35.9539 18.6207 36.047 17.6559 36.5963 16.9288C37.1456 16.2018 38.044 15.8475 38.9424 16.006L53.5312 18.5881C53.5312 18.5881 53.5684 18.5927 53.5963 18.5741C53.6243 18.5508 53.6289 18.5228 53.6289 18.5182L55.3652 3.78556C55.4723 2.87671 56.0681 2.11701 56.9247 1.80474C57.7812 1.48781 58.7261 1.6789 59.3965 2.29878L70.2752 12.366C70.2752 12.366 70.3078 12.3893 70.3404 12.3893C70.3776 12.3893 70.3962 12.366 70.4009 12.3567L79.7993 0.881915C80.3812 0.178143 81.2936 -0.138787 82.1827 0.0569639C83.0718 0.252715 83.77 0.923861 83.9981 1.8094L87.7128 16.1691C87.7128 16.1691 87.7221 16.2064 87.7547 16.2204C87.7873 16.239 87.8106 16.2297 87.8199 16.2251L101.925 11.6855C102.79 11.4059 103.731 11.6342 104.373 12.2821C105.015 12.9299 105.239 13.8714 104.955 14.7383L100.328 28.8277C100.328 28.8277 100.319 28.8603 100.333 28.893C100.351 28.9256 100.379 28.9302 100.384 28.9349L114.698 32.752C115.578 32.9851 116.243 33.6889 116.434 34.5791C116.625 35.4739 116.304 36.3828 115.596 36.9607L104.094 46.3101C104.094 46.3101 104.066 46.3334 104.061 46.3707C104.057 46.408 104.075 46.4267 104.084 46.436L114.069 57.3934C114.684 58.0692 114.865 59.02 114.544 59.8729C114.223 60.7258 113.46 61.3224 112.552 61.4203L97.8281 63.0608C97.8281 63.0608 97.7909 63.0608 97.7676 63.0935C97.7443 63.1214 97.749 63.1494 97.7537 63.1587L100.235 77.7795C100.388 78.679 100.025 79.5785 99.2945 80.1238C98.5636 80.6691 97.6 80.753 96.7808 80.3475L83.5094 73.7572C83.5094 73.7572 83.4768 73.7386 83.4442 73.7572C83.4116 73.7712 83.3976 73.7945 83.3976 73.8038L77.5882 87.4505C77.2298 88.2894 76.4431 88.8487 75.5307 88.914C75.4748 88.914 75.419 88.9186 75.3631 88.9186L75.3724 88.9233ZM75.3026 86.551C75.3026 86.551 75.3212 86.5929 75.3817 86.5929C75.4329 86.5929 75.4469 86.5603 75.4562 86.5416L81.2657 72.8997C81.5263 72.2891 82.0291 71.8091 82.6482 71.5807C83.2673 71.3523 83.9656 71.3896 84.5567 71.6832L97.8281 78.2735C97.8281 78.2735 97.8747 78.2968 97.9166 78.2642C97.9585 78.2315 97.9538 78.2036 97.9492 78.1803L95.4681 63.5549C95.3563 62.9024 95.5239 62.2266 95.9196 61.6952C96.3153 61.1639 96.9204 60.8237 97.5814 60.7491L112.305 59.1085C112.305 59.1085 112.356 59.1039 112.375 59.0526C112.394 59.006 112.375 58.9827 112.356 58.9641L102.376 48.0066C101.929 47.5173 101.701 46.8601 101.752 46.1983C101.804 45.5365 102.125 44.9212 102.637 44.5018L114.139 35.1523C114.139 35.1523 114.181 35.1197 114.167 35.0684C114.153 35.0172 114.125 35.0078 114.107 35.0032L99.7925 31.186C99.1548 31.0136 98.6055 30.5848 98.2936 30.0022C97.9771 29.4196 97.9166 28.7252 98.1214 28.096L102.748 14.0066C102.748 14.0066 102.767 13.9553 102.73 13.918C102.693 13.8807 102.665 13.89 102.641 13.8947L88.5368 18.4343C87.9083 18.6393 87.2147 18.5694 86.6375 18.2525C86.0603 17.9356 85.632 17.3809 85.4645 16.7424L81.7498 2.38267C81.7498 2.38267 81.7358 2.3314 81.6846 2.32208C81.6334 2.31276 81.6148 2.33607 81.6008 2.35005L72.1884 13.8015C71.7695 14.3142 71.1503 14.6311 70.4893 14.6777C69.8237 14.7243 69.172 14.4913 68.6878 14.0438L57.8091 3.97665C57.8091 3.97665 57.7719 3.93936 57.7207 3.958C57.6741 3.97665 57.6695 4.00461 57.6648 4.02791L55.9285 18.7605C55.8493 19.4177 55.5002 20.0236 54.9742 20.4151C54.4482 20.8066 53.7639 20.9697 53.1169 20.8532L38.5281 18.2711C38.5281 18.2711 38.4769 18.2618 38.4443 18.3038C38.4117 18.3457 38.4257 18.3737 38.435 18.3923L44.9287 31.722C45.2173 32.3186 45.2499 33.0131 45.0172 33.6329C44.7844 34.2528 44.3003 34.7562 43.6905 35.0078L30.0234 40.7312C30.0234 40.7312 29.9769 40.7499 29.9722 40.8011C29.9722 40.8524 29.9955 40.8711 30.0141 40.8804L42.6757 48.5799C43.239 48.9248 43.6439 49.4934 43.7836 50.1366C43.9232 50.7845 43.7836 51.4696 43.4112 52.0149L35.0043 64.2307C35.0043 64.2307 34.9763 64.2726 34.9996 64.3192C35.0229 64.3658 35.0508 64.3612 35.0787 64.3659L49.8863 63.9883C50.5426 63.9697 51.1943 64.2307 51.6598 64.7014C52.1253 65.1722 52.3814 65.82 52.3581 66.4818L51.8833 81.3076C51.8833 81.3076 51.8833 81.3589 51.9252 81.3869C51.9717 81.4148 51.995 81.3962 52.0136 81.3869L64.2702 73.0535C64.8149 72.6806 65.4992 72.5501 66.1462 72.6946C66.7933 72.8391 67.3565 73.2446 67.6963 73.8132L75.3026 86.5416V86.551Z" fill="#231F20"/>
<path d="M60.2621 99.1652H52.9723C52.33 99.1652 51.8086 98.6432 51.8086 98C51.8086 97.3568 52.33 96.8348 52.9723 96.8348H60.2621C61.0022 96.8348 61.6074 96.2289 61.6074 95.4879V75.4933C61.6074 74.8501 62.1287 74.3281 62.7711 74.3281C63.4135 74.3281 63.9349 74.8501 63.9349 75.4933V95.4879C63.9349 97.5153 62.287 99.1652 60.2621 99.1652Z" fill="#231F20"/>
<path d="M80.9027 99.165H73.613C72.9706 99.165 72.4492 98.643 72.4492 97.9998C72.4492 97.3566 72.9706 96.8346 73.613 96.8346H80.9027C81.6428 96.8346 82.248 96.2287 82.248 95.4877V72.5988C82.248 71.9556 82.7694 71.4336 83.4117 71.4336C84.0541 71.4336 84.5755 71.9556 84.5755 72.5988V95.4877C84.5755 97.5151 82.9276 99.165 80.9027 99.165Z" fill="#231F20"/>
<path d="M51.6699 27.9102H18.0282C16.8584 27.9102 15.9102 28.8596 15.9102 30.0308V79.6677C15.9102 80.8389 16.8584 81.7883 18.0282 81.7883H51.6699C52.8396 81.7883 53.7879 80.8389 53.7879 79.6677V30.0308C53.7879 28.8596 52.8396 27.9102 51.6699 27.9102Z" fill="white"/>
<path d="M51.6711 82.9515H18.0201C16.2139 82.9515 14.7383 81.4787 14.7383 79.6656V30.0241C14.7383 28.2111 16.2093 26.7383 18.0201 26.7383H51.6664C53.4725 26.7383 54.9482 28.2111 54.9482 30.0241V79.6656C54.9482 81.4787 53.4772 82.9515 51.6664 82.9515H51.6711ZM18.0201 29.0733C17.494 29.0733 17.0658 29.5021 17.0658 30.0288V79.6703C17.0658 80.197 17.494 80.6257 18.0201 80.6257H51.6664C52.1924 80.6257 52.6207 80.197 52.6207 79.6703V30.0288C52.6207 29.5021 52.1924 29.0733 51.6664 29.0733H18.0201Z" fill="#231F20"/>
<path d="M44.9606 77.1331C44.3182 77.1331 43.7969 76.6111 43.7969 75.968V35.2238C43.7969 34.5806 44.3182 34.0586 44.9606 34.0586C45.603 34.0586 46.1244 34.5806 46.1244 35.2238V75.968C46.1244 76.6111 45.603 77.1331 44.9606 77.1331Z" fill="#231F20"/>
<path d="M25.3436 67.7533L10.5547 68.7274V42.4688L24.7385 42.9255C25.0364 42.9348 25.3157 43.0653 25.5112 43.289C31.7442 50.2755 31.6698 60.8554 25.339 67.7579L25.3436 67.7533Z" fill="white"/>
<path d="M10.5544 69.8908C10.2611 69.8908 9.97716 69.779 9.75837 69.5739C9.52562 69.3549 9.39062 69.0473 9.39062 68.7257V42.4671C9.39062 42.1501 9.51631 41.8472 9.74441 41.6281C9.9725 41.4091 10.2751 41.2879 10.5916 41.3019L24.7754 41.7586C25.3852 41.7773 25.9717 42.0522 26.3814 42.509C33.0427 49.9755 32.9635 61.1706 26.1998 68.5439C25.995 68.7629 25.7157 68.8981 25.4178 68.9168L10.6289 69.8908C10.6056 69.8908 10.5777 69.8908 10.5544 69.8908ZM11.7181 43.6695V67.4812L24.794 66.6237C30.4312 60.1452 30.4033 50.5441 24.6683 44.089L11.7181 43.6742V43.6695Z" fill="#231F20"/>
<path d="M10.5536 68.7313C15.4589 68.7313 19.4354 62.8531 19.4354 55.602C19.4354 48.3508 15.4589 42.4727 10.5536 42.4727C5.64837 42.4727 1.67188 48.3508 1.67188 55.602C1.67188 62.8531 5.64837 68.7313 10.5536 68.7313Z" fill="white"/>
<path d="M10.5533 69.8937C5.01385 69.8937 0.507812 63.4805 0.507812 55.5992C0.507812 47.7179 5.01385 41.3047 10.5533 41.3047C16.0928 41.3047 20.5988 47.7179 20.5988 55.5992C20.5988 63.4805 16.0928 69.8937 10.5533 69.8937ZM10.5533 43.6351C6.29863 43.6351 2.83531 49.0042 2.83531 55.5992C2.83531 62.1941 6.29863 67.5633 10.5533 67.5633C14.808 67.5633 18.2713 62.1941 18.2713 55.5992C18.2713 49.0042 14.808 43.6351 10.5533 43.6351Z" fill="#231F20"/>
<path d="M10.392 64.6423C13.1866 64.6423 15.452 60.5941 15.452 55.6004C15.452 50.6068 13.1866 46.5586 10.392 46.5586C7.59746 46.5586 5.33203 50.6068 5.33203 55.6004C5.33203 60.5941 7.59746 64.6423 10.392 64.6423Z" fill="#231F20"/>
<path d="M10.3917 65.8047C6.90045 65.8047 4.16797 61.321 4.16797 55.5976C4.16797 49.8743 6.90045 45.3906 10.3917 45.3906C13.883 45.3906 16.6154 49.8743 16.6154 55.5976C16.6154 61.321 13.883 65.8047 10.3917 65.8047ZM10.3917 47.7257C8.54832 47.7257 6.49547 50.9602 6.49547 55.6023C6.49547 60.2444 8.54832 63.479 10.3917 63.479C12.2351 63.479 14.2879 60.2444 14.2879 55.6023C14.2879 50.9602 12.2351 47.7257 10.3917 47.7257Z" fill="#231F20"/>
<path d="M64.6566 69.0491C52.8143 69.0491 48.9693 64.2019 46.8187 61.4894C46.6557 61.2796 46.4975 61.0839 46.3485 60.9021C46.274 60.8089 46.1763 60.7903 46.1111 60.7856C46.0552 60.7856 45.9482 60.7949 45.8597 60.8881L42.5035 64.4536C42.0613 64.9197 41.3258 64.943 40.8603 64.5002C40.3948 64.0575 40.3715 63.3211 40.8137 62.855L44.17 59.2895C44.6913 58.7349 45.4268 58.4273 46.1902 58.4552C46.949 58.4785 47.6612 58.8281 48.1453 59.4154C48.3036 59.6064 48.4712 59.8162 48.6434 60.0352C50.8778 62.8503 54.6111 67.5623 68.0501 66.5836C83.4163 65.4697 83.9563 54.6754 83.9749 54.214C83.9982 53.5708 84.5335 53.0767 85.1712 53.0861C85.8136 53.1047 86.3163 53.636 86.2977 54.2792C86.2977 54.4144 85.7438 67.6322 68.2177 68.9046C66.9562 68.9978 65.7738 69.0398 64.6566 69.0398V69.0491Z" fill="#231F20"/>
<path d="M68.0389 43.2004C65.3064 43.2004 63.0859 41.1311 63.0859 38.591C63.0859 37.9478 63.6073 37.4258 64.2497 37.4258C64.8921 37.4258 65.4134 37.9478 65.4134 38.591C65.4134 39.8447 66.5912 40.8701 68.0389 40.8701C69.4866 40.8701 70.6643 39.8494 70.6643 38.591C70.6643 37.9478 71.1856 37.4258 71.828 37.4258C72.4704 37.4258 72.9918 37.9478 72.9918 38.591C72.9918 41.1311 70.7714 43.2004 68.0389 43.2004Z" fill="#231F20"/>
<path d="M81.8553 43.2004C79.1228 43.2004 76.9023 41.1311 76.9023 38.591C76.9023 37.9478 77.4237 37.4258 78.0661 37.4258C78.7085 37.4258 79.2298 37.9478 79.2298 38.591C79.2298 39.8447 80.4076 40.8701 81.8553 40.8701C83.303 40.8701 84.4807 39.8494 84.4807 38.591C84.4807 37.9478 85.002 37.4258 85.6444 37.4258C86.2868 37.4258 86.8082 37.9478 86.8082 38.591C86.8082 41.1311 84.5877 43.2004 81.8553 43.2004Z" fill="#231F20"/>
<path d="M73.5916 52.1921C72.9771 52.1921 72.3301 52.1595 71.6458 52.0849C71.0081 52.015 70.5426 51.4417 70.6124 50.8032C70.6822 50.1647 71.2641 49.6986 71.8925 49.7685C77.2923 50.3511 79.8386 48.0534 79.8619 48.0301C80.332 47.592 81.0675 47.6199 81.5051 48.0907C81.9427 48.5614 81.9147 49.2978 81.4446 49.7359C81.3236 49.8478 78.7307 52.1875 73.5869 52.1875L73.5916 52.1921Z" fill="#231F20"/>
<path d="M30.6378 23.457H22.1797V27.9313H30.6378V23.457Z" fill="white"/>
<path d="M30.6375 29.0937H22.1794C21.537 29.0937 21.0156 28.5717 21.0156 27.9286V23.4542C21.0156 22.8111 21.537 22.2891 22.1794 22.2891H30.6375C31.2799 22.2891 31.8013 22.8111 31.8013 23.4542V27.9286C31.8013 28.5717 31.2799 29.0937 30.6375 29.0937ZM23.3431 26.7634H29.4738V24.6194H23.3431V26.7634Z" fill="#231F20"/>
</svg>
